<?xml version="1.0" standalone="no"?>
<!DOCTYPE svg PUBLIC "-//W3C//DTD SVG 1.1//EN" "http://www.w3.org/Graphics/SVG/1.1/DTD/svg11.dtd" >
<svg xmlns="http://www.w3.org/2000/svg" xmlns:xlink="http://www.w3.org/1999/xlink" version="1.1">
<metadata></metadata>
<defs>
<font id="pacificoregular" horiz-adv-x="1248" >
<font-face units-per-em="2048" ascent="1638" descent="-410" />
<missing-glyph horiz-adv-x="545" />
<glyph horiz-adv-x="0" />
<glyph unicode="&#xd;" horiz-adv-x="447" />
<glyph unicode=" "  horiz-adv-x="545" />
<glyph unicode="&#x09;" horiz-adv-x="545" />
<glyph unicode="&#xa0;" horiz-adv-x="545" />
<glyph unicode="!" horiz-adv-x="1184" d="M246 162q0 36 10.5 70.5t32.5 61.5t57 43t83 16q78 0 120 -42t42 -120q0 -4 -1 -6q-2 -4 -3.5 -19t-7 -36t-15.5 -44t-29.5 -42.5t-49.5 -32.5t-75 -13q-37 0 -67 9.5t-51.5 29.5t-33.5 51t-12 74zM414 497q0 5 2 15q10 103 30 212.5t46 219t55.5 216.5t58.5 205 t55.5 184t46.5 155q13 48 37.5 77.5t54.5 46t63.5 22.5t64.5 6q16 0 30 -4t24 -14.5t15.5 -29t5.5 -47.5q0 -20 -2.5 -43.5t-8.5 -53.5q-25 -117 -65 -234.5t-96 -252.5t-127.5 -296.5t-159.5 -368.5q-2 -11 -10.5 -20.5t-20.5 -16t-26 -10t-27 -3.5q-19 0 -32.5 8t-13.5 27 z" />
<glyph unicode="&#x22;" horiz-adv-x="1184" d="M160 1283q0 18 1.5 46.5t3.5 63t5 73t6 75.5q7 87 16 187q0 30 15 53.5t39 40t54 25.5t60 9q25 0 48 -6.5t41 -19.5t28.5 -34t10.5 -49q0 -12 -2 -24.5t-6 -26.5q-14 -48 -30.5 -105.5t-34 -114.5t-34 -108.5t-29.5 -87.5q-17 -48 -48.5 -71.5t-63.5 -23.5t-56 24.5 t-24 73.5zM544 1283q0 18 1.5 46.5t3.5 63t5 73t6 75.5q7 87 16 187q0 30 15 53.5t39 40t54 25.5t60 9q25 0 48 -6.5t41 -19.5t28.5 -34t10.5 -49q0 -12 -2 -24.5t-6 -26.5q-14 -48 -30.5 -105.5t-34 -114.5t-34 -108.5t-29.5 -87.5q-17 -48 -48.5 -71.5t-63.5 -23.5 t-56 24.5t-24 73.5z" />
<glyph unicode="#" d="M159 43q0 22 8 53.5t26 71.5l124 279q-5 0 -9 0.5t-8 0.5q-24 0 -48 6t-43 19t-31 33.5t-12 49.5q0 27 10 45t25.5 30.5t34.5 20.5t38 14q13 5 44 5.5t60 0.5h38l129 288h-62q-24 0 -48 6t-43 19t-31 33.5t-12 49.5q0 38 19.5 61t53 35t77.5 16t92 4h53l138 306 q10 24 29 49.5t45.5 45.5t59.5 33t71 13q21 0 33 -8.5t17 -21t6 -27.5t1 -28q0 -7 -5 -22t-12.5 -33l-15 -36t-13.5 -30q-23 -51 -49 -111t-55 -130q64 0 132 0.5t137 0.5q33 93 62 172.5t50 136.5q9 24 25.5 49.5t41 45.5t56.5 33t70 13q21 0 33.5 -8.5t19 -21t8.5 -27.5 t4 -28q0 -8 -4 -23t-9.5 -32.5t-11.5 -35t-11 -30.5q-19 -51 -40 -112t-44 -132h126q25 0 41 -5t25 -14t12.5 -20t3.5 -23q0 -35 -11.5 -64.5t-40 -51.5t-76 -34.5t-118.5 -12.5h-36q-22 -68 -46.5 -139.5t-51.5 -147.5h87q25 -2 41 -8t25 -14.5t12.5 -19.5t3.5 -22 q0 -34 -12 -63.5t-40.5 -51t-76 -34t-117.5 -12.5h-3q-35 -95 -73.5 -193t-80.5 -200q-12 -29 -27 -46t-31 -26t-32.5 -11.5t-31.5 -2.5q-20 0 -39 3.5t-34 13t-24 27.5t-9 47q0 43 24 112l97 275q-74 -1 -155.5 -1.5t-168.5 -0.5q-44 -95 -91 -193.5t-98 -200.5 q-15 -29 -31.5 -46t-33.5 -26t-33.5 -11.5t-31.5 -2.5q-17 0 -34.5 2.5t-31.5 10.5t-23 23.5t-9 41.5zM676 669h1h150.5t152.5 1q25 71 51 144l52 146h-283q-29 -69 -59.5 -141t-64.5 -150z" />
<glyph unicode="$" horiz-adv-x="1735" d="M257 417q0 36 7.5 76.5t24 80.5t44 77t67.5 65t93.5 45t123.5 17q30 0 51.5 -8.5t36 -22.5t21.5 -31.5t7 -35.5q0 -32 -21.5 -57t-64.5 -25q-23 0 -49.5 -6.5t-49 -26t-37.5 -54t-15 -91.5q0 -95 83 -147t228 -63l116 643q-78 41 -154.5 85t-137 96.5t-98 116 t-37.5 143.5q0 77 37.5 154.5t111.5 141t184 105.5t255 48l22 129q3 19 13 39t28 36t44 26.5t59 10.5q18 0 30.5 -8.5t20.5 -20.5t12 -25.5t4 -23.5q0 -8 -1 -19t-2.5 -23t-3 -23.5t-2.5 -20.5l-15 -92q81 -16 154 -47t128.5 -76t88.5 -103t33 -128q0 -38 -9.5 -65.5 t-25.5 -45.5t-36.5 -27t-41.5 -9q-23 0 -46 9.5t-41 28.5t-29 46.5t-11 62.5q0 50 -52 90.5t-146 58.5l-96 -557q71 -41 138 -87t119.5 -101t84.5 -122t32 -149q0 -111 -39.5 -199.5t-111 -152t-172 -102t-222.5 -49.5l-30 -162q-7 -23 -18 -36t-24.5 -20t-28.5 -9t-29 -2 q-10 0 -18.5 0.5t-16.5 0.5q-16 0 -29.5 8.5t-23 23.5t-15 35t-5.5 43q0 11 1 23t3 26q1 8 4 26t8 43q-107 9 -200.5 38t-163 79t-109.5 123.5t-40 172.5zM767 1324q0 -37 15 -69.5t41.5 -62.5t62.5 -57t79 -54q22 122 43 236t38 214q-75 -8 -127.5 -28t-86.5 -48.5 t-49.5 -62.5t-15.5 -68zM1033 224q60 15 108.5 41t83 62t53.5 81.5t19 98.5q0 36 -13 68t-36 60.5t-54.5 54.5t-69.5 51z" />
<glyph unicode="%" horiz-adv-x="2208" d="M94 1120q0 73 14 146t41.5 140.5t69 126t97 102t125 68.5t153.5 25q94 0 161 -33t110.5 -90t64 -132.5t20.5 -160.5q0 -73 -16 -148.5t-46 -146.5t-73.5 -134t-98.5 -110t-120.5 -74t-140.5 -27q-89 0 -156 36.5t-113 98.5t-69 143t-23 170zM350 1141q0 -55 7.5 -105 t23 -88.5t38.5 -61t54 -22.5q46 0 88 42t74.5 108t51.5 145.5t19 154.5q0 45 -7.5 85.5t-24 71t-43 48t-63.5 17.5q-53 0 -94 -35t-68.5 -91.5t-41.5 -127t-14 -141.5zM580 96q0 35 10.5 73t24.5 68q16 31 49 95.5t78 152t99.5 193t113 218t117.5 227t114 220t103 196.5 t83 157q10 18 26 35t39.5 30.5t56 22t74.5 8.5q26 0 35.5 -18t9.5 -44q0 -18 -3.5 -38t-8.5 -39t-11 -35.5t-10 -25.5q-38 -76 -90 -187.5t-113 -243t-127.5 -275.5t-133.5 -285t-131.5 -271t-120.5 -234q-16 -30 -41 -48.5t-52 -29t-53.5 -14.5t-45.5 -4q-26 0 -44 7.5 t-28.5 20.5t-15 30.5t-4.5 37.5zM1312 482q0 76 13.5 153t41 148t68.5 132.5t96 107t124 71.5t153 26q88 0 152 -36t105.5 -97t61 -142t19.5 -171q0 -69 -15.5 -141t-44.5 -140t-71 -127.5t-95 -104.5t-116 -71t-135 -26q-89 0 -155.5 34t-111.5 91.5t-67.5 133.5t-22.5 159 zM1568 494q0 -46 7 -89t21.5 -76t37 -53t53.5 -20q42 0 81 37t68 95.5t46.5 129t17.5 138.5q0 55 -6.5 104t-20.5 86.5t-36.5 59.5t-54.5 22q-53 0 -93 -37.5t-67 -99t-40.5 -139.5t-13.5 -158z" />
<glyph unicode="&#x26;" horiz-adv-x="1472" d="M64 345q0 63 25.5 130t76.5 134t127 130t178 118q-19 35 -39.5 82t-38 99t-29 104.5t-11.5 99.5q0 81 35 155t94 131t136.5 90.5t163.5 33.5q73 0 134.5 -22.5t105.5 -62.5t68.5 -94t24.5 -118q0 -56 -19 -117.5t-62 -125t-111 -126.5t-165 -122q12 -24 40.5 -69.5 t64 -101.5t74 -117.5t71.5 -118.5q21 15 33.5 31t18.5 32t7.5 32.5t1.5 33.5q0 38 -9 65t-25.5 53t-39.5 55.5t-50 72.5q0 1 5 6t11.5 11t12.5 10.5t8 4.5q15 0 43 -12.5t61 -35t68 -54t63 -70.5t46 -84.5t18 -94.5q0 -61 -33.5 -126.5t-113.5 -130.5q3 0 21 -13.5t41 -31.5 t45.5 -36t33.5 -28q16 -15 16 -41q0 -23 -13.5 -49.5t-34.5 -49t-46.5 -37.5t-49.5 -15q-23 0 -41 15q-13 11 -37.5 36.5t-48.5 52.5t-42 47.5t-18 21.5q-47 -36 -108 -64q-53 -24 -126.5 -44t-167.5 -20q-122 0 -214.5 27t-154.5 74t-93.5 109.5t-31.5 134.5zM322 381 q0 -38 14.5 -70.5t44.5 -56.5t76 -38t109 -14q65 0 127 22.5t116 57.5q-43 51 -76 93.5t-64.5 89t-65.5 103t-78 136.5q-48 -36 -86 -76.5t-64 -82.5t-39.5 -83.5t-13.5 -80.5zM646 1262q0 -33 9.5 -79t21.5 -88.5t22 -72t12 -29.5q49 45 89.5 86.5t68.5 82.5t43.5 83 t15.5 87q0 25 -6.5 45t-21.5 34t-41 21.5t-65 7.5q-21 0 -47 -13.5t-48.5 -37.5t-37.5 -56.5t-15 -70.5z" />
<glyph unicode="'" horiz-adv-x="609" d="M160 1283q0 18 1.5 46.5t3.5 63t5 73t6 75.5q7 87 16 187q0 30 15 53.5t39 40t54 25.5t60 9q25 0 48 -6.5t41 -19.5t28.5 -34t10.5 -49q0 -12 -2 -24.5t-6 -26.5q-14 -48 -30.5 -105.5t-34 -114.5t-34 -108.5t-29.5 -87.5q-17 -48 -48.5 -71.5t-63.5 -23.5t-56 24.5 t-24 73.5z" />
<glyph unicode="(" horiz-adv-x="1377" d="M384 160q0 116 18 245.5t51.5 261.5t80.5 262t106.5 247.5t128.5 218.5t146.5 175t161 116t171.5 42q64 0 133 -22t127.5 -58t101 -82t54.5 -94q0 -2 0.5 -4t0.5 -4q0 -17 -14.5 -39t-36 -41.5t-46 -32.5t-43.5 -13q-14 0 -21 6q-24 18 -49 45t-55 52.5t-67 44t-85 18.5 q-61 0 -119.5 -38.5t-113 -105t-103.5 -156.5t-90.5 -194t-75 -216t-57 -223.5t-36.5 -216.5t-13 -194q0 -70 6.5 -129t21.5 -101.5t39.5 -66t60.5 -23.5q26 0 56 4.5t68.5 23.5t86 57.5t109.5 106.5q13 14 27.5 20t27.5 6q19 0 36.5 -12t30 -30.5t20 -41.5t7.5 -45 q0 -17 -4.5 -32t-15.5 -26q-133 -137 -263 -196t-250 -59q-83 0 -143.5 40.5t-99.5 113t-58 172.5t-19 218z" />
<glyph unicode=")" horiz-adv-x="1279" d="M61 -120q0 17 14.5 39t36 41.5t46 32.5t43.5 13q14 0 21 -6q24 -11 49 -27.5t55 -31.5t67 -25.5t85 -10.5q60 0 114.5 53t101 142t84 206t64 245.5t41 260.5t14.5 250q0 94 -9.5 174.5t-30 140t-52.5 93.5t-76 34q-26 0 -60.5 -4.5t-77.5 -23.5t-95.5 -57.5 t-113.5 -106.5q-13 -14 -27.5 -20t-27.5 -6q-20 0 -37 12t-29.5 30.5t-20 41.5t-7.5 45q0 37 20 58q133 137 263 196t250 59q100 0 173 -56.5t119.5 -154t69 -227.5t22.5 -276q0 -148 -21.5 -304t-62.5 -304t-100 -280t-133.5 -231t-164 -156.5t-190.5 -57.5 q-65 0 -133.5 16t-127 42.5t-101 61t-54.5 71.5q0 2 -0.5 4t-0.5 4z" />
<glyph unicode="*" horiz-adv-x="1024" d="M32 1235q0 26 17 46t58 31q30 6 65 12.5t72 13t72 12t65 10.5q-27 12 -60 27t-66.5 30.5t-66.5 31t-60 28.5q-54 31 -54 74q0 21 11.5 41t30 36t41.5 25.5t46 9.5q35 0 57 -23q42 -39 82 -77q34 -32 70 -67t61 -59q0 35 1 84.5t2 96.5q1 55 2 113q0 22 11 39.5t28 29.5 t39 18t45 6q36 0 64.5 -19t28.5 -60q0 -8 -1.5 -17t-3.5 -20q-11 -31 -24 -68.5t-27 -75t-27.5 -73t-24.5 -62.5q32 17 74.5 41t81.5 45q46 25 93 51q9 6 18 8t20 2q22 0 44 -11t38.5 -29t27 -40t10.5 -44q0 -25 -17 -45.5t-58 -31.5q-30 -6 -66 -13t-72.5 -13.5t-72 -12.5 t-65.5 -10q27 -12 60 -27t67 -31t67 -31.5t61 -28.5q29 -17 41.5 -36t12.5 -39q0 -21 -11.5 -41t-30 -35.5t-41.5 -25t-45 -9.5q-35 0 -58 23q-42 39 -82 77q-34 32 -70 66.5t-60 59.5q-1 -35 -1.5 -84.5t-1.5 -95.5q-1 -54 -2 -111q0 -22 -11 -39t-29 -29t-40 -18.5 t-44 -6.5q-18 0 -34.5 4.5t-29.5 14.5t-21 24.5t-8 35.5q0 8 1 17.5t4 19.5q10 31 23.5 67.5t27 73.5t27 72t24.5 62q-32 -18 -74.5 -41t-80.5 -44q-45 -25 -92 -50q-17 -10 -38 -10q-23 0 -44.5 11.5t-38.5 29.5t-27.5 40t-10.5 44z" />
<glyph unicode="+" horiz-adv-x="1503" d="M320 511q0 18 8.5 35.5t25 31t41.5 22t58 8.5h220v228q0 28 9.5 50t25.5 37.5t35 23.5t39 8q32 0 57.5 -24t25.5 -76v-247h250q52 0 76 -25.5t24 -57.5q0 -20 -8 -39t-23.5 -35t-37.5 -25.5t-50 -9.5h-231v-223q0 -33 -8.5 -58t-22 -41.5t-31 -25t-35.5 -8.5t-35 8 t-30.5 24t-21.5 40.5t-8 56.5v227h-224q-32 0 -56.5 8t-40.5 21.5t-24 30.5t-8 35z" />
<glyph unicode="," horiz-adv-x="609" d="M287 -109q0 16 6 37q3 13 8 33.5t11.5 44.5t14 50.5t14.5 52.5q17 60 36 128q6 21 19.5 37t32 26.5t40.5 15.5t45 5q28 0 56 -7.5t50.5 -22.5t36.5 -36.5t14 -49.5q0 -20 -7 -39t-19 -41q-19 -30 -41.5 -64.5l-45 -69t-44 -66t-37.5 -54.5q-24 -33 -53 -47.5t-56 -14.5 q-33 0 -57 21.5t-24 60.5z" />
<glyph unicode="-" horiz-adv-x="768" d="M63 621q0 13 3 27.5t13 27t29.5 20.5t51.5 8h448q13 0 30 -3t31 -11.5t24 -23t10 -38.5q0 -20 -4.5 -40.5t-18 -37t-38.5 -27.5t-67 -11h-415q-32 0 -51 11.5t-29.5 28t-13.5 35.5t-3 34z" />
<glyph unicode="." horiz-adv-x="704" d="M320 162q0 36 10.5 70.5t32.5 61.5t57 43t83 16q83 0 126 -42t43 -120q0 -4 -1 -20t-6.5 -37t-17 -44.5t-32.5 -43.5t-53 -33t-78 -13q-37 0 -67 9.5t-51.5 29t-33.5 50t-12 73.5z" />
<glyph unicode="/" d="M222 55q0 26 9.5 61t29.5 81q14 31 43.5 98t70 157.5t88.5 199.5t99.5 225t104 234t100.5 226t89.5 200.5t71.5 158.5q13 28 36.5 56.5t56.5 51.5t74 37.5t89 14.5q24 0 37 -9.5t19 -24t7 -31t1 -31.5q0 -8 -5.5 -25.5t-14 -37.5t-17.5 -40.5t-15 -34.5 q-53 -116 -120 -280.5t-151 -365.5t-186 -432t-225 -480q-20 -33 -41.5 -52t-44 -29t-44.5 -13t-43 -3t-42 2t-38 10.5t-28 26t-11 49.5z" />
<glyph unicode="0" horiz-adv-x="863" d="M39 412q0 73 13.5 149.5t39.5 148t64.5 135t88.5 111t111.5 75t133.5 27.5q83 0 143.5 -31.5t99.5 -85.5t57.5 -125.5t18.5 -151.5q0 -74 -14.5 -152t-42.5 -152t-68.5 -139.5t-92 -114.5t-113.5 -77.5t-133 -28.5q-77 0 -134.5 33.5t-95.5 90t-57 131t-19 157.5z M285 378q0 -42 4.5 -77.5t14 -62t24 -41.5t33.5 -15q27 0 53 24.5t49 65.5t42.5 94t33.5 109.5t22 112.5t8 103q0 39 -5 73t-15 59t-25.5 39.5t-37.5 14.5q-30 0 -56.5 -24.5t-49 -64.5t-40 -92t-30 -107.5t-19 -110t-6.5 -100.5z" />
<glyph unicode="1" horiz-adv-x="672" d="M8 807q0 11 21 18t65 7q11 0 33 16.5t52.5 41.5t67.5 54t76 54t79 41.5t78 16.5q54 0 72 -7.5t18 -21.5q0 -15 -4 -37t-4 -52l-5.5 -36t-14.5 -94t-20.5 -131.5t-22.5 -149t-21 -147t-17 -124.5q-3 -12 -7.5 -36t-12.5 -52.5t-19.5 -58t-27.5 -54t-37.5 -40t-48.5 -15.5 q-33 0 -62 4t-50 12.5t-33 22t-12 32.5q0 8 1 16t8 20q16 58 31.5 120.5t30 125.5t27.5 124.5t24 116.5q26 129 47 256q-15 -16 -32.5 -32.5t-34 -30t-30.5 -22t-21 -8.5q-94 0 -144 16.5t-50 33.5z" />
<glyph unicode="2" horiz-adv-x="927" d="M10 221q0 33 11 67.5t34.5 63t60 46.5t88.5 18q79 0 139.5 -23t111.5 -55q30 36 56.5 77.5t46.5 85.5t31.5 88.5t11.5 87.5q0 73 -14 119.5t-36.5 72.5t-49.5 35.5t-53 9.5q-32 0 -60.5 -11t-51 -30.5t-35.5 -46.5t-13 -60q0 -18 28.5 -37t91.5 -39q2 -6 2 -10 q0 -12 -23 -25.5t-57.5 -25t-75.5 -19t-77 -7.5q-8 8 -15.5 9t-13.5 1q-42 34 -61 73.5t-19 81.5q0 56 31.5 111.5t86 99.5t128 71t156.5 27q22 0 58.5 -4.5t79 -18.5t86 -38.5t79 -64.5t58 -98t22.5 -137q0 -44 -14.5 -103.5t-42 -126t-68 -135.5t-91.5 -130 q34 -17 70.5 -27.5t80.5 -10.5q11 0 24.5 15.5t25.5 34.5t22.5 34.5t15.5 15.5q14 0 22.5 -11t8.5 -39q0 -37 -16 -107q-5 -20 -14 -42t-25 -40.5t-40.5 -30.5t-58.5 -12q-29 0 -58.5 8.5t-59 23t-59 33t-58.5 39.5q-58 -44 -123 -71.5t-138 -32.5q-52 0 -97 18.5t-78.5 49 t-52.5 70.5t-19 82zM179 238q0 -9 5.5 -17t14.5 -15t21 -11t24 -4q42 0 101 42q-24 15 -45.5 24t-38.5 9q-45 0 -63.5 -8t-18.5 -20z" />
<glyph unicode="3" horiz-adv-x="831" d="M46 263q0 38 11.5 63.5t30.5 41t44 22t52 6.5q23 0 52 -5.5t54 -14.5t42 -20t17 -21q0 -8 -17 -13t-38 -13.5t-38 -22t-17 -37.5q0 -34 7 -58t19.5 -39t29 -22t34.5 -7q26 0 53 12.5t48.5 34.5t35.5 52.5t14 65.5q0 57 -14 95.5t-42.5 63t-72 37.5t-101.5 19 q-32 2 -46 13.5t-14 28.5q0 14 3.5 30.5t11 31t20.5 24t31 9.5q40 0 72 15t54.5 37.5t34 50t11.5 53.5q0 34 -21.5 58t-67.5 24q-36 0 -60.5 -17t-24.5 -40q0 -12 8.5 -25t28.5 -24q11 -6 11 -13q0 -8 -14.5 -15.5t-33.5 -13t-36 -9t-23 -3.5q-12 0 -23.5 5.5t-21.5 18.5 t-16 35t-6 55q0 52 23 90t61.5 63t87.5 37t101 12q56 0 110.5 -13.5t97 -39t69 -63t26.5 -86.5q0 -28 -6.5 -61.5t-25 -66.5t-53 -62.5t-89.5 -49.5q61 -16 104.5 -47.5t71 -74t40.5 -92t13 -101.5q0 -53 -27 -105.5t-75.5 -94t-115 -67.5t-145.5 -26q-93 0 -159.5 20 t-109 57t-62 88.5t-19.5 113.5z" />
<glyph unicode="4" horiz-adv-x="927" d="M86 237q0 26 16 61t42 74q21 55 38.5 102.5t31.5 92t26 89.5t23.5 95.5t23.5 109t26 131.5q6 16 24.5 27t44.5 18.5t56.5 11t60.5 3.5q25 0 47.5 -2.5t39 -6.5t26.5 -10.5t10 -13.5q-11 -77 -31.5 -153t-48 -153t-61 -156.5t-70.5 -162.5q38 -2 64 -2.5t47 -0.5h13 q20 65 40 126.5t37 115.5q6 26 22.5 44.5t37.5 30t43.5 17t40.5 5.5q47 0 63.5 -15t16.5 -41q0 -16 -6.5 -43t-17.5 -61t-25 -74t-28 -82q50 8 90 15.5t68 7.5q13 0 18.5 -11t5.5 -29q0 -43 -7.5 -69t-17.5 -40.5t-20 -19t-15 -4.5q-38 0 -79.5 1.5t-86.5 3.5 q-8 -32 -14 -62.5t-8 -57.5v-19q0 -18 14.5 -41t31.5 -45.5t31.5 -41.5t14.5 -30q0 -5 -2.5 -7.5t-12.5 -2.5q-43 0 -87.5 -3.5t-85.5 -3.5q-32 0 -56 4.5t-41 17.5t-25.5 35.5t-8.5 58.5q0 40 10 92t25 110q-62 0 -114 -12.5t-98 -28t-87.5 -28t-81.5 -12.5q-18 0 -26 13 t-8 32z" />
<glyph unicode="5" horiz-adv-x="831" d="M46 263q0 38 11.5 63.5t30.5 41t44 22t52 6.5q23 0 52 -5.5t54 -14.5t42 -20t17 -21q0 -8 -17 -13t-38 -13.5t-38 -22t-17 -37.5q0 -34 7 -58t19.5 -39t29 -22t34.5 -7q33 0 67 14t61.5 38.5t45 58.5t17.5 74q0 49 -14 82.5t-42.5 54.5t-72 32t-101.5 16q-29 5 -49 7.5 t-33.5 8.5t-22 19t-13 38.5t-6.5 66.5t-3 103q-2 30 -3.5 55.5t-1.5 48.5q0 77 11 115.5t25.5 53.5t29.5 15h25q29 0 58.5 -5.5t59.5 -12t61.5 -12t63.5 -5.5q10 0 19.5 0.5t19.5 2.5q45 10 64 17t26 11.5t8.5 7t12.5 2.5q37 0 53.5 -35.5t16.5 -93.5v-5q0 -5 -5.5 -14.5 t-19 -22t-39.5 -27t-67 -28.5t-103 -27q-42 4 -70.5 9.5t-49.5 10t-37 7.5t-34 3q-6 0 -13 -0.5t-15 -1.5q4 -24 8 -51q4 -23 8.5 -53t11.5 -62q60 6 112 6q96 0 163 -17.5t111.5 -46t69.5 -65.5t37.5 -75.5t15.5 -76t3 -67.5q0 -57 -30 -113t-83.5 -100.5t-127.5 -72 t-162 -27.5q-93 0 -159.5 20t-109 57t-62 88.5t-19.5 113.5z" />
<glyph unicode="6" horiz-adv-x="928" d="M35 400q0 124 47.5 242t129.5 221.5t193 189t237 144.5q20 9 37.5 14.5t35.5 5.5q44 0 69 -22.5t25 -54.5q0 -23 -13.5 -47t-45.5 -46q-89 -53 -173.5 -128.5t-150 -165.5t-105.5 -190.5t-40 -201.5q0 -39 7.5 -74t25 -62t45.5 -42.5t70 -15.5q43 0 79.5 24.5t62 63 t40 85.5t14.5 92q0 65 -22 99.5t-56 34.5q-25 0 -42 -12.5t-29 -31t-21 -40.5t-18 -40.5t-19 -31t-24 -12.5q-5 0 -11.5 23.5t-6.5 58.5q0 55 22.5 99t58.5 74.5t82 47t94 16.5q46 0 89 -16t77 -49.5t54.5 -85.5t20.5 -124q0 -80 -31 -159t-89 -142t-141 -102t-188 -39 q-73 0 -143 21.5t-125 69.5t-88.5 124t-33.5 185z" />
<glyph unicode="7" horiz-adv-x="608" d="M73 792q0 10 1 21.5t3 23.5q15 87 43 141t62.5 83.5t72 40t69.5 10.5q37 0 73 -11.5t73.5 -25.5t76.5 -25.5t81 -12.5q20 -1 36.5 -1h30.5q40 0 63.5 1.5t36 3.5t18 3.5t8.5 1.5q35 0 50.5 -24.5t15.5 -66.5q0 -27 -6 -58q-1 -6 -16 -18.5t-34.5 -26.5t-39.5 -27.5 t-31 -20.5q-66 -90 -111 -178.5t-79.5 -182.5t-64.5 -196.5t-65 -220.5q-8 -28 -28 -44.5t-44.5 -24.5t-50.5 -10.5t-46 -2.5q-8 0 -28 3.5t-41.5 15t-38 32t-16.5 54.5v7.5t1 8.5q16 92 52.5 185.5t88 188.5t116.5 193t139 200q-48 12 -78 23t-51.5 19t-40 13t-42.5 5 q-32 0 -53 -1t-35.5 -7t-26 -18t-25.5 -34q-31 -48 -52 -70.5t-38 -22.5q-16 0 -22.5 14.5t-6.5 38.5z" />
<glyph unicode="8" horiz-adv-x="801" d="M32 162q0 76 23.5 134.5t61.5 105t87 82.5t100 68q-81 52 -118.5 125.5t-37.5 149.5q0 73 35.5 128t91.5 91.5t126.5 54.5t139.5 18q58 0 111 -12t93 -36t64 -60t24 -84q0 -87 -25 -151t-66 -112t-95.5 -83.5t-112.5 -64.5q44 -33 85 -68.5t73 -75.5t51 -86t19 -100 q0 -70 -28.5 -127.5t-79 -99t-119.5 -64.5t-151 -23q-58 0 -120 12t-113.5 44t-85 88.5t-33.5 145.5zM240 181q0 -32 9.5 -56t24.5 -40.5t33 -25t35 -8.5q30 0 59.5 11.5t53 35t37.5 58t14 81.5q0 51 -24.5 89t-59.5 73q-39 -18 -72.5 -39t-58 -47t-38 -58.5t-13.5 -73.5z M355 858q0 -26 5.5 -55t16.5 -58t26.5 -56.5t36.5 -49.5q34 21 65.5 53.5t56.5 68.5t40 72t15 65q0 25 -10 43.5t-26.5 30.5t-38 18t-43.5 6q-29 0 -55.5 -9.5t-46 -27.5t-31 -43.5t-11.5 -57.5z" />
<glyph unicode="9" horiz-adv-x="927" d="M53 630q0 52 13 106t38 105t62 96t86 78.5t109 53t131 19.5q61 0 127.5 -23t121.5 -72.5t90.5 -126.5t35.5 -186q0 -161 -46.5 -291t-127 -232.5t-188 -179t-229.5 -130.5q-20 -9 -38 -15t-35 -6q-45 0 -70 19.5t-25 47.5q0 23 14 47.5t46 45.5q100 51 182.5 113.5 t141.5 143t91 180.5t32 225q0 49 -6.5 94t-22.5 79.5t-42.5 55t-66.5 20.5q-41 0 -75 -25.5t-58.5 -65t-38 -88.5t-13.5 -96q0 -36 9 -64t24 -47.5t34 -29.5t39 -10q17 0 34.5 10t31.5 30q19 21 27 21t9 -5.5t1 -15.5q0 -32 -14.5 -67.5t-40 -65.5t-61 -49.5t-77.5 -19.5 q-66 0 -114.5 29t-79.5 74.5t-46 103t-15 114.5z" />
<glyph unicode=":" horiz-adv-x="704" d="M320 162q0 36 10.5 70.5t32.5 61.5t57 43t83 16q83 0 126 -42t43 -120q0 -4 -1 -20t-6.5 -37t-17 -44.5t-32.5 -43.5t-53 -33t-78 -13q-37 0 -67 9.5t-51.5 29t-33.5 50t-12 73.5zM380 834q0 36 10.5 70.5t32.5 61.5t57 43t83 16q83 0 126 -42t43 -120q0 -4 -1 -20 t-6.5 -37t-17 -44.5t-32.5 -43.5t-53 -33t-78 -13q-37 0 -67 9.5t-51.5 29t-33.5 50t-12 73.5z" />
<glyph unicode=";" horiz-adv-x="768" d="M287 -109q0 16 6 37q3 13 8 33.5t11.5 44.5t14 50.5t14.5 52.5q17 60 36 128q6 21 19.5 37t32 26.5t40.5 15.5t45 5q28 0 56 -7.5t50.5 -22.5t36.5 -36.5t14 -49.5q0 -20 -7 -39t-19 -41q-19 -30 -41.5 -64.5l-45 -69t-44 -66t-37.5 -54.5q-24 -33 -53 -47.5t-56 -14.5 q-33 0 -57 21.5t-24 60.5zM380 834q0 36 10.5 70.5t32.5 61.5t57 43t83 16q83 0 126 -42t43 -120q0 -4 -1 -20t-6.5 -37t-17 -44.5t-32.5 -43.5t-53 -33t-78 -13q-37 0 -67 9.5t-51.5 29t-33.5 50t-12 73.5z" />
<glyph unicode="&#x3c;" horiz-adv-x="1184" d="M58 626q0 58 25.5 92.5t67.5 58t95.5 42t109.5 44.5q2 1 38.5 17t93.5 40.5t127.5 54t139 57.5t128.5 51t97 35q22 7 44 7q27 0 45.5 -11.5t31 -29.5t19 -38.5t10 -39t4 -31t0.5 -13.5q0 -39 -21 -59t-57 -31l-802 -259l655 -240q16 -6 38.5 -21t42.5 -36.5t34.5 -49.5 t14.5 -61q0 -35 -27.5 -57t-75.5 -22q-43 0 -95.5 16t-110 39t-118 48.5t-119.5 45.5q-130 44 -214.5 82t-133.5 78t-68 85.5t-19 105.5z" />
<glyph unicode="=" horiz-adv-x="1707" d="M349 490q0 38 19.5 61t53 35t77.5 16t92 4h110.5h150t174 0.5t182.5 0.5h176.5h154.5q25 0 41 -5t25 -14t12.5 -20t3.5 -23q0 -35 -11.5 -64.5t-40 -51.5t-76 -34.5t-118.5 -12.5h-892q-24 0 -48 6t-43 19t-31 33.5t-12 49.5z" />
<glyph unicode="&#x3e;" horiz-adv-x="1184" d="M138 922q0 1 0.5 13.5t4 31t10 39t19 38.5t31 29.5t45.5 11.5q22 0 44 -7q33 -10 85.5 -29t112.5 -43t120.5 -49t110 -45.5t81.5 -34t34 -14.5q56 -26 109.5 -44.5t95.5 -42t67.5 -58t25.5 -92.5q0 -63 -18.5 -111.5t-66.5 -90.5t-130.5 -82.5t-209.5 -86.5 q-59 -20 -119.5 -45.5t-118 -48.5t-110 -39t-95.5 -16q-48 0 -75.5 22t-27.5 57q0 33 9.5 61t23.5 49.5t29.5 36.5t27.5 21l685 260l-722 219q-36 11 -57 31t-21 59z" />
<glyph unicode="?" horiz-adv-x="1292" d="M394 162q0 36 10.5 70.5t32.5 61.5t57 43t83 16q83 0 126 -42t43 -120q0 -4 -1 -20t-6.5 -37t-17 -44.5t-32.5 -43.5t-53 -33t-78 -13q-37 0 -67 9.5t-51.5 29t-33.5 50t-12 73.5zM409 1370q0 22 15 46q30 45 71 80t88.5 58.5t98.5 35.5t101 12q61 0 128 -19.5t122.5 -61 t91.5 -105.5t36 -152q0 -106 -25 -181t-65.5 -131t-90.5 -98.5t-100 -83t-95 -84.5t-74 -102q-15 -48 -42.5 -73t-60.5 -25q-35 0 -61.5 15t-26.5 49q0 90 29.5 156.5t73.5 119t95.5 96.5t95.5 91t73.5 102.5t29.5 129.5q0 42 -15.5 71t-40 47.5t-54.5 27t-60 8.5 q-23 0 -48 -14t-47 -33t-38 -39.5t-20 -32.5q-17 -21 -38.5 -30.5t-44.5 -9.5q-19 0 -37.5 10t-32.5 27.5t-23 41t-9 51.5z" />
<glyph unicode="@" horiz-adv-x="2241" d="M112 215q0 114 24 233t69.5 235.5t111 227.5t148 209t181 180.5t210 142t234 92.5t254.5 33q97 0 193.5 -17t185 -52.5t164 -91t131.5 -133t88 -178t32 -226.5q0 -26 -1 -53t-5 -55q-9 -68 -36.5 -147.5t-71 -158t-101.5 -151.5t-128 -128.5t-151 -89t-169 -33.5 q-22 0 -44.5 7.5t-40.5 27.5t-29 55t-11 91q0 24 3.5 51t9.5 59q-38 -77 -85.5 -135t-101.5 -98t-111.5 -60t-114.5 -20q-66 0 -125.5 22t-105 65.5t-72.5 108t-27 150.5q0 87 27.5 185t78 194t122 183.5t160.5 154.5t193.5 106.5t219.5 39.5q23 0 37 -3.5t21 -9t9 -11.5 t2 -10t-0.5 -6.5t-0.5 -4.5v-4q23 -10 48.5 -12t49.5 -4t45.5 -7t38 -21t26 -47t9.5 -83q0 -40 -8.5 -90.5t-22 -105.5t-30.5 -111.5t-33 -110t-29.5 -100.5t-20.5 -83q-14 -45 -14 -77q0 -23 7.5 -37t24.5 -14q37 0 74 22.5t71.5 61.5t64 91.5t51.5 113t34.5 125.5 t12.5 129q0 150 -42.5 254t-116.5 168.5t-173 93t-212 28.5q-141 0 -266 -52t-230 -139.5t-188 -201t-141 -237.5t-88.5 -249.5t-30.5 -235.5q0 -89 31 -160.5t101 -122.5t183 -78.5t277 -27.5q239 0 422.5 36.5t318.5 98.5q23 10 42 10q17 0 29 -8t20 -21t11.5 -29.5 t3.5 -33.5q0 -26 -8 -49.5t-22 -31.5q-96 -57 -211.5 -100t-236.5 -71.5t-241 -42.5t-224 -14q-195 0 -342 45t-245 124.5t-147.5 189.5t-49.5 240zM897 383q0 -75 31.5 -115.5t98.5 -40.5q45 0 85.5 18.5t75 49t63 68.5t50 77t35.5 75.5t19 62.5l131 451q-23 6 -48.5 9.5 t-48.5 3.5q-64 0 -125 -33t-116 -86.5t-101 -123t-79.5 -143t-52 -144.5t-18.5 -129z" />
<glyph unicode="A" horiz-adv-x="1632" d="M128 450q0 97 22.5 203t65.5 214t104 214t139 201.5t170.5 177t197.5 141t221 93.5t241 34q34 0 54.5 -5.5t31 -14t13.5 -17.5t3 -16q0 -5 -0.5 -9t-0.5 -6v-5q27 -16 55 -19.5t55 -6t51 -10.5t42 -31.5t28.5 -68.5t10.5 -122q0 -60 -11.5 -135t-30.5 -157t-42.5 -166 t-47 -163t-45.5 -149t-37 -122q-3 -44 -5 -82t-2 -79q0 -32 1.5 -52.5t5.5 -32.5t11 -16.5t18 -4.5q20 0 50.5 10.5t65 27t72 37t72 41t64.5 37.5t50 28l51 -195q-21 -22 -53.5 -50t-73 -56.5t-87.5 -55.5t-96 -48t-98.5 -33.5t-95.5 -12.5q-32 0 -64.5 11t-59 40.5 t-43.5 81.5t-17 135q0 35 5 75.5t13 87.5q-56 -113 -126.5 -199.5t-150 -145t-164.5 -88.5t-170 -30q-93 0 -176.5 32.5t-147.5 97t-101.5 160.5t-37.5 224zM416 456q0 -141 56.5 -218.5t175.5 -77.5q74 0 140.5 31t123.5 81.5t104.5 114t83 128.5t58.5 125.5t33 104.5 l208 772q-35 10 -72.5 14.5t-72.5 4.5q-81 0 -160 -31t-153.5 -84.5t-142 -126t-126 -156t-105.5 -173.5t-81 -179.5t-52 -174t-18 -155.5z" />
<glyph unicode="B" horiz-adv-x="1292" d="M-183 1195q0 98 28 176t78.5 138.5t120 103t152 70t174.5 40.5t189 13q113 0 227 -16.5t219 -46.5t196 -72.5t158.5 -94t106 -111.5t38.5 -125q0 -77 -33.5 -152t-105 -135.5t-183 -99.5t-267.5 -42q99 0 173 -31.5t124 -85t75 -123.5t25 -147q0 -63 -17 -128t-51 -125 t-85 -112.5t-119.5 -91.5t-154.5 -61.5t-189 -22.5q-65 0 -137 8.5t-145.5 23t-144.5 34.5t-134 43q-28 7 -49.5 21t-21.5 50q0 166 8.5 340t34.5 340t75 316.5t130 269.5q71 49 129 49q73 0 122 -82q-46 -62 -78.5 -138t-54.5 -159.5t-35.5 -170.5t-21.5 -170 q-5 -47 -8.5 -100t-6.5 -108t-4.5 -109.5t-1.5 -104.5v-22t2.5 -29t6.5 -27.5t12 -18.5q61 -20 131 -34t140 -14q85 0 165 20.5t142 65t99.5 114t37.5 168.5q0 58 -22 96.5t-57.5 64.5t-81 41.5t-93 28t-93 24.5t-81 30.5t-57.5 46t-22 71.5q0 21 2.5 36.5t12 25.5t28 15 t50.5 5q43 0 78.5 -3.5t76.5 -3.5q96 0 173.5 23.5t132 63.5t84 93.5t29.5 114.5q0 40 -23 73.5t-64.5 60t-97.5 46.5t-122 33.5t-139 20t-148 6.5q-95 0 -187.5 -10.5t-172 -32t-141 -54t-93.5 -75.5q-65 -118 -116 -177t-83 -59q-44 0 -44 101z" />
<glyph unicode="C" horiz-adv-x="1440" d="M96 482q0 92 20 197.5t57.5 215t91.5 218.5t122.5 209t150.5 185.5t175 149t196 99.5t214 36q72 0 146 -25.5t133 -78.5t96.5 -134t37.5 -191q0 -74 -23.5 -149.5t-64.5 -145t-96.5 -130.5t-119.5 -105.5t-133 -70.5t-138 -26q-91 0 -136 24.5t-45 70.5q0 8 -0.5 19 t-0.5 23q0 18 2 37.5t8 35.5t17.5 26t31.5 10q12 0 21 -3.5t20 -7.5t26.5 -7.5t39.5 -3.5q64 0 129.5 28t118 79t86 121.5t33.5 155.5q0 45 -12 85.5t-39 71t-69.5 49t-103.5 18.5q-72 0 -140.5 -31.5t-131.5 -85.5t-119.5 -128t-104.5 -158.5t-86.5 -176t-65.5 -182.5 t-41.5 -176.5t-14.5 -157.5q0 -103 25.5 -179.5t72.5 -127.5t115 -76t153 -25q106 0 197.5 26.5t174.5 69.5t160.5 97t155 108.5t158 104t170.5 83.5v-215q-49 -21 -95 -55.5t-93 -75.5t-97.5 -86.5t-109 -90t-127.5 -85t-152.5 -71t-184 -48.5t-222.5 -18 q-135 0 -243.5 54.5t-185.5 147t-118.5 215t-41.5 257.5z" />
<glyph unicode="D" horiz-adv-x="1272" d="M-123 1195q0 98 25.5 176t71 138.5t108 103t137 70t158.5 40.5t172 13q163 0 290 -27t222.5 -75t161.5 -114.5t107 -145t59.5 -166.5t18.5 -180q0 -126 -28 -255.5t-81 -250.5t-130.5 -227t-177.5 -185t-220 -124.5t-259 -45.5q-47 0 -96 7t-95 19t-87 27t-72 31 q-13 4 -20.5 9.5t-11.5 13t-5 18.5t-1 28q0 166 8.5 340t34.5 340t75 316.5t130 269.5q71 49 129 49q73 0 122 -82q-46 -62 -77 -138t-52 -159.5t-35 -170.5t-26 -170q-14 -92 -23.5 -157.5t-15 -114.5t-8 -86t-2.5 -72q0 -37 2.5 -62t12 -40t29 -21.5t52.5 -6.5 q100 0 190 39.5t166 106t136.5 154.5t103 186t65.5 199.5t23 195.5q0 116 -38 207.5t-106.5 155t-164.5 97t-211 33.5q-84 0 -166.5 -10t-153 -31t-124 -53.5t-80.5 -77.5q-73 -113 -120 -174.5t-79 -61.5q-44 0 -44 101z" />
<glyph unicode="E" d="M64 364q0 101 36.5 194t113 165t196 116t286.5 48q-110 0 -192 31.5t-136 85t-81 125t-27 151.5q0 75 26 137t71.5 111.5t107.5 86.5t134.5 61.5t152 37t160.5 12.5q117 0 229 -25.5t199 -76.5t140 -127.5t53 -178.5q0 -36 -24.5 -71t-58.5 -62.5t-71.5 -44t-62.5 -16.5 q-21 0 -21 37q0 33 10.5 85t35.5 130q-27 22 -79 44t-117.5 40t-139.5 29.5t-146 11.5q-67 0 -128 -12t-107.5 -39.5t-74 -72.5t-27.5 -111q0 -54 19.5 -91t52 -63t74.5 -42.5t87 -29.5t88.5 -25t80 -27.5t61.5 -37.5t33 -55q2 -21 4 -42.5t2 -41.5q0 -56 -21 -81.5 t-82 -25.5q-26 0 -64.5 3t-73.5 3q-80 0 -157 -20.5t-138 -61t-98.5 -100t-37.5 -138.5q0 -75 21.5 -125t59 -80.5t88.5 -43.5t110 -13q71 0 149 14t155.5 38.5t151 58t136.5 72t111 81t74 85.5l69 -227q-81 -86 -182.5 -150.5t-212 -108t-224.5 -65.5t-221 -22 q-118 0 -222 27.5t-182 84t-123.5 143t-45.5 205.5z" />
<glyph unicode="F" horiz-adv-x="1376" d="M128 23q0 15 6.5 39.5t20 47.5t34 40t49.5 17q33 0 69.5 -11t75.5 -24.5t80 -24.5t83 -11q33 0 64 26.5t58.5 73t52.5 109t47 135t41 151.5t35 158h-123q-17 0 -42 4t-48 13.5t-39 25.5t-16 40q0 17 9 32t30 22l98 21t74.5 15.5l57.5 11.5t46 8q24 107 38 186t24 143.5 t19 121.5t21 121q-87 -25 -151 -60t-106 -75t-62 -83t-20 -84q0 -2 -1 -14t-11 -26t-32.5 -25t-65.5 -11q-58 0 -90.5 6.5t-48 18t-19 26t-3.5 29.5q0 149 75 255.5t210.5 174.5t325 100t418.5 32q152 0 318.5 -10t343.5 -35q51 -14 70.5 -40t19.5 -55q0 -19 -5.5 -40 t-16.5 -39t-29.5 -29.5t-43.5 -11.5q-4 0 -8.5 0.5t-9.5 1.5q-65 11 -141 19.5t-159 14t-171.5 8t-179.5 2.5q-27 0 -64.5 -3t-72.5 -7q-40 -4 -83 -10q0 -11 -2 -25t-6 -39t-9.5 -64t-13.5 -100.5t-18 -148.5t-22 -207h555q24 0 37 -9.5t19 -24t7 -31t1 -31.5 q0 -48 -21 -72t-43 -24q-7 0 -46 -1.5t-95 -3.5t-123 -4.5t-129.5 -4.5t-114 -3.5t-77.5 -1.5q-18 -121 -41 -233t-57.5 -209.5t-81.5 -177.5t-112 -137t-150 -88.5t-195 -31.5q-23 0 -55 3t-67 10t-69.5 18.5t-61.5 28.5t-44 39.5t-17 51.5z" />
<glyph unicode="G" horiz-adv-x="1536" d="M96 482q0 177 42.5 338.5t117.5 300t177 251t220 192t247.5 123t259.5 43.5q80 0 148.5 -24t119 -75t79 -129t28.5 -186q0 -42 -10 -83.5t-33 -83.5q-32 -47 -62 -66.5t-57 -19.5q-21 0 -39 11t-31 29t-20.5 40.5t-7.5 46.5q0 19 6 37t12.5 36t12.5 37.5t6 40.5 q0 100 -44 150t-110 50q-81 0 -170.5 -33.5t-175.5 -97t-163.5 -156t-136.5 -211.5t-93.5 -262.5t-34.5 -308.5q0 -103 25.5 -179.5t72.5 -127.5t115 -76t153 -25q158 0 291 42.5t250 119.5q8 30 14 57.5t6 50.5q0 30 -8 47.5t-21.5 26t-32 10.5t-39.5 2q-38 0 -66.5 10 t-48.5 26t-30 37t-10 42t9.5 40.5t29.5 34.5t50.5 24.5t71.5 9.5q97 0 159.5 -20t98 -59t49 -95.5t13.5 -128.5q0 -116 -13.5 -241t-43.5 -245t-79.5 -227t-121.5 -188t-168.5 -128.5t-220.5 -47.5q-23 0 -55 3t-67 10t-69.5 18.5t-61.5 28.5t-44 39.5t-17 51.5 q0 15 6.5 39.5t20 47.5t34 40t49.5 17q33 0 64 -11t64 -24.5t69 -24.5t78 -11q47 0 92.5 48t86 125t74 172.5t56.5 191.5q-48 -44 -101.5 -83.5t-122 -69t-156.5 -47t-204 -17.5q-135 0 -243.5 54.5t-185.5 147t-118.5 215t-41.5 257.5z" />
<glyph unicode="H" horiz-adv-x="2111" d="M354 1465q0 52 24.5 99t65.5 86.5t94.5 72t110 55t112.5 34.5t103 12q70 0 134 -19t112.5 -61t77 -109t28.5 -163q0 -45 -10.5 -110t-28.5 -142.5t-42.5 -165t-52.5 -178.5q103 7 232 14t259 14q51 167 112.5 345.5t130.5 350.5q23 57 60.5 91t88.5 34q21 0 40.5 -6 t34.5 -18.5t23.5 -32t8.5 -45.5q0 -23 -3 -53.5t-16 -65.5q-23 -62 -49 -132.5t-52.5 -145t-53 -152.5t-50.5 -155q63 4 110 7.5t71 5.5q11 1 20.5 1.5t17.5 0.5q30 0 48.5 -6t29 -17t14.5 -26t4 -34q0 -21 -9 -35t-22.5 -22.5t-28.5 -12t-28 -4.5q-28 -3 -40 -4.5t-17 -2 t-6.5 -1t-7.5 -1t-21 -1.5t-46 -4q-36 -4 -70.5 -7t-68.5 -6q-35 -123 -56 -229.5t-21 -184.5q0 -68 28.5 -106.5t94.5 -38.5q25 0 60 14.5t80 45.5t100.5 80t123.5 117q3 -6 12 -28q8 -19 22.5 -57.5t40.5 -105.5q-75 -79 -150.5 -139t-147 -100.5t-137 -61t-120.5 -20.5 q-63 0 -117 23.5t-93.5 68.5t-62.5 110.5t-23 149.5q0 29 6 73t17.5 100t28 122.5t36.5 140.5q-134 -14 -257 -26t-245 -23q-28 -84 -55.5 -164.5t-53 -151t-47 -129t-36.5 -99.5q-49 -106 -95.5 -150t-83.5 -44q-24 0 -47 8t-41 23t-28.5 36t-10.5 47q0 16 4 31 q42 153 91.5 295.5t100.5 277.5q-55 0 -105.5 8.5t-93.5 29.5t-76.5 58t-55.5 94q-4 18 -6.5 32t-2.5 28q0 44 31 44q19 0 42 -20.5t59 -65.5q47 2 94 3t101 1h96q36 93 68.5 179.5t60.5 169.5q17 53 27 106t10 101q0 39 -7 72t-23 56t-41 36t-62 13q-30 0 -69.5 -10 t-87.5 -32.5t-104.5 -59t-122.5 -90.5q-23 -19 -42.5 -27t-35.5 -8q-8 0 -12 26.5t-4 65.5z" />
<glyph unicode="I" horiz-adv-x="863" d="M-100 -27q0 3 9.5 9.5t21.5 18t23 28.5t14 42q2 17 34 32.5t77 28t95.5 20.5t89.5 11q31 131 62.5 262t62 256.5t60 243t57.5 220.5t54 189t49 150q-37 -4 -65 -8t-50 -9t-41.5 -11t-40.5 -13.5t-45.5 -17t-57.5 -21.5l-4 -2q-3 0 -5.5 35.5t-2.5 95.5q0 12 11 31.5 t37 41.5t68.5 44t107 40t152 29t202.5 11q99 0 154.5 -9.5t83.5 -25t34.5 -36t6.5 -41.5q0 -22 -5 -43t-26 -37.5t-63 -26.5t-115 -10q-33 0 -66 3q-28 -109 -49 -195t-38 -158.5t-31 -136.5t-28.5 -129t-30.5 -136t-36.5 -157t-48 -192.5t-63.5 -242.5q6 0 27.5 -2t49.5 -7 t59.5 -13t57.5 -20t43 -28t17 -37q0 -42 -72 -82h-67.5h-109.5h-136h-146h-71h-70q-68 0 -120.5 0.5t-84 1.5t-31.5 3z" />
<glyph unicode="J" horiz-adv-x="1952" d="M576 -256q0 135 51.5 275.5t146.5 266t229 224t299 149.5q-85 69 -159 145t-129 155.5t-86.5 160t-31.5 160.5q0 102 22.5 194t62 170.5t93.5 142t116 108t129.5 68.5t135.5 24q90 0 173.5 -46t148.5 -146t104 -259t39 -384q0 -163 -11.5 -309.5t-33.5 -280.5 q61 -38 123.5 -74t126.5 -72q13 -8 32.5 -19t38 -23.5t31.5 -25t13 -22.5t-8.5 -19.5t-20 -18t-23 -14.5t-17.5 -9q-17 -9 -44 -9q-56 1 -131.5 22t-164.5 59q-44 -185 -105.5 -338.5t-134.5 -275.5t-154.5 -212.5t-165 -150.5t-166 -90t-158.5 -30q-79 0 -146.5 32 t-117.5 95.5t-78.5 157.5t-28.5 219zM832 -320q0 -102 39.5 -154.5t104.5 -52.5q66 0 149.5 58t167.5 179.5t160.5 308.5t129.5 445l-37 23q-102 -20 -194.5 -69.5t-172 -117.5t-143.5 -149.5t-109.5 -164.5t-70 -162.5t-24.5 -143.5zM1152 1344q0 -80 35 -159t98 -156.5 t150 -153.5t192 -150q17 139 27 292.5t10 326.5q0 118 -15 199.5t-40.5 132.5t-60 73.5t-72.5 22.5q-37 0 -75 -18t-74 -49.5t-68 -73.5t-55.5 -89.5t-37.5 -98t-14 -99.5z" />
<glyph unicode="K" horiz-adv-x="1920" d="M124 36q0 27 13 49.5t26 45.5q4 7 13 18t21 21.5t26 18t28 7.5q6 0 9 -1q35 -16 70.5 -25.5t68.5 -9.5q90 0 163 55t131 150t102.5 223.5t77.5 276t56.5 306t39.5 314.5l12 83q-88 0 -159 -21t-127 -57t-96.5 -83.5t-67 -99.5t-39 -106.5t-12.5 -103.5q0 -5 -3.5 -17 t-16 -24.5t-37 -22t-67.5 -9.5q-56 0 -88.5 10t-49 23.5t-21.5 28.5t-5 25v9q0 2 1 3q16 135 70.5 232.5t133.5 164.5t174.5 108t191.5 63t185.5 29.5t156.5 7.5q39 0 63.5 -9t38.5 -23t19 -31t5 -33q0 -41 -0.5 -73.5t-3.5 -61.5q-10 -87 -17.5 -176.5t-13.5 -162.5 q-7 -86 -12 -166q104 0 191.5 6t158.5 25.5t125.5 56t91 97t55 148.5t18.5 211q0 50 0.5 79.5t11 45.5t37 23t79.5 12q39 0 63.5 -10.5t38 -25.5t18 -30.5t5.5 -25.5q1 -22 1 -60v-15q0 -29 2 -55q0 -113 -14.5 -206.5t-48 -168.5t-89 -131t-137.5 -93.5t-192.5 -56 t-254.5 -18.5q60 -156 109.5 -275.5t97 -200.5t97.5 -122.5t112 -41.5q38 0 84 10.5t93.5 30t94.5 46.5t87 59l116 -196q0 1 -19 -11.5t-53 -32t-80.5 -42t-102.5 -42.5t-118.5 -33t-127.5 -13q-72 0 -127.5 22.5t-99 61.5t-77.5 91.5t-63 112.5t-55.5 124.5t-55 127.5 t-61.5 121.5t-75 106.5q-53 -204 -124 -349.5t-158.5 -238.5t-189 -136.5t-214.5 -43.5q-39 0 -92 5t-101.5 17t-82.5 31t-34 47z" />
<glyph unicode="L" horiz-adv-x="992" d="M-181 260q0 19 4.5 37.5t20.5 29.5q13 9 44 29.5t73 48.5t90.5 61.5t95.5 67.5l8 68q22 210 71 385.5t115.5 317t145 247.5t160 177.5t161 107t148.5 35.5q50 0 92 -19t72 -57t47 -95t17 -133q0 -93 -28 -195t-79.5 -206t-123.5 -207.5t-159.5 -199.5t-189 -181.5 t-210.5 -152.5q-2 -61 -3.5 -96.5t-2 -54t-0.5 -25.5v-11q0 -9 3.5 -16.5t14 -12t28.5 -7t48 -2.5q45 0 121 22l335 96q8 2 16 3t15 1q25 0 43 -9.5t30 -25.5t18 -37t6 -43q0 -20 -6 -39t-18 -35.5t-30 -28.5t-42 -16q-98 -39 -200 -70q-44 -13 -92.5 -25.5t-99 -22 t-102 -15.5t-99.5 -6q-74 0 -121.5 25.5t-75 69t-38.5 100.5t-11 121q-86 -63 -146 -100t-77 -37t-32.5 11.5t-28.5 30.5t-20.5 42.5t-7.5 46.5zM412 678q51 53 106.5 115.5t110 131t105 140t91 142.5t68 138t35.5 127q3 20 4 38.5t1 34.5q0 57 -15.5 83t-42.5 26 q-32 0 -75 -33.5t-90 -95.5t-95 -150t-89 -196t-71.5 -235t-42.5 -266z" />
<glyph unicode="M" horiz-adv-x="2175" d="M-56 1280q0 6 4 10q36 118 81.5 197.5t96 127t103 67.5t100.5 20q62 0 103 -23.5t65 -66t33.5 -102.5t9.5 -133q0 -56 -9 -131t-22.5 -157.5t-29.5 -165.5t-31 -155q32 133 75.5 255.5t95 229t109.5 193t119.5 148.5t124.5 96t125 34q46 0 85 -20t67 -62t43.5 -106 t15.5 -152q0 -8 -1.5 -25t-4 -39t-6 -47.5t-6.5 -50.5q-8 -60 -17 -130l21 1q39 148 96 266t128 200.5t153 126.5t170 44q61 0 108.5 -36t79.5 -97.5t49 -144t17 -174.5q0 -86 -11.5 -176.5t-28.5 -179t-36.5 -173.5t-36.5 -161t-28.5 -140.5t-11.5 -111.5q0 -59 21.5 -85.5 t62.5 -26.5q23 0 48.5 12.5t51 33t50.5 47t48 54.5q53 64 105 147q0 -1 9 -21q7 -17 23 -58t45 -118q-50 -88 -103 -149t-108 -99.5t-111.5 -55.5t-112.5 -17q-54 0 -105.5 19t-91.5 56.5t-64 93t-24 127.5q0 8 0.5 17t1.5 18q4 67 17 142.5t29.5 155.5t34.5 163t33 165.5 t25 163t10 154.5q0 45 -3 81.5t-12 62t-26 39.5t-45 14q-53 0 -100 -37t-89 -102t-78.5 -154t-69 -192.5t-60.5 -217t-52 -228.5t-45 -227t-39 -212q-8 -28 -24.5 -47.5t-38 -31.5t-45.5 -17.5t-48 -5.5q-21 0 -41.5 8t-36 25.5t-25 44.5t-9.5 66q0 26 12 89.5t30.5 152 t40 194t40 215t30.5 216.5t12 197q0 62 -3 111t-14 83t-31.5 52t-54.5 18q-28 0 -64 -38t-77.5 -105t-85.5 -157.5t-87.5 -195.5t-84 -219.5t-74.5 -229t-60 -224t-39 -205.5q-4 -30 -19 -49t-36 -30t-45 -15.5t-46 -4.5q-26 0 -50.5 5.5t-43.5 17t-30 28t-11 37.5 q0 41 4 75.5t12 69.5q28 117 49 217.5t36 190.5t26 174.5t19.5 170t15.5 176.5l15 195v23t-3 26.5t-10.5 21.5t-22.5 9q-24 0 -58.5 -16.5t-72.5 -44.5t-76 -65.5t-70 -80.5q-6 -15 -19 -21.5t-29 -6.5q-5 0 -10.5 8.5t-10 20.5t-7.5 25.5t-3 24.5z" />
<glyph unicode="N" horiz-adv-x="1623" d="M-42 1275q0 6 4 10q33 113 75.5 191.5t90 127t96.5 70.5t96 22q71 0 119.5 -21.5t78.5 -60t43 -92.5t13 -120t-11 -142t-30 -157.5t-43 -166.5t-49 -169l17 -6q69 204 136 355.5t131.5 259t125 176t118 107.5t111 54t103.5 15q58 0 99 -28t67.5 -72t38.5 -97t12 -104 q0 -60 -9.5 -133.5t-23.5 -155.5t-31 -169.5t-31 -174t-23.5 -170t-9.5 -157.5q0 -24 1.5 -53.5t6.5 -60t14.5 -59.5t26 -52t41 -37t58.5 -14q48 0 101.5 24t105 60.5t98 79t82 79t56 61t20.5 25.5l60 -217q-32 -43 -73 -85.5t-88 -80.5t-99.5 -70.5t-107.5 -56.5 t-110.5 -37.5t-109.5 -13.5q-70 0 -123 24t-91.5 65t-64.5 95.5t-41.5 115.5t-22 124t-6.5 122q0 78 12.5 153t30.5 147.5t40 141.5t40 134.5t30.5 127t12.5 118.5q0 15 -2 40t-8.5 48t-20.5 40t-38 17q-40 0 -82.5 -37.5t-87 -103.5t-89.5 -156.5t-89.5 -195t-88 -220 t-84 -232t-78.5 -229.5t-71 -213q-28 -54 -64.5 -76.5t-81.5 -22.5q-26 0 -50.5 11t-43.5 32.5t-30 53t-11 71.5q0 42 4 76t12 69q25 114 46.5 211t39.5 185t32.5 170.5t26.5 166t21 171.5t16 188v23t-3 26.5t-10.5 21.5t-22.5 9q-20 0 -48.5 -19t-59 -52.5t-62 -78.5 t-57.5 -97q-6 -15 -19 -21.5t-29 -6.5q-13 0 -27 8.5t-26 20.5t-20 25.5t-8 24.5z" />
<glyph unicode="O" horiz-adv-x="1632" d="M96 633q0 96 14 197t42.5 201.5t71 197t99 182.5t126.5 158.5t154.5 125t182 82t209.5 29.5q150 0 268.5 -54t200 -151t125 -231.5t43.5 -296.5q0 -134 -26.5 -279.5t-77.5 -286t-127 -267.5t-175 -223t-220.5 -152.5t-263.5 -56.5q-149 0 -268.5 61t-203.5 170.5 t-129 261t-45 332.5zM352 583q0 -113 28.5 -210.5t82 -168.5t130 -111.5t173.5 -40.5q80 0 149 31t126.5 85t105 126.5t84.5 155.5t64.5 172t45.5 176t26.5 167.5t8.5 146.5q0 96 -21 180.5t-63.5 147t-107 98.5t-150.5 36q-92 0 -178 -44.5t-162 -120t-139 -175 t-108 -209.5t-70 -224t-25 -218z" />
<glyph unicode="P" horiz-adv-x="1441" d="M90 667q0 158 29 305t83 275.5t131 234.5t173.5 182t210 117.5t241.5 41.5q168 0 294.5 -45.5t210.5 -121t126.5 -173.5t42.5 -203q0 -98 -38 -194t-114.5 -177t-193 -140t-273.5 -83q-3 -73 -5 -134l-2 -52t-1.5 -47.5t-1 -37.5t-0.5 -22q-2 -70 -16.5 -145.5 t-42 -147.5t-67 -136.5t-92 -113t-117.5 -77t-142 -28.5q-82 0 -146.5 42.5t-113 114.5t-82 166t-54.5 196.5t-30.5 206.5t-9.5 196zM358 693q0 -41 0.5 -110.5t5.5 -148.5t16 -160t32.5 -146.5t54 -107t81.5 -41.5q51 0 87 35.5t60 92t38 128t21 143.5t9 137.5t2 111.5v47 q-83 33 -130.5 58t-71.5 48t-30.5 48.5t-6.5 59.5q0 18 1 35.5t5.5 31t13 22t23.5 8.5q10 0 18.5 -4t21.5 -11q33 -18 60 -29.5t46 -18.5q22 -8 40 -12q0 13 0.5 51.5t6 88t18.5 103.5t38 99t65 74.5t99 29.5q18 0 37 -3.5t34.5 -13t26 -25.5t10.5 -41q0 -7 -0.5 -9.5 t-0.5 -6.5l-61 -257l-9 -79q98 15 169 48t117.5 78t69 99t22.5 111q0 56 -21.5 114.5t-74.5 106.5t-142 79t-224 31q-101 0 -183 -38.5t-146 -104.5t-111 -154t-77.5 -187.5t-45 -205t-14.5 -205.5z" />
<glyph unicode="Q" horiz-adv-x="1512" d="M96 628q0 136 25.5 280t76 280.5t126 257.5t175.5 212.5t224.5 144.5t272.5 53q149 0 267 -57t200 -160.5t125.5 -250t43.5 -324.5q0 -117 -20.5 -247.5t-62 -259.5t-105.5 -249t-151 -215.5t-197.5 -159.5t-245.5 -81q47 -47 83.5 -91t71.5 -78.5t73 -55.5t87 -21 q48 0 93.5 25t82.5 55q43 35 82 81q11 8 21 9t16 1q26 -5 44 -20t28.5 -36t15 -44.5t4.5 -43.5q0 -26 -5.5 -36.5t-10.5 -15.5q-1 -1 -18 -18.5t-47.5 -43.5t-73 -56.5t-94 -56t-110 -42.5t-121.5 -17q-76 0 -129 29t-90.5 74.5t-62 101t-44.5 108.5t-38 97.5t-42 67.5 q-152 27 -260 101t-177 181t-101 241t-32 280zM384 613q0 -118 26 -218.5t75 -174t120 -115t161 -41.5q76 0 141.5 31.5t120.5 85.5t99.5 127.5t79.5 157t61 173t43 177t25 169t8 147.5q0 114 -20 211.5t-61 169t-103 111.5t-146 40q-85 0 -165 -47t-150 -127t-128 -185 t-99.5 -222t-64.5 -238t-23 -232z" />
<glyph unicode="R" horiz-adv-x="1700" d="M64 540q0 155 38.5 303.5t111 280.5t175.5 242.5t231.5 191t280 125.5t320.5 45q75 0 149 -14t141 -41t124.5 -67t99 -91.5t65.5 -114.5t24 -137q0 -48 -16 -101t-49 -104.5t-84.5 -99.5t-123.5 -86t-164 -63.5t-207 -32.5q70 -26 117 -67t78.5 -91.5t50 -106.5 t31.5 -110t23.5 -103.5t25 -87t36.5 -60t59 -22.5q34 0 74.5 11.5t83 32.5t84 50t77.5 64l116 -196q0 1 -19 -12.5t-53 -34t-80.5 -45t-102.5 -45.5t-118.5 -35t-127.5 -14q-73 0 -124.5 36t-87.5 95t-60 134.5t-42 154.5t-33.5 154.5t-34.5 134.5t-45 95t-65 36h-63 q-20 -219 -50 -392.5t-79.5 -294.5t-124 -185t-182.5 -64q-80 0 -146.5 30.5t-120 83.5t-93.5 124t-66.5 152.5t-40 168.5t-13.5 173zM320 487q0 -81 14 -162.5t44 -146.5t77.5 -105.5t114.5 -40.5q34 0 60 26.5t46 71t35 103t25 121.5t16 127t9.5 120t4.5 99.5t1 66.5 q-78 37 -118.5 69t-40.5 74q0 10 1.5 24t6.5 26t14.5 20.5t25.5 8.5q7 0 28 -2.5t44 -6t42.5 -6t25.5 -2.5l1 21q1 16 3.5 44t8.5 60t17.5 64.5t30.5 59t45.5 43t64.5 16.5q50 0 66.5 -22.5t16.5 -57.5v-9q-1 -38 -11.5 -100.5t-19.5 -144.5q163 3 269 32.5t168 74.5 t87 98.5t25 103.5q0 49 -23.5 94t-69.5 79.5t-114 55t-158 20.5q-165 0 -294.5 -46t-227.5 -124t-167 -181t-112 -216t-62.5 -229t-19.5 -221z" />
<glyph unicode="S" horiz-adv-x="1695" d="M254 365q0 64 20.5 112.5t51 81t66.5 49t67 16.5q32 0 53.5 -17.5t21.5 -54.5q0 -17 -4 -36t-8.5 -41.5t-8.5 -49.5t-4 -59q0 -70 32 -121t85 -84t122 -49t143 -16q87 0 174 21t156 62t112 100.5t43 136.5q0 71 -38.5 127t-102 103.5t-144.5 89.5t-165 85t-165 90.5 t-144.5 104.5t-102 127.5t-38.5 160.5q0 84 40.5 165.5t122 146t203.5 104.5t286 40q104 0 203.5 -31t177.5 -88t125.5 -136t47.5 -175q0 -57 -19.5 -117t-62.5 -125q-42 -63 -91.5 -93.5t-89.5 -30.5q-30 0 -49 17.5t-19 52.5q0 26 12 61.5t41 81.5q27 44 40 82.5t13 71.5 q0 51 -27.5 89.5t-76 64.5t-116.5 39t-149 13q-90 0 -156.5 -20.5t-111 -53t-66 -72.5t-21.5 -79q0 -66 38.5 -118t102 -96.5t144 -84.5t165 -82.5t165 -91t144 -109.5t102 -138t38.5 -176q0 -90 -29 -165.5t-79.5 -135.5t-119.5 -106t-149 -76t-168 -45.5t-177 -15.5 q-125 0 -243 30.5t-210 92t-147.5 154t-55.5 216.5z" />
<glyph unicode="T" horiz-adv-x="1536" d="M199 1330q0 84 34.5 146.5t97 106.5t150 72.5t192.5 44.5t225 22t248 6q174 0 364.5 -14t397.5 -51q48 -10 67.5 -36t19.5 -58q0 -20 -9 -39t-24 -35t-35 -25.5t-42 -9.5q-77 0 -160.5 8t-174 18t-186.5 20t-198 15q-18 -112 -46 -241t-61.5 -263.5t-70 -268t-70.5 -255 t-63.5 -224.5t-48.5 -177q-8 -34 -24.5 -62.5t-37 -49.5t-42.5 -32.5t-41 -11.5q-57 0 -94 27t-37 87q0 19 6 42q13 91 34.5 179t50.5 183.5t66 202.5t82 235.5t97.5 283.5t113.5 345q-53 -4 -107.5 -9t-106 -13.5t-96 -21.5t-78 -33t-53 -48t-19.5 -66q0 -2 -2.5 -22 t-17.5 -43.5t-47.5 -43t-92.5 -19.5t-93 20t-48 44q-18 28 -20 64z" />
<glyph unicode="U" horiz-adv-x="1382" d="M96 588q0 119 15.5 241t39.5 237.5t54.5 219t60.5 186.5q19 58 38.5 90t38.5 47.5t38 19t39 3.5q38 0 67.5 -3.5t49.5 -13.5t30 -28.5t10 -49.5v-8q-2 -12 -3 -26t-6 -31q-12 -37 -32.5 -99.5t-44.5 -143t-49 -173.5t-45 -190.5t-32.5 -194t-12.5 -183.5q0 -90 15 -167.5 t50.5 -134.5t92.5 -89.5t141 -32.5q65 0 123.5 35.5t110 100t97 154.5t83.5 198t68.5 230.5t53.5 253t38.5 265.5t22.5 267q3 51 19 82t40.5 48.5t55 23.5t60.5 6q27 0 48 -6t35.5 -21.5t22 -41.5t7.5 -66q0 -277 -33 -515t-93 -432.5t-144 -345t-185.5 -252.5t-218.5 -155 t-242 -53q-150 0 -251 60.5t-161.5 163.5t-86 238.5t-25.5 285.5z" />
<glyph unicode="V" horiz-adv-x="1056" d="M31 1436q0 61 15.5 94t37.5 48.5t46 18t42 2.5q37 0 60.5 -10t37 -29.5t18.5 -47.5t5 -63l44 -1189l651 1250q7 24 24 46t41 38.5t53 26t60 9.5q36 0 56.5 -31.5t20.5 -82.5q0 -36 -19 -96t-50.5 -135t-73.5 -161t-87.5 -175t-92 -176.5t-88.5 -164.5q-12 -23 -18 -48 t-6 -50q0 -38 15 -74t46.5 -64t80 -44.5t115.5 -16.5q16 0 35.5 7t40.5 18.5t43 26.5t43 30q48 36 99 82l-23 -207q-83 -66 -165.5 -105.5t-154.5 -39.5q-68 0 -120.5 18.5t-89.5 52.5t-56 82t-19 107q0 30 6 65q-59 -138 -110.5 -230.5t-99.5 -148t-93 -79t-89 -23.5 q-60 0 -98 20t-60.5 55.5t-33 84.5t-15 106t-6.5 120t-8 127q0 2 -3 35t-7 88t-9.5 126.5t-11 150t-11 160t-9.5 156t-6.5 137t-2.5 103.5z" />
<glyph unicode="W" horiz-adv-x="2399" d="M384 595q0 106 12 217.5t34.5 223.5t55.5 222t75 214q25 58 50 90.5t51 48t52.5 18.5t53.5 3q22 0 40 -3t30.5 -12.5t19 -27t6.5 -47.5q0 -34 -16.5 -100.5t-41.5 -153.5t-54 -189t-54 -207t-41.5 -206.5t-16.5 -188.5q0 -71 9.5 -132.5t29.5 -107t50 -71.5t71 -26 t79.5 24t74.5 66t69 100t63.5 125.5t57.5 142t51 150.5q84 268 149 609q12 55 28.5 92t39.5 59t53.5 31t70.5 9q38 0 62.5 -7t39 -19t20.5 -29t6 -38q0 -7 -8 -58.5t-20.5 -132t-27 -182.5t-27 -209.5t-20.5 -212.5t-8 -193q0 -90 6.5 -162.5t22 -123.5t40.5 -78t62 -27 q64 0 116.5 50t96 133.5t78 193.5t61 230t46 242t32.5 230.5t20.5 195t10.5 135.5q3 51 18.5 82t39.5 48t54.5 22.5t62.5 5.5q25 0 45.5 -5.5t35.5 -19t23 -36t8 -57.5q0 -97 -12.5 -209.5t-31 -225.5t-40 -220t-40 -193t-31 -145t-12.5 -75q0 -39 11 -66.5t29.5 -45.5 t44 -26t54.5 -8t59.5 13.5t58.5 37.5t51.5 57.5t39.5 74.5l17 -207q-74 -85 -152.5 -134t-147.5 -49q-33 0 -62 10.5t-51.5 32.5t-37.5 57t-21 83q-50 -93 -107.5 -167.5t-122 -127t-135 -81t-145.5 -28.5q-95 0 -161.5 50t-108 136t-60.5 202t-19 247q0 48 5 90t8 75 q-36 -228 -90.5 -381.5t-128 -246.5t-168 -132.5t-209.5 -39.5q-66 0 -126 43.5t-105.5 129.5t-73 215.5t-27.5 302.5z" />
<glyph unicode="X" horiz-adv-x="1696" d="M263 -5q0 53 47 114q21 27 60 75.5t88.5 109.5t106 130.5t112.5 137.5t106.5 130t89.5 109.5t61.5 75t21.5 26.5l-9 31q-8 55 -19 116t-27 121t-38.5 114.5t-53 96t-70 66t-89.5 24.5q-6 0 -26.5 -18t-47 -49.5t-55.5 -73t-53 -87.5q-16 -30 -30 -30q-10 0 -19 13.5 t-16 34.5t-12.5 47t-9 50.5t-5.5 45t-2 31.5q0 74 20 129t56 91t84.5 54t105.5 18q50 0 101.5 -8t103 -30.5t100.5 -64.5t93 -110t81.5 -166t65.5 -233q49 74 104 146.5t111.5 138.5t112.5 122.5t106.5 98t94.5 65t77 23.5q31 0 57 -22.5t44.5 -59t28.5 -83.5t11 -95 q0 -96 -53.5 -144.5t-137.5 -48.5q-10 0 -14 11.5t-5 28.5t-0.5 37.5t-0.5 37.5t-5 28.5t-13 11.5q-20 0 -48.5 -20.5t-63.5 -56.5t-75.5 -85t-83.5 -106t-86.5 -119t-85.5 -124q32 -120 53 -222t38 -184.5t33 -145t38 -105t53.5 -64t79.5 -21.5q61 0 136 60t164 197 q15 15 34 15q17 0 34 -11t30.5 -28.5t22 -39t8.5 -42.5q0 -31 -22 -53q-66 -79 -133.5 -139t-131.5 -100.5t-123 -61t-107 -20.5q-56 0 -101 11.5t-82 41t-68.5 82t-61 134t-58.5 196.5t-62 270l-202 -303q-40 -60 -81 -121t-77.5 -115t-65.5 -96.5t-46 -66.5 q-24 -33 -68.5 -53.5t-93.5 -20.5q-69 0 -103 28t-34 72z" />
<glyph unicode="Y" horiz-adv-x="1472" d="M225 1494q0 17 9 35t28.5 33t49 24.5t71.5 9.5q114 0 208.5 -57.5t175.5 -157t151 -233t136 -284.5q59 107 113.5 210.5t100.5 193.5t82.5 162.5t60.5 117.5q13 24 47.5 39t74.5 15q21 0 41 -6t35.5 -19t25.5 -34.5t10 -51.5q0 -42 -26 -103q-23 -53 -64.5 -137t-98 -188 t-125.5 -221.5t-145 -236.5l-60 -99q-82 -112 -148 -195.5t-120.5 -143.5t-100 -99.5t-87.5 -62t-82 -31.5t-84 -9q-40 0 -81 18t-75 42t-57.5 47.5t-27.5 35.5q-6 8 -11 23t-5 31q0 15 7 26.5t24 11.5q6 0 15 -3q31 -20 61 -29t56 -9q75 0 135 26.5t108 68.5t86 95.5 t68 107.5t53.5 103.5t43.5 84.5q-35 88 -72 175t-77 166.5t-81.5 147.5t-85 118.5t-88.5 79t-90 28.5q-24 0 -38.5 -6t-22.5 -16t-11 -23t-3 -26q0 -15 2 -30t2 -26q0 -17 -8.5 -21t-19.5 -4q-20 0 -36 24t-27 64t-17 91.5t-6 106.5z" />
<glyph unicode="Z" horiz-adv-x="1025" d="M-47 156q0 38 25.5 88t85.5 108l734 960q-23 0 -47.5 -1t-50.5 -1q-32 0 -65 3q-53 6 -94 17.5t-73 23t-57.5 20t-47.5 8.5q-18 0 -35 -8t-34.5 -27.5t-36.5 -52t-41 -81.5q-28 -61 -57 -83.5t-50 -22.5q-19 0 -27 16.5t-8 44.5q0 11 1.5 24t3.5 27q17 129 50.5 210 t75 126.5t85.5 61.5t83 16q44 0 87 -13t87.5 -29t91 -29.5t96.5 -14.5q37 -1 69.5 -1h61.5q91 0 144.5 2t82 4t38.5 4t14 2q42 0 60.5 -28t18.5 -76q0 -15 -2 -31.5t-5 -34.5q-2 -5 -14.5 -18.5t-41.5 -29.5q-116 -113 -213.5 -226.5t-177 -219.5t-141.5 -200t-107 -167.5 t-73.5 -121.5t-40.5 -63l-5 -23q1 0 16.5 -8t41 -19.5t57 -25.5t64.5 -25.5t64 -19.5t55 -8q81 0 145 17t116.5 41.5t95 52t79.5 48.5q22 16 44 16t42.5 -12t36.5 -31t25.5 -42.5t9.5 -45.5q0 -34 -18 -55q-36 -30 -96.5 -70t-135.5 -76t-160 -61t-172 -25q-14 0 -47 8 t-88 27.5t-132 51t-178 78.5q-51 -45 -101.5 -64.5t-92.5 -19.5q-54 0 -87.5 28t-33.5 77z" />
<glyph unicode="[" horiz-adv-x="927" d="M176 -53q0 29 5.5 58.5t10.5 54.5q18 91 36 197.5t35.5 218.5t34 225.5t30.5 217.5q33 245 64 496q6 23 13.5 50.5t20 55.5t31.5 54.5t48 46.5t70 32.5t97 12.5h318q25 0 43.5 -10.5t30.5 -26.5t18 -34.5t6 -34.5q0 -22 -12.5 -43.5t-32 -38t-42 -26.5t-43.5 -10h-286 q0 -2 -6 -43t-16 -109.5t-23.5 -159.5t-29 -192.5t-31.5 -208.5t-31.5 -208t-29 -190.5t-24 -156.5t-16.5 -105.5t-6 -37.5h286q16 0 31.5 -6.5t26.5 -18t18 -26.5t7 -32q0 -15 -11.5 -39t-32.5 -46.5t-50 -39t-63 -16.5h-318q-54 0 -88.5 11.5t-54 31t-27 44.5t-7.5 52z " />
<glyph unicode="\" d="M155 1743q0 30 9 52.5t24.5 38t36 23t42.5 7.5q42 0 83.5 -26t65.5 -78q30 -66 73 -161.5t94 -208t106.5 -236t110.5 -245.5t106.5 -237t94.5 -210t74 -164.5t45 -100.5q20 -46 29.5 -81t9.5 -61q0 -49 -31 -71.5t-75 -22.5q-25 0 -51.5 7t-51.5 20t-46.5 32.5 t-36.5 43.5q-123 249 -225 480t-186 432t-151.5 365.5t-119.5 280.5q-16 35 -23 65.5t-7 55.5z" />
<glyph unicode="]" horiz-adv-x="927" d="M0 -80q0 21 11 41t28.5 36t38.5 25.5t41 9.5h297q0 2 6 43t16 109.5t23.5 159.5t29 192.5t31.5 208.5t31.5 208t29 190.5t24 156.5t16.5 105.5t6 37.5h-260q-19 0 -37.5 8.5t-33.5 22.5t-24.5 32t-9.5 38q0 15 8.5 36.5t24.5 40.5t39.5 32.5t52.5 13.5h346 q54 0 88.5 -11.5t54 -31t27 -44.5t7.5 -52q0 -29 -5.5 -59t-10.5 -54q-18 -91 -36.5 -197.5t-35.5 -219t-33.5 -225.5t-30.5 -217q-33 -245 -64 -496q-6 -23 -13.5 -50.5t-20 -55.5t-31.5 -54.5t-48 -46.5t-70 -32.5t-97 -12.5h-308q-27 0 -47 11.5t-33.5 28.5t-20.5 36.5 t-7 35.5z" />
<glyph unicode="^" horiz-adv-x="1089" d="M93 621q0 13 3 29t11 31q1 2 12 23t28.5 54t39 74.5t44.5 84.5t45 85t39 75t28.5 54.5t12.5 24.5q45 99 101.5 143.5t109.5 44.5q28 0 56.5 -5.5t56 -22.5t54.5 -47.5t51 -79.5q57 -110 115 -238t113 -271q10 -31 10 -58t-9 -48t-22.5 -36t-29.5 -22.5t-29 -7.5 q-30 0 -55 15.5t-44.5 36.5t-32.5 44t-17 38l-206 482l-260 -521q-28 -51 -61 -71.5t-63 -20.5q-21 0 -39.5 8.5t-32 23.5t-21.5 35t-8 43z" />
<glyph unicode="_" d="M-6 108q0 38 19.5 61t53 35t77.5 16t92 4h110.5h150t174 0.5t182.5 0.5h176.5h154.5q25 0 41 -5t25 -14t12.5 -20t3.5 -23q0 -35 -11.5 -64.5t-40 -51.5t-76 -34.5t-118.5 -12.5h-892q-24 0 -48 6t-43 19t-31 33.5t-12 49.5z" />
<glyph unicode="`" horiz-adv-x="609" d="M64 1574q0 30 13 55t33.5 43t46.5 28t52 10q29 0 55.5 -15t39.5 -49q46 -104 85 -194q16 -38 33 -77t31.5 -72.5t25.5 -60t17 -39.5q5 -13 7.5 -25t2.5 -23q0 -30 -17 -48.5t-41 -18.5q-17 0 -34.5 8.5t-33.5 28.5q-13 15 -33 40t-45 55.5t-52.5 64.5t-54 68.5t-51 66 t-43.5 57.5q-37 52 -37 97z" />
<glyph unicode="a" horiz-adv-x="928" d="M64 281q0 75 21 154t58 154.5t87.5 142.5t110.5 117t126.5 79.5t135.5 29.5q23 0 36 -9t21.5 -20.5t16.5 -22.5t20 -16t24.5 -6.5t25.5 -1.5q11 0 22.5 0.5t22.5 0.5q15 0 28 -3t23 -13t15.5 -28t5.5 -49q0 -48 -10 -106.5t-22 -120t-22 -123t-10 -116.5q0 -47 8.5 -73.5 t36.5 -26.5q21 0 44 10.5t46.5 27.5t47 38.5t44.5 44.5q49 54 99 122l48 -222q-23 -32 -61.5 -75t-86.5 -82t-103 -66t-110 -27q-66 0 -110 42.5t-76 123.5q-24 -28 -59 -57t-76.5 -52.5t-86.5 -38.5t-90 -15q-48 0 -93.5 19.5t-80.5 56t-56 89t-21 118.5zM320 324 q0 -25 3.5 -48.5t12.5 -42t24 -30t38 -11.5q37 0 67 32t52 77t35.5 93t17.5 80l61 294q-41 0 -80 -20.5t-73.5 -55.5t-63.5 -80t-50 -94.5t-32.5 -99.5t-11.5 -94z" />
<glyph unicode="b" horiz-adv-x="950" d="M32 152q3 81 12 183q8 88 22 207.5t38 266.5q16 98 40 218.5t56.5 244t73 240t90 207.5t108 146t126.5 55q76 0 122 -26t71 -70.5t33 -104.5t8 -128q0 -95 -35.5 -196t-92.5 -201.5t-127.5 -196.5t-140.5 -181l16 -11q56 70 102.5 112.5t92.5 42.5q59 0 105 -26t78 -69 t49 -99t17 -117q0 -51 -4 -96.5t-14.5 -89t-29 -86.5t-48.5 -89q36 21 73 41t74.5 44t75.5 53.5t78 69.5l77 -165q-55 -50 -109.5 -87t-112 -64.5t-120 -47.5t-132.5 -36q-17 -17 -46.5 -34t-58.5 -31q-33 -16 -71 -31h-25q-85 0 -168.5 23.5t-151.5 52.5q-79 33 -151 76z M288 225q33 -10 66 -17q29 -6 61 -11t61 -5q34 0 62 20t50 53.5t38 76.5t26 89.5t15 92t5 83.5q0 25 -5.5 47.5t-20 39.5t-40 27.5t-64.5 10.5q-35 0 -70 -14.5t-65 -45t-53 -78t-34 -114.5q-9 -54 -15 -99.5t-10 -80.5q-4 -40 -7 -75zM320 895q27 52 60.5 108t67.5 116.5 t66.5 124t59 130t44 135t22.5 139.5q0 4 -1.5 17t-7 27t-15.5 25t-27 11q-20 0 -41.5 -28.5t-42.5 -77t-41 -112t-39 -133t-35.5 -141.5t-30 -136.5t-23.5 -118t-16 -86.5z" />
<glyph unicode="c" horiz-adv-x="736" d="M64 413q0 58 12 121t35.5 123.5t58 115.5t80 96.5t101.5 66t123 24.5q57 0 105.5 -17.5t83 -48.5t54 -73.5t19.5 -91.5q0 -34 -9 -67t-26.5 -59.5t-42.5 -42.5t-56 -16q-47 0 -61.5 25t-14.5 69q0 18 1.5 38t1.5 36q0 24 -5 40t-22 16q-41 0 -70 -19.5t-49.5 -51 t-32.5 -71t-19 -78.5t-9 -74.5t-2 -59.5q0 -36 6.5 -75t24.5 -71.5t49 -54t80 -21.5q48 0 106 29.5t116.5 74.5t111.5 99t91 102l69 -116q-75 -107 -162 -191q-37 -36 -80.5 -70t-91 -60.5t-99 -43t-104.5 -16.5q-92 0 -161.5 34t-116.5 91t-71 132t-24 156z" />
<glyph unicode="d" horiz-adv-x="1072" d="M54 330q0 64 16.5 129.5t48 127t76.5 116t102 97t124 70.5t143 35q3 128 23 253t53 238t77.5 209t97.5 166t113 109.5t124 39.5q47 0 80 -24.5t53.5 -65t29.5 -94t9 -110.5q0 -35 -3 -72q-13 -141 -48 -266.5t-82 -244.5t-102 -236t-107 -243q-5 -14 -10 -34t-9.5 -43.5 t-7.5 -48t-3 -47.5q0 -29 3.5 -55t11.5 -46.5t21.5 -32.5t33.5 -12q19 0 41.5 7.5t47.5 20.5t50.5 29.5t49.5 33.5q55 40 115 91l30 -231q-71 -55 -140 -98q-29 -18 -61 -35.5t-63 -31t-60.5 -22t-54.5 -8.5q-14 0 -41.5 6t-60 24.5t-65 53.5t-56.5 93q-37 -36 -78.5 -68.5 t-86 -56.5t-90 -38.5t-91.5 -14.5q-65 0 -112.5 28t-79 74.5t-47 105.5t-15.5 122zM294 323q0 -20 4.5 -40t16.5 -36t34 -26t57 -10q18 0 35.5 9t33.5 23.5t30.5 33t26.5 38.5q28 46 51 104q-3 14 -5 44.5t-3 68t-2 77.5t-1.5 73t-1.5 54t-2 20q-66 -32 -117.5 -84.5 t-86 -113.5t-52.5 -123t-18 -112zM808 753q57 130 105 259q20 55 40.5 115.5t37.5 121.5t29.5 120t17.5 112q6 70 6 111q0 54 -9.5 75t-27.5 21q-32 0 -58 -40.5t-46 -103.5t-35 -139t-25 -147t-16 -128t-8 -81q-4 -49 -6.5 -94.5t-3.5 -83t-1 -65.5v-43v-10z" />
<glyph unicode="e" horiz-adv-x="787" d="M90 417q0 56 11 118.5t33.5 122.5t56.5 114.5t79.5 96t102 66t125.5 24.5q56 0 104 -18t83.5 -50.5t55.5 -78.5t20 -103q0 -62 -30.5 -124t-84.5 -117t-128.5 -98t-161.5 -67q15 -27 29.5 -45t29.5 -28t31.5 -14t35.5 -4q60 0 126.5 24t129.5 60t119 78.5t95 80.5 l129 -134q-88 -91 -187 -161q-43 -30 -92.5 -59t-104 -51.5t-113 -36t-118.5 -13.5q-94 0 -164.5 34t-117.5 91.5t-70.5 133t-23.5 158.5zM333 470q36 0 78.5 18.5t79 47.5t61.5 63t25 66q0 45 -16.5 74t-40.5 29q-43 0 -73.5 -16t-51 -41.5t-33 -58t-19 -65.5t-8.5 -64 t-2 -53z" />
<glyph unicode="f" horiz-adv-x="723" d="M68 -38q0 5 2.5 61t9.5 149t19 214.5t31.5 257t46 278t63 277.5t83.5 254.5t105.5 209t130.5 141.5t158 52q34 0 71.5 -12t68.5 -39t51.5 -71.5t20.5 -109.5q0 -59 -18.5 -135.5t-52 -163.5t-79 -181t-99.5 -187.5t-113.5 -184t-121.5 -169.5l-2 -16q20 10 30 13t21 3 q13 0 21 -2.5t14.5 -5.5t13.5 -5.5t17 -2.5q99 0 175 23.5t128 52.5q61 33 106 77l-22 -243q-66 -36 -138 -56t-133 -30q-71 -11 -141 -14q36 -66 65 -137q25 -61 45.5 -136.5t20.5 -152.5q0 -9 -2.5 -38t-8.5 -71t-17 -93t-28.5 -103t-42.5 -100.5t-58.5 -86t-77 -60.5 t-98.5 -23t-96 25t-70 67.5t-48.5 99t-30.5 119.5t-15.5 128.5t-4.5 126.5zM294 59q0 -147 5.5 -234t14 -132t19 -58.5t21.5 -13.5q34 0 54.5 31t31 78.5t14 104t3.5 108.5q0 35 -5.5 86t-15 106.5t-22 110.5t-26 98.5t-27.5 70.5t-26 27q-4 0 -9 -22.5t-9.5 -58t-8.5 -79.5 t-7 -86.5t-5 -79t-2 -57.5zM399 816q61 115 123 226.5t112 207t81.5 168.5t31.5 111q0 53 -15 77.5t-41 24.5q-46 0 -70 -24.5t-43 -73.5q-58 -144 -91 -253.5t-50 -194.5t-24 -149.5t-14 -119.5z" />
<glyph unicode="g" horiz-adv-x="928" d="M-64 -729q0 45 23 101.5t63 119t95 130t119.5 134.5t135 132t142.5 124l27 93q-54 -48 -112.5 -77.5t-113.5 -29.5q-48 0 -93.5 19.5t-80.5 56t-56 89t-21 118.5q0 75 21 154t58 154.5t87.5 142.5t110.5 117t126.5 79.5t135.5 29.5q23 0 36 -9t21.5 -20.5t16.5 -22.5 t20 -16t24.5 -6.5t25.5 -1.5q11 0 22.5 0.5t22.5 0.5q15 0 28 -3t23 -13t15.5 -28t5.5 -49q0 -26 -4 -70t-11 -98t-15.5 -114.5t-17.5 -118.5q-21 -138 -48 -295q30 17 65 42t78 67t96 105.5t119 158.5l48 -222q-18 -31 -46.5 -63.5t-63 -65t-72 -63t-73.5 -57.5 q-85 -64 -183 -124q-19 -107 -45 -208.5t-61.5 -190t-81 -162.5t-103 -127t-128.5 -82.5t-157 -29.5q-34 0 -73.5 7t-73 28t-55.5 60t-22 104zM132 -699q0 -37 40 -37q42 0 79.5 24.5t69 64.5t57.5 91t46 104.5t34 104.5t22 91q-39 -26 -79.5 -62t-79 -77.5t-73 -85.5 t-60.5 -84.5t-41 -75.5t-15 -58zM320 324q0 -25 3.5 -48.5t12.5 -42t24 -30t38 -11.5q37 0 67 32t52 77t35.5 93t17.5 80l61 294q-41 0 -80 -20.5t-73.5 -55.5t-63.5 -80t-50 -94.5t-32.5 -99.5t-11.5 -94z" />
<glyph unicode="h" horiz-adv-x="1025" d="M117 223q0 67 1.5 175.5t9.5 240.5t23 278t42.5 288.5t69 272t101 228t139.5 156.5t184 58q54 0 88.5 -16t55 -45t28.5 -69.5t8 -90.5q0 -74 -21 -164t-55.5 -187t-78.5 -196.5t-90 -193t-90.5 -176.5t-78.5 -146l20 -14q41 54 92 116t106 115.5t109.5 89t102.5 35.5 q12 0 27 -4.5t28.5 -16.5t22.5 -33.5t9 -55.5q0 -68 -19 -132.5t-41.5 -129t-41 -131.5t-18.5 -140q0 -40 12 -64t31 -24q24 0 51 10t54 26t53 36.5t49 42.5q55 51 108 116l17 -266q-18 -14 -45.5 -35t-61 -44.5t-72.5 -47.5t-78.5 -42.5t-79 -30.5t-75.5 -12 q-55 0 -95.5 29.5t-66.5 75t-39 99.5t-13 102q0 32 8.5 71.5t21 79.5t28 78t29 68t23.5 49t13 22l-21 3q-17 -11 -57.5 -56t-91.5 -113.5t-105.5 -154t-98.5 -176.5q-22 -45 -36 -78.5t-27.5 -55t-29.5 -32.5t-41 -11q-33 0 -52 19t-29 50.5t-13 71.5t-3 82zM336 710 q27 63 59 137t63 146.5t58.5 137t45.5 109.5q59 153 85.5 258t26.5 155q0 76 -20 76q-26 0 -77 -85t-120 -247q-17 -55 -31.5 -114t-26 -117.5t-21 -115t-16.5 -107.5q-17 -119 -26 -233z" />
<glyph unicode="i" horiz-adv-x="537" d="M96 201q0 63 14.5 146.5t35.5 173t44.5 178.5t41.5 164q7 26 28 44.5t47.5 30t55 17t51.5 5.5q42 0 57 -15.5t15 -41.5q0 -22 -10 -63.5t-25 -94t-32 -113t-32 -121t-25 -118t-10 -103.5q0 -45 10 -71.5t41 -26.5q36 0 80 25t89 60.5t88 73.5t76 65v-203 q-36 -33 -89.5 -70.5t-115.5 -69t-126.5 -52.5t-122.5 -21q-52 0 -87.5 14.5t-57.5 40.5t-31.5 63.5t-9.5 82.5zM289 1241q0 23 10 52t32.5 54.5t60 43t93.5 17.5q35 0 66 -8t54 -24.5t36.5 -43.5t13.5 -64q0 -34 -11 -66t-35 -57t-60.5 -40.5t-87.5 -15.5q-88 0 -130 41.5 t-42 110.5z" />
<glyph unicode="j" horiz-adv-x="672" d="M0 0q0 16 4.5 56.5t12 98t18.5 127.5t24 143.5t28 146t31 136t32.5 112.5t32.5 76q14 23 33 36t41.5 19t47 7.5t48.5 1.5q35 0 50.5 -21t15.5 -44q0 -12 -5.5 -38t-13.5 -56t-16 -57t-12 -40l-56 -160q56 9 108 12.5t114 13t140 32t186 70.5v-192q-66 -36 -132.5 -55.5 t-120.5 -28.5q-63 -11 -123 -12q25 -65 44 -135q17 -60 30.5 -133.5t13.5 -147.5q0 -13 -2.5 -60.5t-12 -111.5t-30 -135.5t-56 -131t-89 -98.5t-130.5 -39q-70 0 -119 41t-79.5 119t-44 191t-13.5 257zM222 1241q0 23 10 52t32.5 54.5t60 43t93.5 17.5q35 0 66 -8t54 -24.5 t36.5 -43.5t13.5 -64q0 -34 -11 -66t-35 -57t-60.5 -40.5t-87.5 -15.5q-88 0 -130 41.5t-42 110.5zM224 -192q0 -55 7 -91.5t17.5 -59t21 -32t18.5 -9.5q33 0 52.5 36t29 89t12 114.5t2.5 112.5q0 29 -4.5 65.5t-11 75.5t-15.5 79t-18 78q-22 88 -49 181q-26 -155 -44 -313 t-18 -326z" />
<glyph unicode="k" horiz-adv-x="991" d="M118 230q0 57 4 151t12 206.5t21.5 235.5t32.5 239q7 41 18 99.5t27.5 125.5t39 139.5t52 141t66.5 130.5t83 108.5t101 73.5t120 27q51 0 84 -16.5t52.5 -46t27.5 -70.5t8 -89q0 -85 -21.5 -183t-54.5 -196.5t-72 -191.5t-75 -168t-63.5 -126.5t-36.5 -67.5l-119 -178 l24 -15q36 46 79 101t84.5 105t76 89t54.5 53q31 22 76 37.5t100 15.5q28 0 53.5 -13t44.5 -37t30 -58t11 -76q0 -41 -20 -82.5t-50 -83.5t-65 -84t-65 -84.5t-50 -84.5t-20 -84q0 -36 17.5 -51.5t54.5 -15.5q20 0 43.5 13.5t48.5 35.5t50.5 49t49 55t44.5 53.5t38 43.5 l60 -245q-31 -45 -78.5 -83.5t-103 -67t-115 -44.5t-114.5 -16q-72 0 -117.5 17.5t-71.5 46.5t-35.5 65.5t-9.5 75.5q0 23 5.5 56.5t21 75.5t43.5 92.5t73 108.5q18 18 33 32.5t26 26t17 21.5t6 21q0 21 -7.5 34t-21.5 13q-17 0 -44 -22t-59 -77l-294 -516 q-23 -40 -47.5 -55.5t-56.5 -15.5q-43 0 -68 18.5t-38 50t-16.5 73t-3.5 88.5zM347 685q22 66 48 143.5t51.5 153t48 143t37.5 114.5q7 22 20 55t28 71t30 79t27.5 79t20.5 71t8 56q0 32 -21 32q-32 0 -55 -20t-43.5 -57t-41 -90t-46.5 -118q-16 -57 -29.5 -118 t-24.5 -121.5t-19.5 -119.5t-14.5 -111q-15 -123 -24 -242z" />
<glyph unicode="l" horiz-adv-x="575" d="M96 582q0 89 13 193.5t38 215.5t59.5 223t78 215t94.5 192.5t107 156t117 104.5t124 38q43 0 71 -19.5t44 -51.5t22.5 -72.5t6.5 -82.5q0 -94 -21.5 -191.5t-58 -196t-84.5 -197.5t-100 -196.5t-104.5 -192t-98.5 -184.5q-5 -10 -10.5 -26t-10.5 -34.5t-10 -39.5t-8 -41 v-14q0 -26 5.5 -50.5t13.5 -44t17 -31t17 -11.5q19 0 43.5 8t52 21.5t56.5 31t56 35.5q63 42 132 97l82 -210q-89 -64 -176 -114q-38 -21 -78.5 -41.5t-81.5 -36.5t-80 -25.5t-73 -9.5q-54 0 -100.5 47.5t-81 127.5t-54 185.5t-19.5 221.5zM352 800q45 80 95.5 180t95.5 206 t78 211.5t42 196.5q0 29 -1.5 49.5t-9.5 20.5q-29 0 -62.5 -37.5t-67 -101.5t-64 -149t-54.5 -181t-38 -197.5t-14 -197.5z" />
<glyph unicode="m" horiz-adv-x="1312" d="M96 209q0 41 5 97t13 118t18.5 126.5t22 123.5t23.5 108t22 80q10 32 19 51t20.5 29.5t27.5 14t41 3.5q38 0 59.5 -2.5t32 -12t12.5 -27.5t2 -49q0 -17 -1.5 -39t-4.5 -47t-6.5 -51.5t-7.5 -51.5q-9 -59 -19 -122l11 -12q2 3 21.5 38t48 84t61.5 102.5t63 94.5 q29 41 61.5 68t77.5 27q42 0 72 -24.5t30 -69.5q0 -39 -5 -74t-12.5 -68t-15.5 -64.5t-15 -64.5q-5 -23 -6 -29t-1 -8l11 -12q2 3 23 37.5t51.5 83.5t65 103t64.5 95q29 40 58 67.5t71 27.5q47 0 79.5 -24.5t32.5 -69.5q0 -69 -7 -131t-16 -122t-16 -121.5t-7 -130.5 q0 -54 14 -88t34 -34q21 0 44 9t47 23t47 32.5t44 38.5q49 46 97 104l17 -236q-44 -35 -87.5 -72.5t-92 -68t-106.5 -50t-131 -19.5q-36 0 -60.5 23.5t-39.5 65.5t-21.5 99t-6.5 124q0 63 4.5 133.5t12.5 142.5h-15l-203 -517q-26 -42 -58 -56.5t-74 -14.5q-32 0 -51 17.5 t-29.5 45t-14 60.5t-3.5 64q0 13 2 37t6 55t9 65.5t10 68.5q11 80 27 172h-15q-12 -15 -27.5 -45t-43.5 -88t-71.5 -150.5t-112.5 -231.5q-20 -41 -46.5 -55.5t-58.5 -14.5q-41 0 -66 17.5t-38.5 47t-18 67t-4.5 77.5z" />
<glyph unicode="n" horiz-adv-x="927" d="M128 209q0 66 8 152.5t20 176t27 172.5t29 142q11 46 42.5 77t85.5 31t75 -33t21 -88q0 -15 -3 -40.5t-7.5 -56t-9.5 -63t-9.5 -60t-7.5 -48t-3 -27.5h20q6 11 19 35.5t30 56.5t36.5 67.5t36.5 68t31 57.5t21 37q32 54 73 74t91 20t79.5 -42t29.5 -116q0 -11 -4.5 -37 t-11.5 -62t-15.5 -79t-15.5 -88t-11.5 -89t-4.5 -81q0 -62 15.5 -102t48.5 -40q15 0 34.5 9t42 23.5t46 33.5t46.5 39q53 47 111 106l17 -224l-50 -38q-41 -31 -83.5 -62t-88.5 -55.5t-96 -40t-105 -15.5t-92.5 79.5t-37.5 232.5q0 60 8 129.5t20 149.5h-16l-262 -520 q-20 -41 -45 -56t-58 -15q-41 0 -66 17.5t-38.5 47t-18 67t-4.5 77.5z" />
<glyph unicode="o" horiz-adv-x="873" d="M64 437q0 110 33 205.5t94.5 166t150.5 111t200 40.5q95 0 178 -29.5t155.5 -79t135 -113.5t116.5 -132l-19 -141q-27 36 -73 78t-97.5 82t-101.5 75.5t-86 59.5l-8 -11q29 -58 43.5 -122.5t14.5 -123.5t-13 -119t-37.5 -116t-60 -105t-81 -85t-99.5 -57t-115 -21 q-88 0 -150.5 38.5t-102.5 100.5t-58.5 140t-18.5 158zM288 396q0 -42 8 -79t25 -64.5t45 -44t67 -16.5q34 0 66 34.5t56 87t38.5 116t14.5 121.5q0 46 -7 85.5t-21 68.5t-36 46t-53 17q-41 0 -78 -35t-65 -89.5t-44 -120.5t-16 -127z" />
<glyph unicode="p" horiz-adv-x="854" d="M-129 -429q0 41 13 92.5t35 108t49.5 115t56.5 113.5q68 128 155 264q11 78 22.5 160t29 159t44 146t68 120t99.5 81t140 30q61 0 114 -16.5t93 -53.5t63 -95.5t23 -143.5q0 -68 -20 -131.5t-62.5 -121.5t-108 -108.5t-155.5 -90.5l6 -21q101 0 184 20t150.5 54t122 79.5 t98.5 97.5l11 -229q-32 -39 -77.5 -75.5t-99.5 -64t-113.5 -44t-117.5 -16.5q-7 0 -17.5 2t-36.5 7t-74.5 13.5t-131.5 20.5v-18q0 -182 -30.5 -330.5t-81.5 -253.5t-117 -162t-137 -57q-57 0 -95 28t-60.5 75.5t-32 111t-9.5 134.5zM62 -441q0 -8 3.5 -26t11.5 -36t21 -32 t32 -14q17 0 28 18.5t18 49.5t10 70t5 80t2.5 80t2.5 70q3 54 4.5 91.5l2.5 62.5q1 28 2 47q-19 -33 -37 -76.5t-34 -90.5t-29 -94t-22.5 -87.5t-15 -70t-5.5 -42.5zM410 279q60 30 103.5 67t75 79t51.5 87t32 92q5 22 6.5 51.5t-6 55.5t-26 44.5t-51.5 18.5 q-37 0 -65 -20.5t-48.5 -55.5t-34 -83t-22 -103t-12 -114.5t-3.5 -118.5z" />
<glyph unicode="q" horiz-adv-x="832" d="M32 512q0 94 38.5 176t101.5 142.5t143.5 95t164.5 34.5q76 0 130.5 -21.5t89 -57.5t50.5 -83.5t16 -99.5q0 -18 -2.5 -37.5t-7.5 -36.5q-8 -24 -19 -60.5t-22.5 -77t-23.5 -81t-21 -73t-15 -53.5t-6 -23q-1 1 3 -14.5t10 -41.5q12 -5 23 -6.5t19 -1.5q36 0 82.5 25 t95.5 60.5t95 73.5t79 65v-224q-30 -29 -66 -58t-79 -54.5t-95 -45t-115 -28.5q14 -78 24.5 -164t10.5 -162q0 -96 -20.5 -173t-61 -131t-100 -83t-138.5 -29q-34 0 -68.5 15t-62 44t-44.5 70.5t-17 94.5q0 60 16 140t40 169t52 182.5t52 180.5q-12 -2 -23.5 -3t-22.5 -1 q-69 0 -125 29.5t-96.5 79t-62.5 114t-22 133.5zM256 512q0 -32 6 -69.5t23.5 -70.5t48.5 -56.5t82 -27.5q2 5 8.5 27.5t16 55t20.5 72t23 80.5q27 95 60 213q-9 9 -20 16q-9 6 -20.5 11t-23.5 5q-55 0 -96.5 -25t-70 -63.5t-43 -83.5t-14.5 -84zM401 -498q0 -20 10 -33 t27 -13q39 0 65 23.5t42.5 63t23.5 92t7 109.5q0 71 -7.5 147.5t-24.5 141.5q-5 -14 -17 -53l-28 -91t-33.5 -111t-31.5 -113t-23.5 -98t-9.5 -65z" />
<glyph unicode="r" horiz-adv-x="864" d="M128 209q0 44 5 102.5t13.5 123.5t20 132.5t24.5 128.5t26 112t26 84q8 22 16 35t18.5 20.5t26 10t38.5 2.5q26 0 40.5 -2.5t21.5 -12t8.5 -27.5t1.5 -49v-89.5t2 -103.5h11q20 40 45 89.5t58 92.5t75 72.5t97 29.5q19 0 37 -6.5t31.5 -18.5t21.5 -29.5t8 -39.5 q0 -17 -5 -47.5t-11 -64t-11 -65t-5 -52.5q0 -36 7 -60t18.5 -38.5t26 -20.5t30.5 -6q45 0 93 20t88 45q47 29 92 66l-15 -234q-26 -17 -59 -38t-70.5 -39.5t-78 -31t-82.5 -12.5q-75 0 -121 30.5t-73 80t-40 111t-21 124.5h-16l-179 -499q-14 -39 -26.5 -64.5t-25.5 -41.5 t-28 -22.5t-33 -6.5q-41 0 -66 17.5t-38.5 47t-18 67t-4.5 77.5z" />
<glyph unicode="s" horiz-adv-x="865" d="M0 256q0 24 12 44.5t28 36.5t32 28t24 19q56 48 91 80t60 58.5t45.5 53.5t48.5 64t68 90.5t104 133.5q13 18 29 35t35.5 30.5t43 22t52.5 8.5q48 0 74 -10.5t38 -25.5t14 -31.5t2 -28.5q0 -24 -19 -53t-42 -56t-43.5 -49.5t-23.5 -33.5q0 -31 4.5 -56.5t12 -50t15.5 -52 t15.5 -63.5t12 -83t4.5 -111q36 24 77.5 43.5t86.5 40.5t92.5 46.5t95.5 61.5l1 -224q-62 -48 -143.5 -90t-171 -74t-181 -50.5t-173.5 -18.5q-59 0 -110 11t-89.5 34.5t-62.5 61.5t-29 92q-14 -3 -27.5 -4t-26.5 -1q-16 0 -30 1t-24 7.5t-16 21t-6 41.5zM224 256 q12 0 26.5 -15t33.5 -33t44 -33t57 -15q39 0 64.5 13t40.5 34.5t21 50t6 59.5q0 27 -3.5 55t-9 53.5t-12 48t-11.5 38.5z" />
<glyph unicode="t" horiz-adv-x="801" d="M-96 1037q0 20 19.5 30.5t50 15.5t66.5 5q12 0 24 1q24 0 46 -1q34 -1 60.5 -1.5t36.5 1.5q27 135 68.5 261.5t93 225t112.5 158t128 59.5q43 0 78.5 -24t60.5 -64t38.5 -93.5t13.5 -111.5q0 -49 -14 -103.5t-38 -111t-56.5 -114.5t-68.5 -115q9 -1 30 -1t48.5 -1.5 t59.5 -3t62 -2.5t56 -2t43 -2q20 -1 29 -20t9 -48q0 -35 -20 -57t-44 -22h-384q-29 -40 -58.5 -78.5t-54.5 -69.5q-4 -62 -7 -122q-1 -26 -2 -53.5t-2 -54.5t-1.5 -52t-0.5 -46q0 -54 10 -91t29 -60.5t46.5 -34t61.5 -10.5q21 0 52.5 10t69 27.5t79 41.5t82 52.5t77.5 60 t67 64.5v-256q-96 -56 -171 -98t-133.5 -70t-104 -42t-82.5 -14q-76 0 -134 46t-97 132.5t-58.5 209.5t-19.5 277q0 60 5 128t14 135q-30 4 -46.5 7.5t-35 7t-47 7.5t-82.5 10q-24 3 -37 11.5t-19 20t-7 24t-1 21.5zM398 1080q15 -2 30 -3.5t31 -3.5q30 51 62.5 110.5 t58.5 117t43 107.5t17 82q0 11 -1.5 24.5t-6.5 25.5t-15.5 20t-29.5 8q-26 0 -52.5 -46t-51 -117.5t-46 -157.5t-39.5 -167z" />
<glyph unicode="u" horiz-adv-x="962" d="M91 220q0 77 18.5 196t45.5 272q2 15 7.5 40.5t15 55.5t23.5 61t33 56t44.5 41t57.5 17q53 -2 76 -13.5t23 -28.5q-9 -53 -19.5 -118t-21.5 -131t-21 -128.5t-18 -111.5t-12.5 -79t-4.5 -31q0 -18 3.5 -34.5t10.5 -29.5t18 -21t26 -8q22 0 45 11.5t43.5 33t36.5 53 t24 71.5l99 508q5 24 40.5 40.5t80.5 16.5q51 0 81 -18t30 -46q0 -27 -6 -73.5t-15.5 -102t-20.5 -114.5t-20.5 -110t-15.5 -89.5t-6 -53.5q0 -28 1 -51.5t6 -41t15.5 -27t30.5 -9.5q22 0 53.5 11t67 29.5t72.5 42t70.5 49.5t61 51.5t44.5 47.5q0 -33 0.5 -60t0.5 -51.5 t0.5 -50.5t0.5 -58q-22 -22 -54.5 -47t-72 -50t-84 -48t-89.5 -40.5t-89 -28t-82 -10.5t-65 15t-46.5 42t-33 64.5t-23.5 83.5q-36 -47 -76 -86.5t-81.5 -68.5t-84 -45.5t-82.5 -16.5q-33 0 -62 11t-51.5 37t-35.5 68.5t-13 105.5z" />
<glyph unicode="v" horiz-adv-x="907" d="M112 716q0 103 9.5 160.5t41.5 62.5l120 19q5 1 9.5 1.5t9.5 0.5q34 0 52.5 -20t19.5 -46l-39 -633l14 1l263 627q3 14 13 27t26 22.5t35.5 15.5t41.5 6q58 0 93 -23.5t35 -60.5q0 -28 -7.5 -53t-21 -54.5t-32 -65.5t-40.5 -85q-7 -18 -12 -37q-5 -17 -8.5 -38.5 t-3.5 -44.5q0 -24 6 -47t21 -41.5t41 -29.5t67 -11q30 0 69.5 15.5t74.5 35.5q41 23 84 52v-235q-66 -42 -136.5 -67t-134.5 -25q-54 0 -96.5 16.5t-72 44.5t-46 63t-17.5 73q-29 -60 -66 -123t-76.5 -114t-79 -83.5t-74.5 -32.5q-58 0 -90 29.5t-47.5 74.5t-20 98t-7.5 101 l-2 32q-3 75 -6 130.5t-5.5 100.5t-3.5 83t-1 78z" />
<glyph unicode="w" horiz-adv-x="1301" d="M72 455v56.5t1 49t3 53t5 68.5q1 10 4.5 34.5t11 55.5t20 64.5t32 61t46 45.5t63.5 18l24 -2q44 0 67.5 -17.5t23.5 -46.5l-70 -541l13 1q44 102 76.5 186.5t60 151.5t53 117t55.5 83t67.5 49.5t89.5 16.5q44 0 67.5 -17.5t23.5 -46.5l-83 -541l15 1l239 534 q12 28 52 49.5t95 21.5q57 0 92 -23.5t35 -60.5q0 -28 -9.5 -60t-20.5 -59.5t-21 -47t-11 -21.5q-22 -40 -40.5 -74t-32.5 -60q-17 -30 -30 -56q14 -39 36 -70q19 -26 47 -48t67 -22q33 0 76 17.5t81 39.5q45 25 92 57v-235q-66 -42 -136.5 -67t-135.5 -25q-51 0 -96.5 12 t-80 38t-55 67.5t-21.5 100.5q-34 -80 -71 -146.5t-76 -114.5t-79 -75t-80 -27q-14 0 -24.5 21.5t-17.5 58t-11.5 85t-7 102.5t-3.5 111t-1 111l-29 5q-29 -109 -68.5 -199.5t-84.5 -156t-93 -102t-94 -36.5q-78 0 -114.5 115t-36.5 340z" />
<glyph unicode="x" horiz-adv-x="1025" d="M52 272l146 194q0 -29 -1 -56.5t-1 -51.5t2 -43.5t8.5 -33.5t18 -22t31.5 -8q11 0 24.5 13t31 37t39.5 57t50 72q-31 72 -61 156.5t-59 184.5q-2 6 -2 10q0 18 15 38t38.5 37t51 28.5t52.5 11.5q20 0 34.5 -7t21.5 -21q11 -26 35 -84t55 -131q51 54 113 107.5t137 103.5 q25 17 47 24t40 7q23 0 40.5 -9.5t29.5 -25.5t18 -37t6 -43q0 -32 -13 -61.5t-40 -46.5q-78 -49 -147.5 -109.5t-132.5 -126.5q22 -44 44.5 -83t43.5 -68t40.5 -45.5t36.5 -16.5q22 0 53.5 11t67 29.5t72.5 42t70.5 49.5t61 51.5t44.5 47.5q0 -33 0.5 -60t0.5 -51.5 t0.5 -50.5t0.5 -58q-33 -33 -85 -73.5t-115.5 -76t-135.5 -60t-144 -24.5q-41 0 -103.5 55.5t-134.5 179.5q-43 -50 -82 -92.5t-73 -74.5t-64 -50t-55 -18q-50 0 -82 26t-51.5 66.5t-28 88t-10.5 91.5z" />
<glyph unicode="y" horiz-adv-x="928" d="M-64 -729q0 45 23 101.5t63 119t95 130t119.5 134.5t135 132t142.5 124l27 93q-54 -48 -112.5 -77.5t-113.5 -29.5q-48 0 -93.5 19.5t-80.5 56t-56 89t-21 118.5q0 87 8.5 160t24.5 139t40 127.5t55 124.5q23 45 66 68.5t84 23.5q35 0 60 -17.5t25 -54.5q0 -11 -2.5 -24 t-8.5 -28q-18 -46 -35.5 -108.5t-31 -128t-21.5 -128.5t-8 -111q0 -25 3.5 -48.5t12.5 -42t24 -30t38 -11.5q37 0 67 32t52 77t35.5 93t17.5 80l70 294q8 34 28.5 60.5t47 44.5t55.5 27t55 9q31 0 52 -13.5t21 -42.5q0 -9 -3 -21q-6 -26 -15 -71t-19.5 -102t-21.5 -120.5 t-21 -126.5q-25 -148 -51 -318q30 17 65 42t78 67t96 105.5t119 158.5l48 -222q-18 -31 -46.5 -63.5t-63 -65t-72 -63t-73.5 -57.5q-85 -64 -183 -124q-19 -107 -45 -208.5t-61.5 -190t-81 -162.5t-103 -127t-128.5 -82.5t-157 -29.5q-34 0 -73.5 7t-73 28t-55.5 60t-22 104 zM132 -699q0 -37 40 -37q42 0 79.5 24.5t69 64.5t57.5 91t46 104.5t34 104.5t22 91q-39 -26 -79.5 -62t-79 -77.5t-73 -85.5t-60.5 -84.5t-41 -75.5t-15 -58z" />
<glyph unicode="z" horiz-adv-x="673" d="M27 187q0 22 8 36.5t21 27.5t30 26.5t35 33.5l311 418q-18 8 -31 15t-23.5 12.5t-21.5 8.5t-24 3q-32 0 -53 -1t-35.5 -7t-26 -18t-25.5 -34q-31 -48 -52 -70.5t-38 -22.5q-16 0 -22.5 14.5t-6.5 38.5q0 10 1 21.5t3 23.5q15 87 43 141t62.5 83.5t72 40t69.5 10.5 q24 0 48 -11.5t47.5 -25.5t48 -25.5t50.5 -12.5q20 -1 36.5 -1h30.5q40 0 64 1.5t36.5 3.5t17.5 3.5t8 1.5q35 0 50.5 -24.5t15.5 -66.5q0 -27 -6 -58q-2 -8 -20 -20.5t-60 -23.5q-12 -22 -40 -62t-64.5 -89t-76 -101t-75 -97.5t-62 -79t-35.5 -45.5l-5 -20q1 0 18 -7 t40 -15.5t48.5 -15.5t44.5 -7q42 0 76.5 12.5t64 31.5t55 40.5t49 40.5t46.5 31.5t48 12.5q19 0 34.5 -9t26 -23t16 -31.5t5.5 -34.5q0 -29 -22 -60.5t-59 -61.5t-86 -57t-102.5 -47.5t-109 -32.5t-104.5 -12q-4 0 -21 4t-45 13.5t-65 24.5t-81 38q-38 -12 -66 -12 q-30 0 -52 10.5t-36.5 28.5t-21.5 41t-7 49z" />
<glyph unicode="{" horiz-adv-x="1153" d="M132 735q0 31 9 63.5t25 59t38.5 44t49.5 18.5q64 1 104.5 17.5t65.5 48.5t39 79.5t24 110.5v208q15 97 51 178t87.5 139.5t115.5 90.5t136 32q36 0 87 -2.5t106 -12.5t109.5 -29t98.5 -52q14 -11 20.5 -26.5t6.5 -32.5q0 -23 -9.5 -46.5t-26 -42.5t-38.5 -31.5 t-48 -12.5q-24 0 -57.5 5t-72 11t-78 11t-75.5 5q-32 0 -58 -12.5t-47 -47t-39 -95t-33 -157.5q-12 -75 -25.5 -149.5t-38 -139t-65 -113.5t-106.5 -73q40 -10 67 -33t43 -55.5t22.5 -73t6.5 -85.5q0 -57 -7.5 -120.5t-16 -124.5t-16 -114.5t-7.5 -88.5q0 -42 6.5 -69 t18.5 -43.5t29.5 -23t40.5 -6.5q36 0 68 11.5t62.5 25.5t60 25.5t60.5 11.5q17 0 34 -6t30 -19t21 -33t8 -47q0 -15 -3 -33q-5 -34 -34.5 -61.5t-72.5 -49t-94 -36.5t-99 -25t-87 -15t-59 -5q-61 0 -109 24t-81 68.5t-50.5 106t-17.5 136.5q0 84 16.5 174.5t31.5 178.5 q2 15 3.5 30.5t1.5 32.5q0 36 -7.5 70.5t-25.5 61.5t-48 44t-75 17q-41 0 -59 30.5t-18 72.5z" />
<glyph unicode="|" d="M472 129q0 15 1 32t4 36q5 31 15 98t24 157.5t31 199.5t35.5 225t37 234t36 226t32.5 200.5t27 158.5q3 28 16 56.5t35 51.5t53.5 37.5t72.5 14.5q27 0 45 -13.5t29 -32t16 -38.5t5 -33q0 -12 -1 -27.5t-3 -31.5t-4 -31.5t-4 -26.5q-9 -58 -22.5 -142.5t-29 -185.5 t-32.5 -213.5t-34 -226t-33.5 -223t-30.5 -205.5t-25 -173t-18 -125q-6 -44 -26.5 -74t-46 -49.5t-52.5 -28t-46 -8.5q-24 0 -43.5 13t-34 35t-22 51t-7.5 62z" />
<glyph unicode="}" d="M64 -163q0 39 14.5 67.5t35.5 47t44 27.5t40 9q31 0 57 -11.5t52.5 -25.5t55 -25.5t64.5 -11.5q32 0 58 13.5t48 49.5t39.5 98t33.5 159q11 67 25 137t39 130t65.5 103t104.5 57q-40 15 -66.5 40t-42.5 58t-22.5 73t-6.5 84q0 53 7 114.5t16 121t16 111.5t7 87 q0 41 -6.5 68t-18.5 42.5t-30 21.5t-41 6q-36 0 -77.5 -5t-81 -11t-75 -11t-59.5 -5q-21 0 -36.5 8t-26.5 21.5t-16.5 30.5t-5.5 36q0 27 13 53t39 43q54 33 114.5 52t119 29t110 12.5t87.5 2.5q61 0 109 -23.5t81.5 -66.5t51 -103.5t17.5 -135.5q0 -53 -9 -111 q-7 -43 -16 -91t-17 -96t-13.5 -93t-5.5 -81q0 -35 8 -61t26.5 -44t50 -27.5t78.5 -10.5q39 -1 57 -34t18 -78q0 -30 -8 -61.5t-23.5 -57t-38 -41.5t-50.5 -16q-47 0 -81 -15.5t-57.5 -40t-37 -54t-17.5 -56.5q-11 -63 -20 -120t-19 -120q-16 -98 -52 -180t-87.5 -141.5 t-115.5 -93t-136 -33.5q-19 0 -55 4.5t-79 13.5t-88 23.5t-81.5 34.5t-59.5 45.5t-23 57.5z" />
<glyph unicode="~" horiz-adv-x="864" d="M146 1451q0 25 14 53q12 23 31 58.5t47.5 69t66.5 57.5t87 24q31 0 54.5 -9t47.5 -27t50.5 -45.5t63.5 -63.5l102 -101q12 13 24 30q11 14 23.5 32t25.5 38q20 32 49.5 47.5t58.5 15.5q34 0 58.5 -19t24.5 -54q0 -25 -14 -53q-12 -23 -31 -58.5t-47.5 -69t-66.5 -57.5 t-87 -24q-31 0 -54.5 9t-47.5 27t-50.5 45.5t-63.5 63.5l-102 101q-12 -15 -24 -31q-11 -14 -24 -31.5t-25 -37.5q-20 -32 -49.5 -47.5t-58.5 -15.5q-34 0 -58.5 19t-24.5 54z" />
<glyph unicode="&#xad;" horiz-adv-x="768" d="M63 621q0 13 3 27.5t13 27t29.5 20.5t51.5 8h448q13 0 30 -3t31 -11.5t24 -23t10 -38.5q0 -20 -4.5 -40.5t-18 -37t-38.5 -27.5t-67 -11h-415q-32 0 -51 11.5t-29.5 28t-13.5 35.5t-3 34z" />
<glyph unicode="&#xc0;" horiz-adv-x="1632" d="M128 450q0 97 22.5 203t65.5 214t104 214t139 201.5t170.5 177t197.5 141t221 93.5t241 34q34 0 54.5 -5.5t31 -14t13.5 -17.5t3 -16q0 -5 -0.5 -9t-0.5 -6v-5q27 -16 55 -19.5t55 -6t51 -10.5t42 -31.5t28.5 -68.5t10.5 -122q0 -60 -11.5 -135t-30.5 -157t-42.5 -166 t-47 -163t-45.5 -149t-37 -122q-3 -44 -5 -82t-2 -79q0 -32 1.5 -52.5t5.5 -32.5t11 -16.5t18 -4.5q20 0 50.5 10.5t65 27t72 37t72 41t64.5 37.5t50 28l51 -195q-21 -22 -53.5 -50t-73 -56.5t-87.5 -55.5t-96 -48t-98.5 -33.5t-95.5 -12.5q-32 0 -64.5 11t-59 40.5 t-43.5 81.5t-17 135q0 35 5 75.5t13 87.5q-56 -113 -126.5 -199.5t-150 -145t-164.5 -88.5t-170 -30q-93 0 -176.5 32.5t-147.5 97t-101.5 160.5t-37.5 224zM416 456q0 -141 56.5 -218.5t175.5 -77.5q74 0 140.5 31t123.5 81.5t104.5 114t83 128.5t58.5 125.5t33 104.5 l208 772q-35 10 -72.5 14.5t-72.5 4.5q-81 0 -160 -31t-153.5 -84.5t-142 -126t-126 -156t-105.5 -173.5t-81 -179.5t-52 -174t-18 -155.5zM855 2436q0 30 13 55t33.5 43t46.5 28t52 10q29 0 55.5 -15t39.5 -49q46 -104 85 -194q16 -38 33 -77t31.5 -72.5t25.5 -60t17 -39.5 q5 -13 7.5 -25t2.5 -23q0 -30 -17 -48.5t-41 -18.5q-17 0 -34.5 8.5t-33.5 28.5q-13 15 -33 40t-45 55.5t-52.5 64.5t-54 68.5t-51 66t-43.5 57.5q-37 52 -37 97z" />
<glyph unicode="&#xc1;" horiz-adv-x="1632" d="M128 450q0 97 22.5 203t65.5 214t104 214t139 201.5t170.5 177t197.5 141t221 93.5t241 34q34 0 54.5 -5.5t31 -14t13.5 -17.5t3 -16q0 -5 -0.5 -9t-0.5 -6v-5q27 -16 55 -19.5t55 -6t51 -10.5t42 -31.5t28.5 -68.5t10.5 -122q0 -60 -11.5 -135t-30.5 -157t-42.5 -166 t-47 -163t-45.5 -149t-37 -122q-3 -44 -5 -82t-2 -79q0 -32 1.5 -52.5t5.5 -32.5t11 -16.5t18 -4.5q20 0 50.5 10.5t65 27t72 37t72 41t64.5 37.5t50 28l51 -195q-21 -22 -53.5 -50t-73 -56.5t-87.5 -55.5t-96 -48t-98.5 -33.5t-95.5 -12.5q-32 0 -64.5 11t-59 40.5 t-43.5 81.5t-17 135q0 35 5 75.5t13 87.5q-56 -113 -126.5 -199.5t-150 -145t-164.5 -88.5t-170 -30q-93 0 -176.5 32.5t-147.5 97t-101.5 160.5t-37.5 224zM416 456q0 -141 56.5 -218.5t175.5 -77.5q74 0 140.5 31t123.5 81.5t104.5 114t83 128.5t58.5 125.5t33 104.5 l208 772q-35 10 -72.5 14.5t-72.5 4.5q-81 0 -160 -31t-153.5 -84.5t-142 -126t-126 -156t-105.5 -173.5t-81 -179.5t-52 -174t-18 -155.5zM1250 2017q0 11 2.5 23t7.5 25q6 13 17 39.5t25.5 60t31 72.5t33.5 77q39 90 85 194q13 34 39.5 49t55.5 15q26 0 52 -10t46.5 -28 t33.5 -43t13 -55q0 -47 -37 -97q-19 -26 -43.5 -57.5t-51 -66t-54 -68.5t-52.5 -64.5t-45.5 -55.5t-32.5 -40q-17 -20 -34 -28.5t-34 -8.5q-24 0 -41 18.5t-17 48.5z" />
<glyph unicode="&#xc2;" horiz-adv-x="1632" d="M128 450q0 97 22.5 203t65.5 214t104 214t139 201.5t170.5 177t197.5 141t221 93.5t241 34q34 0 54.5 -5.5t31 -14t13.5 -17.5t3 -16q0 -5 -0.5 -9t-0.5 -6v-5q27 -16 55 -19.5t55 -6t51 -10.5t42 -31.5t28.5 -68.5t10.5 -122q0 -60 -11.5 -135t-30.5 -157t-42.5 -166 t-47 -163t-45.5 -149t-37 -122q-3 -44 -5 -82t-2 -79q0 -32 1.5 -52.5t5.5 -32.5t11 -16.5t18 -4.5q20 0 50.5 10.5t65 27t72 37t72 41t64.5 37.5t50 28l51 -195q-21 -22 -53.5 -50t-73 -56.5t-87.5 -55.5t-96 -48t-98.5 -33.5t-95.5 -12.5q-32 0 -64.5 11t-59 40.5 t-43.5 81.5t-17 135q0 35 5 75.5t13 87.5q-56 -113 -126.5 -199.5t-150 -145t-164.5 -88.5t-170 -30q-93 0 -176.5 32.5t-147.5 97t-101.5 160.5t-37.5 224zM416 456q0 -141 56.5 -218.5t175.5 -77.5q74 0 140.5 31t123.5 81.5t104.5 114t83 128.5t58.5 125.5t33 104.5 l208 772q-35 10 -72.5 14.5t-72.5 4.5q-81 0 -160 -31t-153.5 -84.5t-142 -126t-126 -156t-105.5 -173.5t-81 -179.5t-52 -174t-18 -155.5zM1005 2002q0 19 8 38l164 329q27 52 48.5 92t44.5 67t53 41t75 14q44 0 74 -16.5t51 -48.5t36.5 -78.5t30.5 -106.5q11 -34 18 -55 t12 -37t9.5 -30t10.5 -34t15 -48.5t23 -73.5q5 -18 5 -35q0 -47 -29 -80t-86 -33q-19 0 -36.5 6t-32.5 21t-26.5 40.5t-17.5 64.5q-17 103 -31 175t-23 118q-11 54 -19 87q-31 -81 -59 -154q-12 -31 -24.5 -63.5t-24 -62.5t-22 -56t-17.5 -44q-18 -47 -37.5 -73t-40 -38 t-41.5 -14.5t-42 -2.5q-11 0 -23 6.5t-22 18.5t-17 28.5t-7 37.5z" />
<glyph unicode="&#xc3;" horiz-adv-x="1632" d="M128 450q0 97 22.5 203t65.5 214t104 214t139 201.5t170.5 177t197.5 141t221 93.5t241 34q34 0 54.5 -5.5t31 -14t13.5 -17.5t3 -16q0 -5 -0.5 -9t-0.5 -6v-5q27 -16 55 -19.5t55 -6t51 -10.5t42 -31.5t28.5 -68.5t10.5 -122q0 -60 -11.5 -135t-30.5 -157t-42.5 -166 t-47 -163t-45.5 -149t-37 -122q-3 -44 -5 -82t-2 -79q0 -32 1.5 -52.5t5.5 -32.5t11 -16.5t18 -4.5q20 0 50.5 10.5t65 27t72 37t72 41t64.5 37.5t50 28l51 -195q-21 -22 -53.5 -50t-73 -56.5t-87.5 -55.5t-96 -48t-98.5 -33.5t-95.5 -12.5q-32 0 -64.5 11t-59 40.5 t-43.5 81.5t-17 135q0 35 5 75.5t13 87.5q-56 -113 -126.5 -199.5t-150 -145t-164.5 -88.5t-170 -30q-93 0 -176.5 32.5t-147.5 97t-101.5 160.5t-37.5 224zM416 456q0 -141 56.5 -218.5t175.5 -77.5q74 0 140.5 31t123.5 81.5t104.5 114t83 128.5t58.5 125.5t33 104.5 l208 772q-35 10 -72.5 14.5t-72.5 4.5q-81 0 -160 -31t-153.5 -84.5t-142 -126t-126 -156t-105.5 -173.5t-81 -179.5t-52 -174t-18 -155.5zM977 2079q0 25 14 53q12 23 31 58.5t47.5 69t66.5 57.5t87 24q31 0 56.5 -8.5t58.5 -30.5t80.5 -60t122.5 -97q12 13 24 30 q11 14 23.5 32t25.5 38q20 32 49.5 47.5t58.5 15.5q34 0 58.5 -19t24.5 -54q0 -25 -14 -53q-12 -23 -31 -58.5t-47.5 -69t-66.5 -57.5t-87 -24q-31 0 -56.5 8.5t-58.5 30.5t-80.5 60t-122.5 97q-12 -15 -24 -31q-11 -14 -24 -31.5t-25 -37.5q-20 -32 -49.5 -47.5 t-58.5 -15.5q-34 0 -58.5 19t-24.5 54z" />
<glyph unicode="&#xc8;" d="M64 364q0 101 36.5 194t113 165t196 116t286.5 48q-110 0 -192 31.5t-136 85t-81 125t-27 151.5q0 75 26 137t71.5 111.5t107.5 86.5t134.5 61.5t152 37t160.5 12.5q117 0 229 -25.5t199 -76.5t140 -127.5t53 -178.5q0 -36 -24.5 -71t-58.5 -62.5t-71.5 -44t-62.5 -16.5 q-21 0 -21 37q0 33 10.5 85t35.5 130q-27 22 -79 44t-117.5 40t-139.5 29.5t-146 11.5q-67 0 -128 -12t-107.5 -39.5t-74 -72.5t-27.5 -111q0 -54 19.5 -91t52 -63t74.5 -42.5t87 -29.5t88.5 -25t80 -27.5t61.5 -37.5t33 -55q2 -21 4 -42.5t2 -41.5q0 -56 -21 -81.5 t-82 -25.5q-26 0 -64.5 3t-73.5 3q-80 0 -157 -20.5t-138 -61t-98.5 -100t-37.5 -138.5q0 -75 21.5 -125t59 -80.5t88.5 -43.5t110 -13q71 0 149 14t155.5 38.5t151 58t136.5 72t111 81t74 85.5l69 -227q-81 -86 -182.5 -150.5t-212 -108t-224.5 -65.5t-221 -22 q-118 0 -222 27.5t-182 84t-123.5 143t-45.5 205.5zM681 2421q0 30 13 55t33.5 43t46.5 28t52 10q29 0 55.5 -15t39.5 -49q46 -104 85 -194q16 -38 33 -77t31.5 -72.5t25.5 -60t17 -39.5q5 -13 7.5 -25t2.5 -23q0 -30 -17 -48.5t-41 -18.5q-17 0 -34.5 8.5t-33.5 28.5 q-13 15 -33 40t-45 55.5t-52.5 64.5t-54 68.5t-51 66t-43.5 57.5q-37 52 -37 97z" />
<glyph unicode="&#xc9;" d="M64 364q0 101 36.5 194t113 165t196 116t286.5 48q-110 0 -192 31.5t-136 85t-81 125t-27 151.5q0 75 26 137t71.5 111.5t107.5 86.5t134.5 61.5t152 37t160.5 12.5q117 0 229 -25.5t199 -76.5t140 -127.5t53 -178.5q0 -36 -24.5 -71t-58.5 -62.5t-71.5 -44t-62.5 -16.5 q-21 0 -21 37q0 33 10.5 85t35.5 130q-27 22 -79 44t-117.5 40t-139.5 29.5t-146 11.5q-67 0 -128 -12t-107.5 -39.5t-74 -72.5t-27.5 -111q0 -54 19.5 -91t52 -63t74.5 -42.5t87 -29.5t88.5 -25t80 -27.5t61.5 -37.5t33 -55q2 -21 4 -42.5t2 -41.5q0 -56 -21 -81.5 t-82 -25.5q-26 0 -64.5 3t-73.5 3q-80 0 -157 -20.5t-138 -61t-98.5 -100t-37.5 -138.5q0 -75 21.5 -125t59 -80.5t88.5 -43.5t110 -13q71 0 149 14t155.5 38.5t151 58t136.5 72t111 81t74 85.5l69 -227q-81 -86 -182.5 -150.5t-212 -108t-224.5 -65.5t-221 -22 q-118 0 -222 27.5t-182 84t-123.5 143t-45.5 205.5zM936 1992q0 11 2.5 23t7.5 25q6 13 17 39.5t25.5 60t31 72.5t33.5 77q39 90 85 194q13 34 39.5 49t55.5 15q26 0 52 -10t46.5 -28t33.5 -43t13 -55q0 -47 -37 -97q-19 -26 -43.5 -57.5t-51 -66t-54 -68.5t-52.5 -64.5 t-45.5 -55.5t-32.5 -40q-17 -20 -34 -28.5t-34 -8.5q-24 0 -41 18.5t-17 48.5z" />
<glyph unicode="&#xca;" d="M64 364q0 101 36.5 194t113 165t196 116t286.5 48q-110 0 -192 31.5t-136 85t-81 125t-27 151.5q0 75 26 137t71.5 111.5t107.5 86.5t134.5 61.5t152 37t160.5 12.5q117 0 229 -25.5t199 -76.5t140 -127.5t53 -178.5q0 -36 -24.5 -71t-58.5 -62.5t-71.5 -44t-62.5 -16.5 q-21 0 -21 37q0 33 10.5 85t35.5 130q-27 22 -79 44t-117.5 40t-139.5 29.5t-146 11.5q-67 0 -128 -12t-107.5 -39.5t-74 -72.5t-27.5 -111q0 -54 19.5 -91t52 -63t74.5 -42.5t87 -29.5t88.5 -25t80 -27.5t61.5 -37.5t33 -55q2 -21 4 -42.5t2 -41.5q0 -56 -21 -81.5 t-82 -25.5q-26 0 -64.5 3t-73.5 3q-80 0 -157 -20.5t-138 -61t-98.5 -100t-37.5 -138.5q0 -75 21.5 -125t59 -80.5t88.5 -43.5t110 -13q71 0 149 14t155.5 38.5t151 58t136.5 72t111 81t74 85.5l69 -227q-81 -86 -182.5 -150.5t-212 -108t-224.5 -65.5t-221 -22 q-118 0 -222 27.5t-182 84t-123.5 143t-45.5 205.5zM666 2012q0 19 8 38l164 329q27 52 48.5 92t44.5 67t53 41t75 14q44 0 74 -16.5t51 -48.5t36.5 -78.5t30.5 -106.5q11 -34 18 -55t12 -37t9.5 -30t10.5 -34t15 -48.5t23 -73.5q5 -18 5 -35q0 -47 -29 -80t-86 -33 q-19 0 -36.5 6t-32.5 21t-26.5 40.5t-17.5 64.5q-17 103 -31 175t-23 118q-11 54 -19 87q-31 -81 -59 -154q-12 -31 -24.5 -63.5t-24 -62.5t-22 -56t-17.5 -44q-18 -47 -37.5 -73t-40 -38t-41.5 -14.5t-42 -2.5q-11 0 -23 6.5t-22 18.5t-17 28.5t-7 37.5z" />
<glyph unicode="&#xcc;" d="M251 -27q0 3 9.5 9.5t21.5 18t23 28.5t14 42q2 17 34 32.5t77 28t95.5 20.5t89.5 11q31 131 62.5 262t62 256.5t60 243t57.5 220.5t54 189t49 150q-37 -4 -65 -8t-50 -9t-41.5 -11t-40.5 -13.5t-45.5 -17t-57.5 -21.5l-4 -2q-3 0 -5.5 35.5t-2.5 95.5q0 12 11 31.5 t37 41.5t68.5 44t107 40t152 29t202.5 11q99 0 154.5 -9.5t83.5 -25t34.5 -36t6.5 -41.5q0 -22 -5 -43t-26 -37.5t-63 -26.5t-115 -10q-33 0 -66 3q-28 -109 -49 -195t-38 -158.5t-31 -136.5t-28.5 -129t-30.5 -136t-36.5 -157t-48 -192.5t-63.5 -242.5q6 0 27.5 -2t49.5 -7 t59.5 -13t57.5 -20t43 -28t17 -37q0 -42 -72 -82h-67.5h-109.5h-136t-146 -0.5t-141.5 0t-120.5 1t-83.5 1.5t-31.5 3zM832 2380q0 30 13 55t33.5 43t46.5 28t52 10q29 0 55.5 -15t39.5 -49q46 -104 85 -194q16 -38 33 -77t31.5 -72.5t25.5 -60t17 -39.5q5 -13 7.5 -25 t2.5 -23q0 -30 -17 -48.5t-41 -18.5q-17 0 -34.5 8.5t-33.5 28.5q-13 15 -33 40t-45 55.5t-52.5 64.5t-54 68.5t-51 66t-43.5 57.5q-37 52 -37 97z" />
<glyph unicode="&#xcd;" d="M251 -27q0 3 9.5 9.5t21.5 18t23 28.5t14 42q2 17 34 32.5t77 28t95.5 20.5t89.5 11q31 131 62.5 262t62 256.5t60 243t57.5 220.5t54 189t49 150q-37 -4 -65 -8t-50 -9t-41.5 -11t-40.5 -13.5t-45.5 -17t-57.5 -21.5l-4 -2q-3 0 -5.5 35.5t-2.5 95.5q0 12 11 31.5 t37 41.5t68.5 44t107 40t152 29t202.5 11q99 0 154.5 -9.5t83.5 -25t34.5 -36t6.5 -41.5q0 -22 -5 -43t-26 -37.5t-63 -26.5t-115 -10q-33 0 -66 3q-28 -109 -49 -195t-38 -158.5t-31 -136.5t-28.5 -129t-30.5 -136t-36.5 -157t-48 -192.5t-63.5 -242.5q6 0 27.5 -2t49.5 -7 t59.5 -13t57.5 -20t43 -28t17 -37q0 -42 -72 -82h-67.5h-109.5h-136t-146 -0.5t-141.5 0t-120.5 1t-83.5 1.5t-31.5 3zM1038 1983q0 11 2.5 23t7.5 25q6 13 17 39.5t25.5 60t31 72.5t33.5 77q39 90 85 194q13 34 39.5 49t55.5 15q26 0 52 -10t46.5 -28t33.5 -43t13 -55 q0 -47 -37 -97q-19 -26 -43.5 -57.5t-51 -66t-54 -68.5t-52.5 -64.5t-45.5 -55.5t-32.5 -40q-17 -20 -34 -28.5t-34 -8.5q-24 0 -41 18.5t-17 48.5z" />
<glyph unicode="&#xd2;" horiz-adv-x="1632" d="M96 633q0 96 14 197t42.5 201.5t71 197t99 182.5t126.5 158.5t154.5 125t182 82t209.5 29.5q150 0 268.5 -54t200 -151t125 -231.5t43.5 -296.5q0 -134 -26.5 -279.5t-77.5 -286t-127 -267.5t-175 -223t-220.5 -152.5t-263.5 -56.5q-149 0 -268.5 61t-203.5 170.5 t-129 261t-45 332.5zM352 583q0 -113 28.5 -210.5t82 -168.5t130 -111.5t173.5 -40.5q80 0 149 31t126.5 85t105 126.5t84.5 155.5t64.5 172t45.5 176t26.5 167.5t8.5 146.5q0 96 -21 180.5t-63.5 147t-107 98.5t-150.5 36q-92 0 -178 -44.5t-162 -120t-139 -175 t-108 -209.5t-70 -224t-25 -218zM739 2466q0 30 13 55t33.5 43t46.5 28t52 10q29 0 55.5 -15t39.5 -49q46 -104 85 -194q16 -38 33 -77t31.5 -72.5t25.5 -60t17 -39.5q5 -13 7.5 -25t2.5 -23q0 -30 -17 -48.5t-41 -18.5q-17 0 -34.5 8.5t-33.5 28.5q-13 15 -33 40t-45 55.5 t-52.5 64.5t-54 68.5t-51 66t-43.5 57.5q-37 52 -37 97z" />
<glyph unicode="&#xd3;" horiz-adv-x="1512" d="M96 633q0 96 14 197t42.5 201.5t71 197t99 182.5t126.5 158.5t154.5 125t182 82t209.5 29.5q150 0 268.5 -54t200 -151t125 -231.5t43.5 -296.5q0 -134 -26.5 -279.5t-77.5 -286t-127 -267.5t-175 -223t-220.5 -152.5t-263.5 -56.5q-149 0 -268.5 61t-203.5 170.5 t-129 261t-45 332.5zM352 583q0 -113 28.5 -210.5t82 -168.5t130 -111.5t173.5 -40.5q80 0 149 31t126.5 85t105 126.5t84.5 155.5t64.5 172t45.5 176t26.5 167.5t8.5 146.5q0 96 -21 180.5t-63.5 147t-107 98.5t-150.5 36q-92 0 -178 -44.5t-162 -120t-139 -175 t-108 -209.5t-70 -224t-25 -218zM1059 2048q0 11 2.5 23t7.5 25q6 13 17 39.5t25.5 60t31 72.5t33.5 77q39 90 85 194q13 34 39.5 49t55.5 15q26 0 52 -10t46.5 -28t33.5 -43t13 -55q0 -47 -37 -97q-19 -26 -43.5 -57.5t-51 -66t-54 -68.5t-52.5 -64.5t-45.5 -55.5 t-32.5 -40q-17 -20 -34 -28.5t-34 -8.5q-24 0 -41 18.5t-17 48.5z" />
<glyph unicode="&#xd4;" horiz-adv-x="1512" d="M96 633q0 96 14 197t42.5 201.5t71 197t99 182.5t126.5 158.5t154.5 125t182 82t209.5 29.5q150 0 268.5 -54t200 -151t125 -231.5t43.5 -296.5q0 -134 -26.5 -279.5t-77.5 -286t-127 -267.5t-175 -223t-220.5 -152.5t-263.5 -56.5q-149 0 -268.5 61t-203.5 170.5 t-129 261t-45 332.5zM352 583q0 -113 28.5 -210.5t82 -168.5t130 -111.5t173.5 -40.5q80 0 149 31t126.5 85t105 126.5t84.5 155.5t64.5 172t45.5 176t26.5 167.5t8.5 146.5q0 96 -21 180.5t-63.5 147t-107 98.5t-150.5 36q-92 0 -178 -44.5t-162 -120t-139 -175 t-108 -209.5t-70 -224t-25 -218zM746 2087q0 19 8 38l164 329q27 52 48.5 92t44.5 67t53 41t75 14q44 0 74 -16.5t51 -48.5t36.5 -78.5t30.5 -106.5q11 -34 18 -55t12 -37t9.5 -30t10.5 -34t15 -48.5t23 -73.5q5 -18 5 -35q0 -47 -29 -80t-86 -33q-19 0 -36.5 6t-32.5 21 t-26.5 40.5t-17.5 64.5q-17 103 -31 175t-23 118q-11 54 -19 87q-31 -81 -59 -154q-12 -31 -24.5 -63.5t-24 -62.5t-22 -56t-17.5 -44q-18 -47 -37.5 -73t-40 -38t-41.5 -14.5t-42 -2.5q-11 0 -23 6.5t-22 18.5t-17 28.5t-7 37.5z" />
<glyph unicode="&#xd5;" horiz-adv-x="1512" d="M96 633q0 96 14 197t42.5 201.5t71 197t99 182.5t126.5 158.5t154.5 125t182 82t209.5 29.5q150 0 268.5 -54t200 -151t125 -231.5t43.5 -296.5q0 -134 -26.5 -279.5t-77.5 -286t-127 -267.5t-175 -223t-220.5 -152.5t-263.5 -56.5q-149 0 -268.5 61t-203.5 170.5 t-129 261t-45 332.5zM352 583q0 -113 28.5 -210.5t82 -168.5t130 -111.5t173.5 -40.5q80 0 149 31t126.5 85t105 126.5t84.5 155.5t64.5 172t45.5 176t26.5 167.5t8.5 146.5q0 96 -21 180.5t-63.5 147t-107 98.5t-150.5 36q-92 0 -178 -44.5t-162 -120t-139 -175 t-108 -209.5t-70 -224t-25 -218zM759 2096q0 25 14 53q12 23 31 58.5t47.5 69t66.5 57.5t87 24q31 0 56.5 -8.5t58.5 -30.5t80.5 -60t122.5 -97q12 13 24 30q11 14 23.5 32t25.5 38q20 32 49.5 47.5t58.5 15.5q34 0 58.5 -19t24.5 -54q0 -25 -14 -53q-12 -23 -31 -58.5 t-47.5 -69t-66.5 -57.5t-87 -24q-31 0 -56.5 8.5t-58.5 30.5t-80.5 60t-122.5 97q-12 -15 -24 -31q-11 -14 -24 -31.5t-25 -37.5q-20 -32 -49.5 -47.5t-58.5 -15.5q-34 0 -58.5 19t-24.5 54z" />
<glyph unicode="&#xd9;" horiz-adv-x="1382" d="M96 588q0 119 15.5 241t39.5 237.5t54.5 219t60.5 186.5q19 58 38.5 90t38.5 47.5t38 19t39 3.5q38 0 67.5 -3.5t49.5 -13.5t30 -28.5t10 -49.5v-8q-2 -12 -3 -26t-6 -31q-12 -37 -32.5 -99.5t-44.5 -143t-49 -173.5t-45 -190.5t-32.5 -194t-12.5 -183.5q0 -90 15 -167.5 t50.5 -134.5t92.5 -89.5t141 -32.5q65 0 123.5 35.5t110 100t97 154.5t83.5 198t68.5 230.5t53.5 253t38.5 265.5t22.5 267q3 51 19 82t40.5 48.5t55 23.5t60.5 6q27 0 48 -6t35.5 -21.5t22 -41.5t7.5 -66q0 -277 -33 -515t-93 -432.5t-144 -345t-185.5 -252.5t-218.5 -155 t-242 -53q-150 0 -251 60.5t-161.5 163.5t-86 238.5t-25.5 285.5zM588 2328q0 30 13 55t33.5 43t46.5 28t52 10q29 0 55.5 -15t39.5 -49q46 -104 85 -194q16 -38 33 -77t31.5 -72.5t25.5 -60t17 -39.5q5 -13 7.5 -25t2.5 -23q0 -30 -17 -48.5t-41 -18.5q-17 0 -34.5 8.5 t-33.5 28.5q-13 15 -33 40t-45 55.5t-52.5 64.5t-54 68.5t-51 66t-43.5 57.5q-37 52 -37 97z" />
<glyph unicode="&#xda;" horiz-adv-x="1382" d="M96 588q0 119 15.5 241t39.5 237.5t54.5 219t60.5 186.5q19 58 38.5 90t38.5 47.5t38 19t39 3.5q38 0 67.5 -3.5t49.5 -13.5t30 -28.5t10 -49.5v-8q-2 -12 -3 -26t-6 -31q-12 -37 -32.5 -99.5t-44.5 -143t-49 -173.5t-45 -190.5t-32.5 -194t-12.5 -183.5q0 -90 15 -167.5 t50.5 -134.5t92.5 -89.5t141 -32.5q65 0 123.5 35.5t110 100t97 154.5t83.5 198t68.5 230.5t53.5 253t38.5 265.5t22.5 267q3 51 19 82t40.5 48.5t55 23.5t60.5 6q27 0 48 -6t35.5 -21.5t22 -41.5t7.5 -66q0 -277 -33 -515t-93 -432.5t-144 -345t-185.5 -252.5t-218.5 -155 t-242 -53q-150 0 -251 60.5t-161.5 163.5t-86 238.5t-25.5 285.5zM921 1909q0 11 2.5 23t7.5 25q6 13 17 39.5t25.5 60t31 72.5t33.5 77q39 90 85 194q13 34 39.5 49t55.5 15q26 0 52 -10t46.5 -28t33.5 -43t13 -55q0 -47 -37 -97q-19 -26 -43.5 -57.5t-51 -66t-54 -68.5 t-52.5 -64.5t-45.5 -55.5t-32.5 -40q-17 -20 -34 -28.5t-34 -8.5q-24 0 -41 18.5t-17 48.5z" />
<glyph unicode="&#xdd;" horiz-adv-x="1344" d="M225 1494q0 17 9 35t28.5 33t49 24.5t71.5 9.5q114 0 208.5 -57.5t175.5 -157t151 -233t136 -284.5q59 107 113.5 210.5t100.5 193.5t82.5 162.5t60.5 117.5q13 24 47.5 39t74.5 15q21 0 41 -6t35.5 -19t25.5 -34.5t10 -51.5q0 -42 -26 -103q-23 -53 -64.5 -137t-98 -188 t-125.5 -221.5t-145 -236.5l-60 -99q-82 -112 -148 -195.5t-120.5 -143.5t-100 -99.5t-87.5 -62t-82 -31.5t-84 -9q-40 0 -81 18t-75 42t-57.5 47.5t-27.5 35.5q-6 8 -11 23t-5 31q0 15 7 26.5t24 11.5q6 0 15 -3q31 -20 61 -29t56 -9q75 0 135 26.5t108 68.5t86 95.5 t68 107.5t53.5 103.5t43.5 84.5q-35 88 -72 175t-77 166.5t-81.5 147.5t-85 118.5t-88.5 79t-90 28.5q-24 0 -38.5 -6t-22.5 -16t-11 -23t-3 -26q0 -15 2 -30t2 -26q0 -17 -8.5 -21t-19.5 -4q-20 0 -36 24t-27 64t-17 91.5t-6 106.5zM1051 1785q0 11 2.5 23t7.5 25 q6 13 17 39.5t25.5 60t31 72.5t33.5 77q39 90 85 194q13 34 39.5 49t55.5 15q26 0 52 -10t46.5 -28t33.5 -43t13 -55q0 -47 -37 -97q-19 -26 -43.5 -57.5t-51 -66t-54 -68.5t-52.5 -64.5t-45.5 -55.5t-32.5 -40q-17 -20 -34 -28.5t-34 -8.5q-24 0 -41 18.5t-17 48.5z" />
<glyph unicode="&#xe0;" horiz-adv-x="928" d="M64 281q0 75 21 154t58 154.5t87.5 142.5t110.5 117t126.5 79.5t135.5 29.5q23 0 36 -9t21.5 -20.5t16.5 -22.5t20 -16t24.5 -6.5t25.5 -1.5q11 0 22.5 0.5t22.5 0.5q15 0 28 -3t23 -13t15.5 -28t5.5 -49q0 -48 -10 -106.5t-22 -120t-22 -123t-10 -116.5q0 -47 8.5 -73.5 t36.5 -26.5q21 0 44 10.5t46.5 27.5t47 38.5t44.5 44.5q49 54 99 122l48 -222q-23 -32 -61.5 -75t-86.5 -82t-103 -66t-110 -27q-66 0 -110 42.5t-76 123.5q-24 -28 -59 -57t-76.5 -52.5t-86.5 -38.5t-90 -15q-48 0 -93.5 19.5t-80.5 56t-56 89t-21 118.5zM317 1634 q0 30 13 55t33.5 43t46.5 28t52 10q29 0 55.5 -15t39.5 -49q46 -104 85 -194q16 -38 33 -77t31.5 -72.5t25.5 -60t17 -39.5q5 -13 7.5 -25t2.5 -23q0 -30 -17 -48.5t-41 -18.5q-17 0 -34.5 8.5t-33.5 28.5q-13 15 -33 40t-45 55.5t-52.5 64.5t-54 68.5t-51 66t-43.5 57.5 q-37 52 -37 97zM320 324q0 -25 3.5 -48.5t12.5 -42t24 -30t38 -11.5q37 0 67 32t52 77t35.5 93t17.5 80l61 294q-41 0 -80 -20.5t-73.5 -55.5t-63.5 -80t-50 -94.5t-32.5 -99.5t-11.5 -94z" />
<glyph unicode="&#xe1;" horiz-adv-x="928" d="M64 281q0 75 21 154t58 154.5t87.5 142.5t110.5 117t126.5 79.5t135.5 29.5q23 0 36 -9t21.5 -20.5t16.5 -22.5t20 -16t24.5 -6.5t25.5 -1.5q11 0 22.5 0.5t22.5 0.5q15 0 28 -3t23 -13t15.5 -28t5.5 -49q0 -48 -10 -106.5t-22 -120t-22 -123t-10 -116.5q0 -47 8.5 -73.5 t36.5 -26.5q21 0 44 10.5t46.5 27.5t47 38.5t44.5 44.5q49 54 99 122l48 -222q-23 -32 -61.5 -75t-86.5 -82t-103 -66t-110 -27q-66 0 -110 42.5t-76 123.5q-24 -28 -59 -57t-76.5 -52.5t-86.5 -38.5t-90 -15q-48 0 -93.5 19.5t-80.5 56t-56 89t-21 118.5zM320 324 q0 -25 3.5 -48.5t12.5 -42t24 -30t38 -11.5q37 0 67 32t52 77t35.5 93t17.5 80l61 294q-41 0 -80 -20.5t-73.5 -55.5t-63.5 -80t-50 -94.5t-32.5 -99.5t-11.5 -94zM647 1163q0 11 2.5 23t7.5 25q6 13 17 39.5t25.5 60t31 72.5t33.5 77q39 90 85 194q13 34 39.5 49t55.5 15 q26 0 52 -10t46.5 -28t33.5 -43t13 -55q0 -47 -37 -97q-19 -26 -43.5 -57.5t-51 -66t-54 -68.5t-52.5 -64.5t-45.5 -55.5t-32.5 -40q-17 -20 -34 -28.5t-34 -8.5q-24 0 -41 18.5t-17 48.5z" />
<glyph unicode="&#xe2;" horiz-adv-x="928" d="M64 281q0 75 21 154t58 154.5t87.5 142.5t110.5 117t126.5 79.5t135.5 29.5q23 0 36 -9t21.5 -20.5t16.5 -22.5t20 -16t24.5 -6.5t25.5 -1.5q11 0 22.5 0.5t22.5 0.5q15 0 28 -3t23 -13t15.5 -28t5.5 -49q0 -48 -10 -106.5t-22 -120t-22 -123t-10 -116.5q0 -47 8.5 -73.5 t36.5 -26.5q21 0 44 10.5t46.5 27.5t47 38.5t44.5 44.5q49 54 99 122l48 -222q-23 -32 -61.5 -75t-86.5 -82t-103 -66t-110 -27q-66 0 -110 42.5t-76 123.5q-24 -28 -59 -57t-76.5 -52.5t-86.5 -38.5t-90 -15q-48 0 -93.5 19.5t-80.5 56t-56 89t-21 118.5zM319 1168 q0 19 8 38l164 329q27 52 48.5 92t44.5 67t53 41t75 14q44 0 74 -16.5t51 -48.5t36.5 -78.5t30.5 -106.5q11 -34 18 -55t12 -37t9.5 -30t10.5 -34t15 -48.5t23 -73.5q5 -18 5 -35q0 -47 -29 -80t-86 -33q-19 0 -36.5 6t-32.5 21t-26.5 40.5t-17.5 64.5q-17 103 -31 175 t-23 118q-11 54 -19 87q-31 -81 -59 -154q-12 -31 -24.5 -63.5t-24 -62.5t-22 -56t-17.5 -44q-18 -47 -37.5 -73t-40 -38t-41.5 -14.5t-42 -2.5q-11 0 -23 6.5t-22 18.5t-17 28.5t-7 37.5zM320 324q0 -25 3.5 -48.5t12.5 -42t24 -30t38 -11.5q37 0 67 32t52 77t35.5 93 t17.5 80l61 294q-41 0 -80 -20.5t-73.5 -55.5t-63.5 -80t-50 -94.5t-32.5 -99.5t-11.5 -94z" />
<glyph unicode="&#xe3;" horiz-adv-x="928" d="M64 281q0 75 21 154t58 154.5t87.5 142.5t110.5 117t126.5 79.5t135.5 29.5q23 0 36 -9t21.5 -20.5t16.5 -22.5t20 -16t24.5 -6.5t25.5 -1.5q11 0 22.5 0.5t22.5 0.5q15 0 28 -3t23 -13t15.5 -28t5.5 -49q0 -48 -10 -106.5t-22 -120t-22 -123t-10 -116.5q0 -47 8.5 -73.5 t36.5 -26.5q21 0 44 10.5t46.5 27.5t47 38.5t44.5 44.5q49 54 99 122l48 -222q-23 -32 -61.5 -75t-86.5 -82t-103 -66t-110 -27q-66 0 -110 42.5t-76 123.5q-24 -28 -59 -57t-76.5 -52.5t-86.5 -38.5t-90 -15q-48 0 -93.5 19.5t-80.5 56t-56 89t-21 118.5zM257 1198 q0 25 14 53q12 23 31 58.5t47.5 69t66.5 57.5t87 24q31 0 56.5 -8.5t58.5 -30.5t80.5 -60t122.5 -97q12 13 24 30q11 14 23.5 32t25.5 38q20 32 49.5 47.5t58.5 15.5q34 0 58.5 -19t24.5 -54q0 -25 -14 -53q-12 -23 -31 -58.5t-47.5 -69t-66.5 -57.5t-87 -24 q-31 0 -56.5 8.5t-58.5 30.5t-80.5 60t-122.5 97q-12 -15 -24 -31q-11 -14 -24 -31.5t-25 -37.5q-20 -32 -49.5 -47.5t-58.5 -15.5q-34 0 -58.5 19t-24.5 54zM320 324q0 -25 3.5 -48.5t12.5 -42t24 -30t38 -11.5q37 0 67 32t52 77t35.5 93t17.5 80l61 294q-41 0 -80 -20.5 t-73.5 -55.5t-63.5 -80t-50 -94.5t-32.5 -99.5t-11.5 -94z" />
<glyph unicode="&#xe4;" horiz-adv-x="928" d="M64 281q0 75 21 154t58 154.5t87.5 142.5t110.5 117t126.5 79.5t135.5 29.5q23 0 36 -9t21.5 -20.5t16.5 -22.5t20 -16t24.5 -6.5t25.5 -1.5q11 0 22.5 0.5t22.5 0.5q15 0 28 -3t23 -13t15.5 -28t5.5 -49q0 -48 -10 -106.5t-22 -120t-22 -123t-10 -116.5q0 -47 8.5 -73.5 t36.5 -26.5q21 0 44 10.5t46.5 27.5t47 38.5t44.5 44.5q49 54 99 122l48 -222q-23 -32 -61.5 -75t-86.5 -82t-103 -66t-110 -27q-66 0 -110 42.5t-76 123.5q-24 -28 -59 -57t-76.5 -52.5t-86.5 -38.5t-90 -15q-48 0 -93.5 19.5t-80.5 56t-56 89t-21 118.5zM312 1254 q0 33 9 64.5t28 55.5t49 39t72 15q70 0 107.5 -38t37.5 -110q0 -4 -1 -18.5t-6 -34t-15 -40.5t-28 -39t-45.5 -30t-66.5 -12q-64 0 -102.5 34.5t-38.5 113.5zM320 324q0 -25 3.5 -48.5t12.5 -42t24 -30t38 -11.5q37 0 67 32t52 77t35.5 93t17.5 80l61 294q-41 0 -80 -20.5 t-73.5 -55.5t-63.5 -80t-50 -94.5t-32.5 -99.5t-11.5 -94zM779 1254q0 33 9 64.5t28.5 55.5t49 39t71.5 15q71 0 108 -38t37 -110q0 -4 -1 -18.5t-5.5 -34t-14.5 -40.5t-28 -39t-45.5 -30t-67.5 -12q-62 0 -101.5 34.5t-39.5 113.5z" />
<glyph unicode="&#xe5;" horiz-adv-x="928" d="M64 281q0 75 21 154t58 154.5t87.5 142.5t110.5 117t126.5 79.5t135.5 29.5q23 0 36 -9t21.5 -20.5t16.5 -22.5t20 -16t24.5 -6.5t25.5 -1.5q11 0 22.5 0.5t22.5 0.5q15 0 28 -3t23 -13t15.5 -28t5.5 -49q0 -48 -10 -106.5t-22 -120t-22 -123t-10 -116.5q0 -47 8.5 -73.5 t36.5 -26.5q21 0 44 10.5t46.5 27.5t47 38.5t44.5 44.5q49 54 99 122l48 -222q-23 -32 -61.5 -75t-86.5 -82t-103 -66t-110 -27q-66 0 -110 42.5t-76 123.5q-24 -28 -59 -57t-76.5 -52.5t-86.5 -38.5t-90 -15q-48 0 -93.5 19.5t-80.5 56t-56 89t-21 118.5zM320 324 q0 -25 3.5 -48.5t12.5 -42t24 -30t38 -11.5q37 0 67 32t52 77t35.5 93t17.5 80l61 294q-41 0 -80 -20.5t-73.5 -55.5t-63.5 -80t-50 -94.5t-32.5 -99.5t-11.5 -94zM446 1334q0 46 15 85t41 70.5t59.5 55.5t71 40.5t76 24.5t73.5 8q37 0 74.5 -12.5t66.5 -38.5t47.5 -65 t18.5 -91q0 -80 -29 -139t-74 -98t-100.5 -58t-107.5 -19q-37 0 -78 12t-75 39.5t-56.5 73t-22.5 112.5zM581 1333q0 -20 6 -38.5t18.5 -32.5t30.5 -22.5t42 -8.5q39 0 70 15.5t52 40t32.5 54t11.5 57.5q0 38 -21 64.5t-66 26.5t-78 -14.5t-54.5 -37t-32.5 -50t-11 -54.5z " />
<glyph unicode="&#xe6;" horiz-adv-x="1715" d="M64 281q0 75 21 154t58 154.5t87.5 142.5t110.5 117t126.5 79.5t135.5 29.5q23 0 36 -9t21.5 -20.5t16.5 -22.5t20 -16t24.5 -6.5t25.5 -1.5q11 0 22.5 0.5t22.5 0.5q15 0 28 -3t23 -13t15.5 -28t5.5 -49q0 -48 -10 -106.5t-22 -120t-22 -123t-10 -116.5q0 -47 8.5 -73.5 t36.5 -26.5q21 0 44 10.5t46.5 27.5t47 38.5t44.5 44.5q49 54 99 122l48 -222q-23 -32 -61.5 -75t-86.5 -82t-103 -66t-110 -27q-66 0 -110 42.5t-76 123.5q-24 -28 -59 -57t-76.5 -52.5t-86.5 -38.5t-90 -15q-48 0 -93.5 19.5t-80.5 56t-56 89t-21 118.5zM320 324 q0 -25 3.5 -48.5t12.5 -42t24 -30t38 -11.5q37 0 67 32t52 77t35.5 93t17.5 80l61 294q-41 0 -80 -20.5t-73.5 -55.5t-63.5 -80t-50 -94.5t-32.5 -99.5t-11.5 -94zM1018 417q0 56 11 118.5t33.5 122.5t56.5 114.5t79.5 96t102 66t125.5 24.5q56 0 104 -18t83.5 -50.5 t55.5 -78.5t20 -103q0 -62 -30.5 -124t-84.5 -117t-128.5 -98t-161.5 -67q15 -27 29.5 -45t29.5 -28t31.5 -14t35.5 -4q60 0 126.5 24t129.5 60t119 78.5t95 80.5l129 -134q-88 -91 -187 -161q-43 -30 -92.5 -59t-104 -51.5t-113 -36t-118.5 -13.5q-94 0 -164.5 34 t-117.5 91.5t-70.5 133t-23.5 158.5zM1261 470q36 0 78.5 18.5t79 47.5t61.5 63t25 66q0 45 -16.5 74t-40.5 29q-43 0 -73.5 -16t-51 -41.5t-33 -58t-19 -65.5t-8.5 -64t-2 -53z" />
<glyph unicode="&#xe7;" horiz-adv-x="736" d="M64 413q0 58 12 121t35.5 123.5t58 115.5t80 96.5t101.5 66t123 24.5q57 0 105.5 -17.5t83 -48.5t54 -73.5t19.5 -91.5q0 -34 -9 -67t-26.5 -59.5t-42.5 -42.5t-56 -16q-47 0 -61.5 25t-14.5 69q0 18 1.5 38t1.5 36q0 24 -5 40t-22 16q-41 0 -70 -19.5t-49.5 -51 t-32.5 -71t-19 -78.5t-9 -74.5t-2 -59.5q0 -36 6.5 -75t24.5 -71.5t49 -54t80 -21.5q48 0 106 29.5t116.5 74.5t111.5 99t91 102l69 -116q-75 -107 -162 -191q-37 -36 -80.5 -70t-91 -60.5t-99 -43t-104.5 -16.5q-92 0 -161.5 34t-116.5 91t-71 132t-24 156zM219 -392 q0 42 17 87.5t46 98.5t68 115t83 137q8 20 26 35t38 15q19 0 32.5 -8t13.5 -27q0 -5 -2 -15q-10 -103 -16 -165.5t-10 -98t-6.5 -51.5t-4.5 -26.5t-4.5 -23t-6.5 -41.5q-5 -37 -21.5 -65t-39 -47t-49.5 -29t-53 -10q-22 0 -42 7t-35.5 22t-24.5 37.5t-9 52.5z" />
<glyph unicode="&#xe8;" horiz-adv-x="787" d="M90 417q0 56 11 118.5t33.5 122.5t56.5 114.5t79.5 96t102 66t125.5 24.5q56 0 104 -18t83.5 -50.5t55.5 -78.5t20 -103q0 -62 -30.5 -124t-84.5 -117t-128.5 -98t-161.5 -67q15 -27 29.5 -45t29.5 -28t31.5 -14t35.5 -4q60 0 126.5 24t129.5 60t119 78.5t95 80.5 l129 -134q-88 -91 -187 -161q-43 -30 -92.5 -59t-104 -51.5t-113 -36t-118.5 -13.5q-94 0 -164.5 34t-117.5 91.5t-70.5 133t-23.5 158.5zM172 1574q0 30 13 55t33.5 43t46.5 28t52 10q29 0 55.5 -15t39.5 -49q46 -104 85 -194q16 -38 33 -77t31.5 -72.5t25.5 -60t17 -39.5 q5 -13 7.5 -25t2.5 -23q0 -30 -17 -48.5t-41 -18.5q-17 0 -34.5 8.5t-33.5 28.5q-13 15 -33 40t-45 55.5t-52.5 64.5t-54 68.5t-51 66t-43.5 57.5q-37 52 -37 97zM333 470q36 0 78.5 18.5t79 47.5t61.5 63t25 66q0 45 -16.5 74t-40.5 29q-43 0 -73.5 -16t-51 -41.5t-33 -58 t-19 -65.5t-8.5 -64t-2 -53z" />
<glyph unicode="&#xe9;" horiz-adv-x="787" d="M90 417q0 56 11 118.5t33.5 122.5t56.5 114.5t79.5 96t102 66t125.5 24.5q56 0 104 -18t83.5 -50.5t55.5 -78.5t20 -103q0 -62 -30.5 -124t-84.5 -117t-128.5 -98t-161.5 -67q15 -27 29.5 -45t29.5 -28t31.5 -14t35.5 -4q60 0 126.5 24t129.5 60t119 78.5t95 80.5 l129 -134q-88 -91 -187 -161q-43 -30 -92.5 -59t-104 -51.5t-113 -36t-118.5 -13.5q-94 0 -164.5 34t-117.5 91.5t-70.5 133t-23.5 158.5zM333 470q36 0 78.5 18.5t79 47.5t61.5 63t25 66q0 45 -16.5 74t-40.5 29q-43 0 -73.5 -16t-51 -41.5t-33 -58t-19 -65.5t-8.5 -64 t-2 -53zM462 1188q0 11 2.5 23t7.5 25q6 13 17 39.5t25.5 60t31 72.5t33.5 77q39 90 85 194q13 34 39.5 49t55.5 15q26 0 52 -10t46.5 -28t33.5 -43t13 -55q0 -47 -37 -97q-19 -26 -43.5 -57.5t-51 -66t-54 -68.5t-52.5 -64.5t-45.5 -55.5t-32.5 -40q-17 -20 -34 -28.5 t-34 -8.5q-24 0 -41 18.5t-17 48.5z" />
<glyph unicode="&#xea;" horiz-adv-x="787" d="M90 417q0 56 11 118.5t33.5 122.5t56.5 114.5t79.5 96t102 66t125.5 24.5q56 0 104 -18t83.5 -50.5t55.5 -78.5t20 -103q0 -62 -30.5 -124t-84.5 -117t-128.5 -98t-161.5 -67q15 -27 29.5 -45t29.5 -28t31.5 -14t35.5 -4q60 0 126.5 24t129.5 60t119 78.5t95 80.5 l129 -134q-88 -91 -187 -161q-43 -30 -92.5 -59t-104 -51.5t-113 -36t-118.5 -13.5q-94 0 -164.5 34t-117.5 91.5t-70.5 133t-23.5 158.5zM204 1203q0 19 8 38l164 329q27 52 48.5 92t44.5 67t53 41t75 14q44 0 74 -16.5t51 -48.5t36.5 -78.5t30.5 -106.5q11 -34 18 -55 t12 -37t9.5 -30t10.5 -34t15 -48.5t23 -73.5q5 -18 5 -35q0 -47 -29 -80t-86 -33q-19 0 -36.5 6t-32.5 21t-26.5 40.5t-17.5 64.5q-17 103 -31 175t-23 118q-11 54 -19 87q-31 -81 -59 -154q-12 -31 -24.5 -63.5t-24 -62.5t-22 -56t-17.5 -44q-18 -47 -37.5 -73t-40 -38 t-41.5 -14.5t-42 -2.5q-11 0 -23 6.5t-22 18.5t-17 28.5t-7 37.5zM333 470q36 0 78.5 18.5t79 47.5t61.5 63t25 66q0 45 -16.5 74t-40.5 29q-43 0 -73.5 -16t-51 -41.5t-33 -58t-19 -65.5t-8.5 -64t-2 -53z" />
<glyph unicode="&#xeb;" horiz-adv-x="787" d="M90 417q0 56 11 118.5t33.5 122.5t56.5 114.5t79.5 96t102 66t125.5 24.5q56 0 104 -18t83.5 -50.5t55.5 -78.5t20 -103q0 -62 -30.5 -124t-84.5 -117t-128.5 -98t-161.5 -67q15 -27 29.5 -45t29.5 -28t31.5 -14t35.5 -4q60 0 126.5 24t129.5 60t119 78.5t95 80.5 l129 -134q-88 -91 -187 -161q-43 -30 -92.5 -59t-104 -51.5t-113 -36t-118.5 -13.5q-94 0 -164.5 34t-117.5 91.5t-70.5 133t-23.5 158.5zM127 1280q0 33 9 64.5t28 55.5t49 39t72 15q70 0 107.5 -38t37.5 -110q0 -4 -1 -18.5t-6 -34t-15 -40.5t-28 -39t-45.5 -30t-66.5 -12 q-64 0 -102.5 34.5t-38.5 113.5zM333 470q36 0 78.5 18.5t79 47.5t61.5 63t25 66q0 45 -16.5 74t-40.5 29q-43 0 -73.5 -16t-51 -41.5t-33 -58t-19 -65.5t-8.5 -64t-2 -53zM594 1280q0 33 9 64.5t28.5 55.5t49 39t71.5 15q71 0 108 -38t37 -110q0 -4 -1 -18.5t-5.5 -34 t-14.5 -40.5t-28 -39t-45.5 -30t-67.5 -12q-62 0 -101.5 34.5t-39.5 113.5z" />
<glyph unicode="&#xec;" horiz-adv-x="537" d="M68 1616q0 30 13 55t33.5 43t46.5 28t52 10q29 0 55.5 -15t39.5 -49q46 -104 85 -194q16 -38 33 -77t31.5 -72.5t25.5 -60t17 -39.5q5 -13 7.5 -25t2.5 -23q0 -30 -17 -48.5t-41 -18.5q-17 0 -34.5 8.5t-33.5 28.5q-13 15 -33 40t-45 55.5t-52.5 64.5t-54 68.5t-51 66 t-43.5 57.5q-37 52 -37 97zM96 201q0 63 14.5 146.5t35.5 173t44.5 178.5t41.5 164q7 26 28 44.5t47.5 30t55 17t51.5 5.5q42 0 57 -15.5t15 -41.5q0 -22 -10 -63.5t-25 -94t-32 -113t-32 -121t-25 -118t-10 -103.5q0 -45 10 -71.5t41 -26.5q36 0 80 25t89 60.5t88 73.5 t76 65v-203q-36 -33 -89.5 -70.5t-115.5 -69t-126.5 -52.5t-122.5 -21q-52 0 -87.5 14.5t-57.5 40.5t-31.5 63.5t-9.5 82.5z" />
<glyph unicode="&#xed;" horiz-adv-x="537" d="M96 201q0 63 14.5 146.5t35.5 173t44.5 178.5t41.5 164q7 26 28 44.5t47.5 30t55 17t51.5 5.5q42 0 57 -15.5t15 -41.5q0 -22 -10 -63.5t-25 -94t-32 -113t-32 -121t-25 -118t-10 -103.5q0 -45 10 -71.5t41 -26.5q36 0 80 25t89 60.5t88 73.5t76 65v-203 q-36 -33 -89.5 -70.5t-115.5 -69t-126.5 -52.5t-122.5 -21q-52 0 -87.5 14.5t-57.5 40.5t-31.5 63.5t-9.5 82.5zM350 1183q0 11 2.5 23t7.5 25q6 13 17 39.5t25.5 60t31 72.5t33.5 77q39 90 85 194q13 34 39.5 49t55.5 15q26 0 52 -10t46.5 -28t33.5 -43t13 -55 q0 -47 -37 -97q-19 -26 -43.5 -57.5t-51 -66t-54 -68.5t-52.5 -64.5t-45.5 -55.5t-32.5 -40q-17 -20 -34 -28.5t-34 -8.5q-24 0 -41 18.5t-17 48.5z" />
<glyph unicode="&#xee;" horiz-adv-x="537" d="M72 1221q0 19 8 38l164 329q27 52 48.5 92t44.5 67t53 41t75 14q44 0 74 -16.5t51 -48.5t36.5 -78.5t30.5 -106.5q11 -34 18 -55t12 -37t9.5 -30t10.5 -34t15 -48.5t23 -73.5q5 -18 5 -35q0 -47 -29 -80t-86 -33q-19 0 -36.5 6t-32.5 21t-26.5 40.5t-17.5 64.5 q-17 103 -31 175t-23 118q-11 54 -19 87q-31 -81 -59 -154q-12 -31 -24.5 -63.5t-24 -62.5t-22 -56t-17.5 -44q-18 -47 -37.5 -73t-40 -38t-41.5 -14.5t-42 -2.5q-11 0 -23 6.5t-22 18.5t-17 28.5t-7 37.5zM96 201q0 63 14.5 146.5t35.5 173t44.5 178.5t41.5 164 q7 26 28 44.5t47.5 30t55 17t51.5 5.5q42 0 57 -15.5t15 -41.5q0 -22 -10 -63.5t-25 -94t-32 -113t-32 -121t-25 -118t-10 -103.5q0 -45 10 -71.5t41 -26.5q36 0 80 25t89 60.5t88 73.5t76 65v-203q-36 -33 -89.5 -70.5t-115.5 -69t-126.5 -52.5t-122.5 -21 q-52 0 -87.5 14.5t-57.5 40.5t-31.5 63.5t-9.5 82.5z" />
<glyph unicode="&#xef;" horiz-adv-x="537" d="M7 1313q0 33 9 64.5t28 55.5t49 39t72 15q70 0 107.5 -38t37.5 -110q0 -4 -1 -18.5t-6 -34t-15 -40.5t-28 -39t-45.5 -30t-66.5 -12q-64 0 -102.5 34.5t-38.5 113.5zM96 201q0 63 14.5 146.5t35.5 173t44.5 178.5t41.5 164q7 26 28 44.5t47.5 30t55 17t51.5 5.5 q42 0 57 -15.5t15 -41.5q0 -22 -10 -63.5t-25 -94t-32 -113t-32 -121t-25 -118t-10 -103.5q0 -45 10 -71.5t41 -26.5q36 0 80 25t89 60.5t88 73.5t76 65v-203q-36 -33 -89.5 -70.5t-115.5 -69t-126.5 -52.5t-122.5 -21q-52 0 -87.5 14.5t-57.5 40.5t-31.5 63.5t-9.5 82.5z M474 1313q0 33 9 64.5t28.5 55.5t49 39t71.5 15q71 0 108 -38t37 -110q0 -4 -1 -18.5t-5.5 -34t-14.5 -40.5t-28 -39t-45.5 -30t-67.5 -12q-62 0 -101.5 34.5t-39.5 113.5z" />
<glyph unicode="&#xf0;" horiz-adv-x="1089" d="M64 416q0 67 24 135.5t65.5 132.5t98 120t121 97.5t134 65.5t138.5 24t125 -8t102 -22v7q0 72 -9 133.5t-26 114.5q-45 -19 -90.5 -39t-93.5 -41q-23 -10 -44 -10q-27 0 -45.5 14t-30.5 32.5t-17 36.5t-5 27q0 20 14 40t52 37l166 71q-58 62 -137.5 92t-179.5 30 q-16 0 -30.5 9.5t-25.5 25.5t-17.5 36t-6.5 41t7.5 40.5t25 35.5t45 25.5t67.5 9.5q79 0 148.5 -17.5t129.5 -49.5t110.5 -77.5t91.5 -101.5l165 72q11 5 24 8.5t27 3.5q13 0 27.5 -6t26 -18.5t19 -31.5t7.5 -45t-18 -52.5t-67 -47.5l-120 -52q32 -81 48 -171t16 -185 q0 -131 -20.5 -253.5t-58.5 -229t-92.5 -194t-123 -150t-149.5 -97t-172 -34.5q-78 0 -157.5 23.5t-143.5 74t-104.5 129.5t-40.5 189zM290 416q0 -45 13.5 -85.5t43.5 -71t78 -49t117 -18.5q53 0 100.5 48t87 125t69.5 172.5t48 191.5q-33 16 -77.5 27t-108.5 11t-130 -28 t-119.5 -76t-87.5 -112t-34 -135z" />
<glyph unicode="&#xf1;" horiz-adv-x="927" d="M128 209q0 66 8 152.5t20 176t27 172.5t29 142q11 46 42.5 77t85.5 31t75 -33t21 -88q0 -15 -3 -40.5t-7.5 -56t-9.5 -63t-9.5 -60t-7.5 -48t-3 -27.5h20q6 11 19 35.5t30 56.5t36.5 67.5t36.5 68t31 57.5t21 37q32 54 73 74t91 20t79.5 -42t29.5 -116q0 -11 -4.5 -37 t-11.5 -62t-15.5 -79t-15.5 -88t-11.5 -89t-4.5 -81q0 -62 15.5 -102t48.5 -40q15 0 34.5 9t42 23.5t46 33.5t46.5 39q53 47 111 106l17 -224l-50 -38q-41 -31 -83.5 -62t-88.5 -55.5t-96 -40t-105 -15.5t-92.5 79.5t-37.5 232.5q0 60 8 129.5t20 149.5h-16l-262 -520 q-20 -41 -45 -56t-58 -15q-41 0 -66 17.5t-38.5 47t-18 67t-4.5 77.5zM184 1240q0 25 14 53q12 23 31 58.5t47.5 69t66.5 57.5t87 24q31 0 56.5 -8.5t58.5 -30.5t80.5 -60t122.5 -97q12 13 24 30q11 14 23.5 32t25.5 38q20 32 49.5 47.5t58.5 15.5q34 0 58.5 -19t24.5 -54 q0 -25 -14 -53q-12 -23 -31 -58.5t-47.5 -69t-66.5 -57.5t-87 -24q-31 0 -56.5 8.5t-58.5 30.5t-80.5 60t-122.5 97q-12 -15 -24 -31q-11 -14 -24 -31.5t-25 -37.5q-20 -32 -49.5 -47.5t-58.5 -15.5q-34 0 -58.5 19t-24.5 54z" />
<glyph unicode="&#xf2;" horiz-adv-x="873" d="M64 437q0 110 33 205.5t94.5 166t150.5 111t200 40.5q95 0 178 -29.5t155.5 -79t135 -113.5t116.5 -132l-19 -141q-27 36 -73 78t-97.5 82t-101.5 75.5t-86 59.5l-8 -11q29 -58 43.5 -122.5t14.5 -123.5t-13 -119t-37.5 -116t-60 -105t-81 -85t-99.5 -57t-115 -21 q-88 0 -150.5 38.5t-102.5 100.5t-58.5 140t-18.5 158zM201 1630q0 30 13 55t33.5 43t46.5 28t52 10q29 0 55.5 -15t39.5 -49q46 -104 85 -194q16 -38 33 -77t31.5 -72.5t25.5 -60t17 -39.5q5 -13 7.5 -25t2.5 -23q0 -30 -17 -48.5t-41 -18.5q-17 0 -34.5 8.5t-33.5 28.5 q-13 15 -33 40t-45 55.5t-52.5 64.5t-54 68.5t-51 66t-43.5 57.5q-37 52 -37 97zM288 396q0 -42 8 -79t25 -64.5t45 -44t67 -16.5q34 0 66 34.5t56 87t38.5 116t14.5 121.5q0 46 -7 85.5t-21 68.5t-36 46t-53 17q-41 0 -78 -35t-65 -89.5t-44 -120.5t-16 -127z" />
<glyph unicode="&#xf3;" horiz-adv-x="873" d="M64 437q0 110 33 205.5t94.5 166t150.5 111t200 40.5q95 0 178 -29.5t155.5 -79t135 -113.5t116.5 -132l-19 -141q-27 36 -73 78t-97.5 82t-101.5 75.5t-86 59.5l-8 -11q29 -58 43.5 -122.5t14.5 -123.5t-13 -119t-37.5 -116t-60 -105t-81 -85t-99.5 -57t-115 -21 q-88 0 -150.5 38.5t-102.5 100.5t-58.5 140t-18.5 158zM288 396q0 -42 8 -79t25 -64.5t45 -44t67 -16.5q34 0 66 34.5t56 87t38.5 116t14.5 121.5q0 46 -7 85.5t-21 68.5t-36 46t-53 17q-41 0 -78 -35t-65 -89.5t-44 -120.5t-16 -127zM465 1192q0 11 2.5 23t7.5 25 q6 13 17 39.5t25.5 60t31 72.5t33.5 77q39 90 85 194q13 34 39.5 49t55.5 15q26 0 52 -10t46.5 -28t33.5 -43t13 -55q0 -47 -37 -97q-19 -26 -43.5 -57.5t-51 -66t-54 -68.5t-52.5 -64.5t-45.5 -55.5t-32.5 -40q-17 -20 -34 -28.5t-34 -8.5q-24 0 -41 18.5t-17 48.5z" />
<glyph unicode="&#xf4;" horiz-adv-x="873" d="M64 437q0 110 33 205.5t94.5 166t150.5 111t200 40.5q95 0 178 -29.5t155.5 -79t135 -113.5t116.5 -132l-19 -141q-27 36 -73 78t-97.5 82t-101.5 75.5t-86 59.5l-8 -11q29 -58 43.5 -122.5t14.5 -123.5t-13 -119t-37.5 -116t-60 -105t-81 -85t-99.5 -57t-115 -21 q-88 0 -150.5 38.5t-102.5 100.5t-58.5 140t-18.5 158zM225 1212q0 19 8 38l164 329q27 52 48.5 92t44.5 67t53 41t75 14q44 0 74 -16.5t51 -48.5t36.5 -78.5t30.5 -106.5q11 -34 18 -55t12 -37t9.5 -30t10.5 -34t15 -48.5t23 -73.5q5 -18 5 -35q0 -47 -29 -80t-86 -33 q-19 0 -36.5 6t-32.5 21t-26.5 40.5t-17.5 64.5q-17 103 -31 175t-23 118q-11 54 -19 87q-31 -81 -59 -154q-12 -31 -24.5 -63.5t-24 -62.5t-22 -56t-17.5 -44q-18 -47 -37.5 -73t-40 -38t-41.5 -14.5t-42 -2.5q-11 0 -23 6.5t-22 18.5t-17 28.5t-7 37.5zM288 396 q0 -42 8 -79t25 -64.5t45 -44t67 -16.5q34 0 66 34.5t56 87t38.5 116t14.5 121.5q0 46 -7 85.5t-21 68.5t-36 46t-53 17q-41 0 -78 -35t-65 -89.5t-44 -120.5t-16 -127z" />
<glyph unicode="&#xf5;" horiz-adv-x="873" d="M64 437q0 110 33 205.5t94.5 166t150.5 111t200 40.5q95 0 178 -29.5t155.5 -79t135 -113.5t116.5 -132l-19 -141q-27 36 -73 78t-97.5 82t-101.5 75.5t-86 59.5l-8 -11q29 -58 43.5 -122.5t14.5 -123.5t-13 -119t-37.5 -116t-60 -105t-81 -85t-99.5 -57t-115 -21 q-88 0 -150.5 38.5t-102.5 100.5t-58.5 140t-18.5 158zM126 1212q0 25 14 53q12 23 31 58.5t47.5 69t66.5 57.5t87 24q31 0 56.5 -8.5t58.5 -30.5t80.5 -60t122.5 -97q12 13 24 30q11 14 23.5 32t25.5 38q20 32 49.5 47.5t58.5 15.5q34 0 58.5 -19t24.5 -54q0 -25 -14 -53 q-12 -23 -31 -58.5t-47.5 -69t-66.5 -57.5t-87 -24q-31 0 -56.5 8.5t-58.5 30.5t-80.5 60t-122.5 97q-12 -15 -24 -31q-11 -14 -24 -31.5t-25 -37.5q-20 -32 -49.5 -47.5t-58.5 -15.5q-34 0 -58.5 19t-24.5 54zM288 396q0 -42 8 -79t25 -64.5t45 -44t67 -16.5q34 0 66 34.5 t56 87t38.5 116t14.5 121.5q0 46 -7 85.5t-21 68.5t-36 46t-53 17q-41 0 -78 -35t-65 -89.5t-44 -120.5t-16 -127z" />
<glyph unicode="&#xf6;" horiz-adv-x="873" d="M64 437q0 110 33 205.5t94.5 166t150.5 111t200 40.5q95 0 178 -29.5t155.5 -79t135 -113.5t116.5 -132l-19 -141q-27 36 -73 78t-97.5 82t-101.5 75.5t-86 59.5l-8 -11q29 -58 43.5 -122.5t14.5 -123.5t-13 -119t-37.5 -116t-60 -105t-81 -85t-99.5 -57t-115 -21 q-88 0 -150.5 38.5t-102.5 100.5t-58.5 140t-18.5 158zM178 1284q0 33 9 64.5t28 55.5t49 39t72 15q70 0 107.5 -38t37.5 -110q0 -4 -1 -18.5t-6 -34t-15 -40.5t-28 -39t-45.5 -30t-66.5 -12q-64 0 -102.5 34.5t-38.5 113.5zM288 396q0 -42 8 -79t25 -64.5t45 -44t67 -16.5 q34 0 66 34.5t56 87t38.5 116t14.5 121.5q0 46 -7 85.5t-21 68.5t-36 46t-53 17q-41 0 -78 -35t-65 -89.5t-44 -120.5t-16 -127zM645 1284q0 33 9 64.5t28.5 55.5t49 39t71.5 15q71 0 108 -38t37 -110q0 -4 -1 -18.5t-5.5 -34t-14.5 -40.5t-28 -39t-45.5 -30t-67.5 -12 q-62 0 -101.5 34.5t-39.5 113.5z" />
<glyph unicode="&#xf8;" horiz-adv-x="873" d="M64 437q0 106 31 199t89 163t141.5 112.5t188.5 47.5q11 41 22.5 86.5t28.5 83.5t42.5 62.5t66.5 24.5q11 0 17 -7t9 -17.5t3.5 -23t0.5 -23.5q0 -6 -2.5 -18.5t-6.5 -27.5t-8 -30.5t-7 -25.5l-27 -95q74 -15 140.5 -49t125 -79.5t110.5 -100.5t98 -113l-19 -141 q-27 36 -73 78t-97.5 82t-101.5 75.5t-86 59.5l-8 -11q29 -58 43.5 -122.5t14.5 -123.5t-13 -119t-37.5 -116t-60 -105t-81 -85t-99.5 -57t-115 -21l-34 -108q-9 -24 -19.5 -38.5t-21 -22t-20.5 -9.5t-20 -2t-20 1.5t-17.5 8.5t-12.5 20t-5 36q0 25 6.5 59t23.5 88 q-50 26 -86 69.5t-59 97.5t-34 114.5t-11 122.5zM258 396q0 -48 12.5 -89t40.5 -70l148 526q-42 -12 -78.5 -49.5t-63.5 -89.5t-43 -112t-16 -116zM450 194q37 7 71.5 43.5t60 87.5t41 111t15.5 115q0 52 -11 95.5t-34 72.5q-30 -114 -65.5 -246t-77.5 -279z" />
<glyph unicode="&#xf9;" horiz-adv-x="962" d="M91 220q0 77 18.5 196t45.5 272q2 15 7.5 40.5t15 55.5t23.5 61t33 56t44.5 41t57.5 17q53 -2 76 -13.5t23 -28.5q-9 -53 -19.5 -118t-21.5 -131t-21 -128.5t-18 -111.5t-12.5 -79t-4.5 -31q0 -18 3.5 -34.5t10.5 -29.5t18 -21t26 -8q22 0 45 11.5t43.5 33t36.5 53 t24 71.5l99 508q5 24 40.5 40.5t80.5 16.5q51 0 81 -18t30 -46q0 -27 -6 -73.5t-15.5 -102t-20.5 -114.5t-20.5 -110t-15.5 -89.5t-6 -53.5q0 -28 1 -51.5t6 -41t15.5 -27t30.5 -9.5q22 0 53.5 11t67 29.5t72.5 42t70.5 49.5t61 51.5t44.5 47.5q0 -33 0.5 -60t0.5 -51.5 t0.5 -50.5t0.5 -58q-22 -22 -54.5 -47t-72 -50t-84 -48t-89.5 -40.5t-89 -28t-82 -10.5t-65 15t-46.5 42t-33 64.5t-23.5 83.5q-36 -47 -76 -86.5t-81.5 -68.5t-84 -45.5t-82.5 -16.5q-33 0 -62 11t-51.5 37t-35.5 68.5t-13 105.5zM223 1611q0 30 13 55t33.5 43t46.5 28 t52 10q29 0 55.5 -15t39.5 -49q46 -104 85 -194q16 -38 33 -77t31.5 -72.5t25.5 -60t17 -39.5q5 -13 7.5 -25t2.5 -23q0 -30 -17 -48.5t-41 -18.5q-17 0 -34.5 8.5t-33.5 28.5q-13 15 -33 40t-45 55.5t-52.5 64.5t-54 68.5t-51 66t-43.5 57.5q-37 52 -37 97z" />
<glyph unicode="&#xfa;" horiz-adv-x="962" d="M91 220q0 77 18.5 196t45.5 272q2 15 7.5 40.5t15 55.5t23.5 61t33 56t44.5 41t57.5 17q53 -2 76 -13.5t23 -28.5q-9 -53 -19.5 -118t-21.5 -131t-21 -128.5t-18 -111.5t-12.5 -79t-4.5 -31q0 -18 3.5 -34.5t10.5 -29.5t18 -21t26 -8q22 0 45 11.5t43.5 33t36.5 53 t24 71.5l99 508q5 24 40.5 40.5t80.5 16.5q51 0 81 -18t30 -46q0 -27 -6 -73.5t-15.5 -102t-20.5 -114.5t-20.5 -110t-15.5 -89.5t-6 -53.5q0 -28 1 -51.5t6 -41t15.5 -27t30.5 -9.5q22 0 53.5 11t67 29.5t72.5 42t70.5 49.5t61 51.5t44.5 47.5q0 -33 0.5 -60t0.5 -51.5 t0.5 -50.5t0.5 -58q-22 -22 -54.5 -47t-72 -50t-84 -48t-89.5 -40.5t-89 -28t-82 -10.5t-65 15t-46.5 42t-33 64.5t-23.5 83.5q-36 -47 -76 -86.5t-81.5 -68.5t-84 -45.5t-82.5 -16.5q-33 0 -62 11t-51.5 37t-35.5 68.5t-13 105.5zM496 1192q0 11 2.5 23t7.5 25 q6 13 17 39.5t25.5 60t31 72.5t33.5 77q39 90 85 194q13 34 39.5 49t55.5 15q26 0 52 -10t46.5 -28t33.5 -43t13 -55q0 -47 -37 -97q-19 -26 -43.5 -57.5t-51 -66t-54 -68.5t-52.5 -64.5t-45.5 -55.5t-32.5 -40q-17 -20 -34 -28.5t-34 -8.5q-24 0 -41 18.5t-17 48.5z" />
<glyph unicode="&#xfb;" horiz-adv-x="962" d="M91 220q0 77 18.5 196t45.5 272q2 15 7.5 40.5t15 55.5t23.5 61t33 56t44.5 41t57.5 17q53 -2 76 -13.5t23 -28.5q-9 -53 -19.5 -118t-21.5 -131t-21 -128.5t-18 -111.5t-12.5 -79t-4.5 -31q0 -18 3.5 -34.5t10.5 -29.5t18 -21t26 -8q22 0 45 11.5t43.5 33t36.5 53 t24 71.5l99 508q5 24 40.5 40.5t80.5 16.5q51 0 81 -18t30 -46q0 -27 -6 -73.5t-15.5 -102t-20.5 -114.5t-20.5 -110t-15.5 -89.5t-6 -53.5q0 -28 1 -51.5t6 -41t15.5 -27t30.5 -9.5q22 0 53.5 11t67 29.5t72.5 42t70.5 49.5t61 51.5t44.5 47.5q0 -33 0.5 -60t0.5 -51.5 t0.5 -50.5t0.5 -58q-22 -22 -54.5 -47t-72 -50t-84 -48t-89.5 -40.5t-89 -28t-82 -10.5t-65 15t-46.5 42t-33 64.5t-23.5 83.5q-36 -47 -76 -86.5t-81.5 -68.5t-84 -45.5t-82.5 -16.5q-33 0 -62 11t-51.5 37t-35.5 68.5t-13 105.5zM254 1213q0 19 8 38l164 329 q27 52 48.5 92t44.5 67t53 41t75 14q44 0 74 -16.5t51 -48.5t36.5 -78.5t30.5 -106.5q11 -34 18 -55t12 -37t9.5 -30t10.5 -34t15 -48.5t23 -73.5q5 -18 5 -35q0 -47 -29 -80t-86 -33q-19 0 -36.5 6t-32.5 21t-26.5 40.5t-17.5 64.5q-17 103 -31 175t-23 118q-11 54 -19 87 q-31 -81 -59 -154q-12 -31 -24.5 -63.5t-24 -62.5t-22 -56t-17.5 -44q-18 -47 -37.5 -73t-40 -38t-41.5 -14.5t-42 -2.5q-11 0 -23 6.5t-22 18.5t-17 28.5t-7 37.5z" />
<glyph unicode="&#xfc;" horiz-adv-x="962" d="M91 220q0 77 18.5 196t45.5 272q2 15 7.5 40.5t15 55.5t23.5 61t33 56t44.5 41t57.5 17q53 -2 76 -13.5t23 -28.5q-9 -53 -19.5 -118t-21.5 -131t-21 -128.5t-18 -111.5t-12.5 -79t-4.5 -31q0 -18 3.5 -34.5t10.5 -29.5t18 -21t26 -8q22 0 45 11.5t43.5 33t36.5 53 t24 71.5l99 508q5 24 40.5 40.5t80.5 16.5q51 0 81 -18t30 -46q0 -27 -6 -73.5t-15.5 -102t-20.5 -114.5t-20.5 -110t-15.5 -89.5t-6 -53.5q0 -28 1 -51.5t6 -41t15.5 -27t30.5 -9.5q22 0 53.5 11t67 29.5t72.5 42t70.5 49.5t61 51.5t44.5 47.5q0 -33 0.5 -60t0.5 -51.5 t0.5 -50.5t0.5 -58q-22 -22 -54.5 -47t-72 -50t-84 -48t-89.5 -40.5t-89 -28t-82 -10.5t-65 15t-46.5 42t-33 64.5t-23.5 83.5q-36 -47 -76 -86.5t-81.5 -68.5t-84 -45.5t-82.5 -16.5q-33 0 -62 11t-51.5 37t-35.5 68.5t-13 105.5zM222 1303q0 33 9 64.5t28 55.5t49 39 t72 15q70 0 107.5 -38t37.5 -110q0 -4 -1 -18.5t-6 -34t-15 -40.5t-28 -39t-45.5 -30t-66.5 -12q-64 0 -102.5 34.5t-38.5 113.5zM689 1303q0 33 9 64.5t28.5 55.5t49 39t71.5 15q71 0 108 -38t37 -110q0 -4 -1 -18.5t-5.5 -34t-14.5 -40.5t-28 -39t-45.5 -30t-67.5 -12 q-62 0 -101.5 34.5t-39.5 113.5z" />
<glyph unicode="&#xfd;" horiz-adv-x="928" d="M-64 -729q0 45 23 101.5t63 119t95 130t119.5 134.5t135 132t142.5 124l27 93q-54 -48 -112.5 -77.5t-113.5 -29.5q-48 0 -93.5 19.5t-80.5 56t-56 89t-21 118.5q0 87 8.5 160t24.5 139t40 127.5t55 124.5q23 45 66 68.5t84 23.5q35 0 60 -17.5t25 -54.5q0 -11 -2.5 -24 t-8.5 -28q-18 -46 -35.5 -108.5t-31 -128t-21.5 -128.5t-8 -111q0 -25 3.5 -48.5t12.5 -42t24 -30t38 -11.5q37 0 67 32t52 77t35.5 93t17.5 80l70 294q8 34 28.5 60.5t47 44.5t55.5 27t55 9q31 0 52 -13.5t21 -42.5q0 -9 -3 -21q-6 -26 -15 -71t-19.5 -102t-21.5 -120.5 t-21 -126.5q-25 -148 -51 -318q30 17 65 42t78 67t96 105.5t119 158.5l48 -222q-18 -31 -46.5 -63.5t-63 -65t-72 -63t-73.5 -57.5q-85 -64 -183 -124q-19 -107 -45 -208.5t-61.5 -190t-81 -162.5t-103 -127t-128.5 -82.5t-157 -29.5q-34 0 -73.5 7t-73 28t-55.5 60t-22 104 zM132 -699q0 -37 40 -37q42 0 79.5 24.5t69 64.5t57.5 91t46 104.5t34 104.5t22 91q-39 -26 -79.5 -62t-79 -77.5t-73 -85.5t-60.5 -84.5t-41 -75.5t-15 -58zM539 1183q0 11 2.5 23t7.5 25q6 13 17 39.5t25.5 60t31 72.5t33.5 77q39 90 85 194q13 34 39.5 49t55.5 15 q26 0 52 -10t46.5 -28t33.5 -43t13 -55q0 -47 -37 -97q-19 -26 -43.5 -57.5t-51 -66t-54 -68.5t-52.5 -64.5t-45.5 -55.5t-32.5 -40q-17 -20 -34 -28.5t-34 -8.5q-24 0 -41 18.5t-17 48.5z" />
<glyph unicode="&#xfe;" horiz-adv-x="1023" d="M-66 -563q0 12 1 26t3 29q16 117 29 204.5t23.5 157.5t19.5 128.5t19 117t21 123t26 147.5t33.5 189.5t43.5 249.5l5.5 27.5t15 74.5t23 110.5t28.5 137t31 153.5l32 160q10 50 32.5 69.5t46.5 19.5q15 0 36.5 -7t44.5 -18.5t46 -26.5t41 -32t29.5 -35t11.5 -34 q0 -4 -13.5 -8.5t-30 -8.5t-31 -8t-15.5 -7l-95 -571q80 70 145.5 112.5t129.5 42.5q59 0 105 -26t78 -69t49 -99t17 -117q0 -51 -4 -96.5t-14.5 -89t-29 -86.5t-48.5 -89q36 21 73 41t74.5 44t75.5 53.5t78 69.5l77 -165q-55 -50 -109.5 -87t-112 -64.5t-120 -47.5 t-132.5 -36q-17 -17 -46.5 -34t-58.5 -31q-33 -16 -71 -31h-25q-65 0 -130 14.5t-124 35.5l-124 -665q-6 -26 -16 -41.5t-22.5 -23.5t-26 -10.5t-26.5 -2.5q-9 0 -17 0.5t-16 0.5q-19 0 -35 10.5t-27 28t-17.5 41t-6.5 49.5zM307 225q33 -10 66 -17q29 -6 61 -11t61 -5 q34 0 62 20t50 53.5t38 76.5t26 89.5t15 92t5 83.5q0 25 -5.5 47.5t-20 39.5t-40 27.5t-64.5 10.5q-35 0 -70 -14.5t-65 -45t-53 -78t-34 -114.5q-9 -54 -15 -99.5t-10 -80.5q-4 -40 -7 -75z" />
<glyph unicode="&#xff;" horiz-adv-x="928" d="M-64 -729q0 45 23 101.5t63 119t95 130t119.5 134.5t135 132t142.5 124l27 93q-54 -48 -112.5 -77.5t-113.5 -29.5q-48 0 -93.5 19.5t-80.5 56t-56 89t-21 118.5q0 87 8.5 160t24.5 139t40 127.5t55 124.5q23 45 66 68.5t84 23.5q35 0 60 -17.5t25 -54.5q0 -11 -2.5 -24 t-8.5 -28q-18 -46 -35.5 -108.5t-31 -128t-21.5 -128.5t-8 -111q0 -25 3.5 -48.5t12.5 -42t24 -30t38 -11.5q37 0 67 32t52 77t35.5 93t17.5 80l70 294q8 34 28.5 60.5t47 44.5t55.5 27t55 9q31 0 52 -13.5t21 -42.5q0 -9 -3 -21q-6 -26 -15 -71t-19.5 -102t-21.5 -120.5 t-21 -126.5q-25 -148 -51 -318q30 17 65 42t78 67t96 105.5t119 158.5l48 -222q-18 -31 -46.5 -63.5t-63 -65t-72 -63t-73.5 -57.5q-85 -64 -183 -124q-19 -107 -45 -208.5t-61.5 -190t-81 -162.5t-103 -127t-128.5 -82.5t-157 -29.5q-34 0 -73.5 7t-73 28t-55.5 60t-22 104 zM132 -699q0 -37 40 -37q42 0 79.5 24.5t69 64.5t57.5 91t46 104.5t34 104.5t22 91q-39 -26 -79.5 -62t-79 -77.5t-73 -85.5t-60.5 -84.5t-41 -75.5t-15 -58zM205 1280q0 33 9 64.5t28 55.5t49 39t72 15q70 0 107.5 -38t37.5 -110q0 -4 -1 -18.5t-6 -34t-15 -40.5t-28 -39 t-45.5 -30t-66.5 -12q-64 0 -102.5 34.5t-38.5 113.5zM672 1280q0 33 9 64.5t28.5 55.5t49 39t71.5 15q71 0 108 -38t37 -110q0 -4 -1 -18.5t-5.5 -34t-14.5 -40.5t-28 -39t-45.5 -30t-67.5 -12q-62 0 -101.5 34.5t-39.5 113.5z" />
<glyph unicode="&#x131;" horiz-adv-x="537" d="M96 201q0 63 14.5 146.5t35.5 173t44.5 178.5t41.5 164q7 26 28 44.5t47.5 30t55 17t51.5 5.5q42 0 57 -15.5t15 -41.5q0 -22 -10 -63.5t-25 -94t-32 -113t-32 -121t-25 -118t-10 -103.5q0 -45 10 -71.5t41 -26.5q36 0 80 25t89 60.5t88 73.5t76 65v-203 q-36 -33 -89.5 -70.5t-115.5 -69t-126.5 -52.5t-122.5 -21q-52 0 -87.5 14.5t-57.5 40.5t-31.5 63.5t-9.5 82.5z" />
<glyph unicode="&#x153;" horiz-adv-x="1301" d="M64 437q0 63 16.5 126t46 121t69 108t86 87t97.5 58t102 21q70 0 136 -44t119 -146q95 191 276 191q56 0 104 -18t83.5 -50.5t55.5 -78.5t20 -103q0 -62 -30.5 -124t-84.5 -117t-128.5 -98t-161.5 -67q15 -27 29.5 -45t29.5 -28t31.5 -14t35.5 -4q60 0 126.5 24t129.5 60 t119 78.5t95 80.5l129 -134q-88 -91 -187 -161q-43 -30 -92.5 -59t-104 -51.5t-113 -36t-118.5 -13.5q-52 0 -97 17t-81 47t-61 71t-37 89q-24 -48 -59 -89t-76 -71t-86 -47t-89 -17q-88 0 -150.5 38.5t-102.5 100.5t-58.5 140t-18.5 158zM288 396q0 -42 8 -79t25 -64.5 t45 -44t67 -16.5q34 0 66 34.5t56 87t38.5 116t14.5 121.5q0 46 -7 85.5t-21 68.5t-36 46t-53 17q-41 0 -78 -35t-65 -89.5t-44 -120.5t-16 -127zM847 470q36 0 78.5 18.5t79 47.5t61.5 63t25 66q0 45 -16.5 74t-40.5 29q-43 0 -73.5 -16t-51 -41.5t-33 -58t-19 -65.5 t-8.5 -64t-2 -53z" />
<glyph unicode="&#x192;" horiz-adv-x="1314" d="M10 23q0 15 6.5 39.5t20 47.5t34 40t49.5 17q10 0 23 -11t27 -24.5t29 -24.5t29 -11q34 0 65 13.5t58.5 47t52.5 89.5t47.5 141.5t43.5 203t41 273.5h-172q-51 0 -73.5 24t-22.5 72q0 41 9 61.5t39.5 28t89.5 7t160 -0.5q15 106 36 205.5t51 186.5t71 158.5t97.5 122.5 t131 79.5t170.5 28.5q27 0 70.5 -7t84 -24.5t70 -46.5t29.5 -73q0 -15 -6.5 -39.5t-20 -47.5t-34.5 -40t-49 -17q-18 0 -39.5 11t-44.5 24.5t-47 24.5t-47 11q-49 0 -90 -29.5t-76 -95.5t-65 -172t-57 -260h267q45 0 70.5 -24t25.5 -72t-29 -72t-67 -24h-297 q-30 -138 -56.5 -265.5t-56.5 -237.5t-67 -200.5t-89 -154.5t-122 -99t-166 -35q-22 0 -56.5 7t-67.5 24.5t-56.5 46.5t-23.5 73z" />
<glyph unicode="&#x2000;" horiz-adv-x="1334" />
<glyph unicode="&#x2001;" horiz-adv-x="2668" />
<glyph unicode="&#x2002;" horiz-adv-x="1334" />
<glyph unicode="&#x2003;" horiz-adv-x="2668" />
<glyph unicode="&#x2004;" horiz-adv-x="889" />
<glyph unicode="&#x2005;" horiz-adv-x="667" />
<glyph unicode="&#x2006;" horiz-adv-x="444" />
<glyph unicode="&#x2007;" horiz-adv-x="444" />
<glyph unicode="&#x2008;" horiz-adv-x="333" />
<glyph unicode="&#x2009;" horiz-adv-x="533" />
<glyph unicode="&#x200a;" horiz-adv-x="148" />
<glyph unicode="&#x2010;" horiz-adv-x="768" d="M63 621q0 13 3 27.5t13 27t29.5 20.5t51.5 8h448q13 0 30 -3t31 -11.5t24 -23t10 -38.5q0 -20 -4.5 -40.5t-18 -37t-38.5 -27.5t-67 -11h-415q-32 0 -51 11.5t-29.5 28t-13.5 35.5t-3 34z" />
<glyph unicode="&#x2011;" horiz-adv-x="768" d="M63 621q0 13 3 27.5t13 27t29.5 20.5t51.5 8h448q13 0 30 -3t31 -11.5t24 -23t10 -38.5q0 -20 -4.5 -40.5t-18 -37t-38.5 -27.5t-67 -11h-415q-32 0 -51 11.5t-29.5 28t-13.5 35.5t-3 34z" />
<glyph unicode="&#x2012;" horiz-adv-x="768" d="M63 621q0 13 3 27.5t13 27t29.5 20.5t51.5 8h448q13 0 30 -3t31 -11.5t24 -23t10 -38.5q0 -20 -4.5 -40.5t-18 -37t-38.5 -27.5t-67 -11h-415q-32 0 -51 11.5t-29.5 28t-13.5 35.5t-3 34z" />
<glyph unicode="&#x2013;" horiz-adv-x="991" d="M65 492q0 38 9.5 61t26 35t39 16t47.5 4h620q37 0 60.5 -7.5t37 -20t18.5 -28.5t5 -34q0 -28 -6.5 -52.5t-21 -42.5t-38.5 -28.5t-59 -10.5h-644q-17 0 -33.5 6t-30 19t-22 33.5t-8.5 49.5z" />
<glyph unicode="&#x2014;" horiz-adv-x="1120" d="M63 492q0 38 9.5 61t26 35t39 16t47.5 4h750q37 0 60.5 -7.5t37 -20t18.5 -28.5t5 -34q0 -28 -6.5 -52.5t-21 -42.5t-38.5 -28.5t-59 -10.5h-774q-17 0 -33.5 6t-30 19t-22 33.5t-8.5 49.5z" />
<glyph unicode="&#x2018;" horiz-adv-x="704" d="M160 1293q0 12 2 24.5t6 26.5q13 48 30 105.5t34.5 114.5t34 108.5t29.5 87.5q17 48 48.5 71.5t63.5 23.5t56 -24.5t24 -73.5q0 -18 -1.5 -47t-3.5 -63.5t-5 -73t-6 -75.5q-7 -87 -16 -186q0 -30 -15 -54t-39 -40.5t-54 -25t-60 -8.5q-25 0 -48 6.5t-41 19.5t-28.5 33.5 t-10.5 49.5z" />
<glyph unicode="&#x2019;" horiz-adv-x="640" d="M160 1283q0 18 1.5 46.5t3.5 63t5 73t6 75.5q7 87 16 187q0 30 15 53.5t39 40t54 25.5t60 9q25 0 48 -6.5t41 -19.5t28.5 -34t10.5 -49q0 -12 -2 -24.5t-6 -26.5q-14 -48 -30.5 -105.5t-34 -114.5t-34 -108.5t-29.5 -87.5q-17 -48 -48.5 -71.5t-63.5 -23.5t-56 24.5 t-24 73.5z" />
<glyph unicode="&#x201c;" horiz-adv-x="1184" d="M160 1293q0 12 2 24.5t6 26.5q13 48 30 105.5t34.5 114.5t34 108.5t29.5 87.5q17 48 48.5 71.5t63.5 23.5t56 -24.5t24 -73.5q0 -18 -1.5 -47t-3.5 -63.5t-5 -73t-6 -75.5q-7 -87 -16 -186q0 -30 -15 -54t-39 -40.5t-54 -25t-60 -8.5q-25 0 -48 6.5t-41 19.5t-28.5 33.5 t-10.5 49.5zM544 1293q0 12 2 24.5t6 26.5q13 48 30 105.5t34.5 114.5t34 108.5t29.5 87.5q17 48 48.5 71.5t63.5 23.5t56 -24.5t24 -73.5q0 -18 -1.5 -47t-3.5 -63.5t-5 -73t-6 -75.5q-7 -87 -16 -186q0 -30 -15 -54t-39 -40.5t-54 -25t-60 -8.5q-25 0 -48 6.5t-41 19.5 t-28.5 33.5t-10.5 49.5z" />
<glyph unicode="&#x201d;" horiz-adv-x="1184" d="M160 1283q0 18 1.5 46.5t3.5 63t5 73t6 75.5q7 87 16 187q0 30 15 53.5t39 40t54 25.5t60 9q25 0 48 -6.5t41 -19.5t28.5 -34t10.5 -49q0 -12 -2 -24.5t-6 -26.5q-14 -48 -30.5 -105.5t-34 -114.5t-34 -108.5t-29.5 -87.5q-17 -48 -48.5 -71.5t-63.5 -23.5t-56 24.5 t-24 73.5zM544 1283q0 18 1.5 46.5t3.5 63t5 73t6 75.5q7 87 16 187q0 30 15 53.5t39 40t54 25.5t60 9q25 0 48 -6.5t41 -19.5t28.5 -34t10.5 -49q0 -12 -2 -24.5t-6 -26.5q-14 -48 -30.5 -105.5t-34 -114.5t-34 -108.5t-29.5 -87.5q-17 -48 -48.5 -71.5t-63.5 -23.5 t-56 24.5t-24 73.5z" />
<glyph unicode="&#x2026;" horiz-adv-x="1567" d="M320 162q0 36 10.5 70.5t32.5 61.5t57 43t83 16q83 0 126 -42t43 -120q0 -4 -1 -20t-6.5 -37t-17 -44.5t-32.5 -43.5t-53 -33t-78 -13q-37 0 -67 9.5t-51.5 29t-33.5 50t-12 73.5zM736 162q0 36 10.5 70.5t32.5 61.5t57 43t83 16q83 0 126 -42t43 -120q0 -4 -1 -20 t-6.5 -37t-17 -44.5t-32.5 -43.5t-53 -33t-78 -13q-37 0 -67 9.5t-51.5 29t-33.5 50t-12 73.5zM1152 162q0 36 10.5 70.5t32.5 61.5t57 43t83 16q83 0 126 -42t43 -120q0 -4 -1 -20t-6.5 -37t-17 -44.5t-32.5 -43.5t-53 -33t-78 -13q-37 0 -67 9.5t-51.5 29t-33.5 50 t-12 73.5z" />
<glyph unicode="&#x202f;" horiz-adv-x="533" />
<glyph unicode="&#x205f;" horiz-adv-x="667" />
<glyph unicode="&#x25fc;" horiz-adv-x="895" d="M0 0v895h895v-895h-895z" />
</font>
</defs>
</svg>
